999
dxflib 3.17.0.0
  0
SECTION
  2
HEADER
  9
$ACADVER
  1
AC1015
  9
$HANDSEED
  5
FFFF
  9
$DIMADEC
 70
0
  9
$DIMASZ
 40
0.18
  9
$DIMAUNIT
 70
0
  9
$DIMAZIN
 70
0
  9
$DIMDEC
 70
4
  9
$DIMDLI
 40
0.36
  9
$DIMDSEP
 70
46
  9
$DIMEXE
 40
0.18
  9
$DIMEXO
 40
0.0625
  9
$DIMGAP
 40
0.09
  9
$DIMLUNIT
 70
2
  9
$DIMSCALE
 40
1.0
  9
$DIMTSZ
 40
0.0
  9
$DIMTXT
 40
0.18
  9
$DIMZIN
 70
0
  9
$DWGCODEPAGE
  3
ANSI_1252
  9
$EXTMAX
 10
1000.0
 20
1000.0
 30
0.0
  9
$EXTMIN
 10
0.0
 20
0.0
 30
0.0
  9
$FILLMODE
 70
0
  9
$INSUNITS
 70
0
  9
$LTSCALE
 40
1.0
  9
$MAXACTVP
 70
64
  9
$MEASUREMENT
 70
1
  9
$MIRRTEXT
 70
0
  9
$PDMODE
 70
0
  9
$PDSIZE
 40
0.0
  9
$SPLFRAME
 70
1
  0
ENDSEC
  0
SECTION
  2
TABLES
  0
TABLE
  2
VPORT
  5
8
100
AcDbSymbolTable
 70
1
  0
VPORT
  5
30
100
AcDbSymbolTableRecord
100
AcDbViewportTableRecord
  2
*Active
 70
0
 10
0.0
 20
0.0
 11
1.0
 21
1.0
 12
286.3055555555554861
 22
148.5
 13
0.0
 23
0.0
 14
10.0
 24
10.0
 15
10.0
 25
10.0
 16
0.0
 26
0.0
 36
1.0
 17
0.0
 27
0.0
 37
0.0
 40
297.0
 41
1.92798353909465
 42
50.0
 43
0.0
 44
0.0
 50
0.0
 51
0.0
 71
0
 72
100
 73
1
 74
3
 75
1
 76
1
 77
0
 78
0
281
0
 65
1
110
0.0
120
0.0
130
0.0
111
1.0
121
0.0
131
0.0
112
0.0
122
1.0
132
0.0
 79
0
146
0.0
  0
ENDTAB
  0
TABLE
  2
LTYPE
  5
5
100
AcDbSymbolTable
 70
3
  0
LTYPE
  5
16
100
AcDbSymbolTableRecord
100
AcDbLinetypeTableRecord
  2
Continuous
 70
0
  3
Solid line
 72
65
 73
0
 40
0.0
  0
LTYPE
  5
15
100
AcDbSymbolTableRecord
100
AcDbLinetypeTableRecord
  2
BYLAYER
 70
0
  3

 72
65
 73
0
 40
0.0
  0
LTYPE
  5
14
100
AcDbSymbolTableRecord
100
AcDbLinetypeTableRecord
  2
BYBLOCK
 70
0
  3

 72
65
 73
0
 40
0.0
  0
ENDTAB
  0
TABLE
  2
LAYER
  5
2
100
AcDbSymbolTable
 70
3
  0
LAYER
  5
31
100
AcDbSymbolTableRecord
100
AcDbLayerTableRecord
  2
Switch Holes
 70
0
 62
3
420
65280
  6
Continuous
370
25
390
F
  0
LAYER
  5
32
100
AcDbSymbolTableRecord
100
AcDbLayerTableRecord
  2
Mounting Holes
 70
0
 62
4
420
65535
  6
Continuous
370
25
390
F
  0
LAYER
  5
10
100
AcDbSymbolTableRecord
100
AcDbLayerTableRecord
  2
0
 70
0
 62
7
420
16777215
  6
Continuous
370
5
390
F
  0
ENDTAB
  0
TABLE
  2
STYLE
  5
3
100
AcDbSymbolTable
 70
1
  0
STYLE
  5
33
100
AcDbSymbolTableRecord
100
AcDbTextStyleTableRecord
  2
Standard
 70
0
 40
0.0
 41
1.0
 50
0.0
 71
0
 42
2.5
  3

  4

1001
ACAD
1000
txt
1071
0
  0
ENDTAB
  0
TABLE
  2
VIEW
  5
6
100
AcDbSymbolTable
 70
0
  0
ENDTAB
  0
TABLE
  2
UCS
  5
7
100
AcDbSymbolTable
 70
0
  0
ENDTAB
  0
TABLE
  2
APPID
  5
9
100
AcDbSymbolTable
 70
1
  0
APPID
  5
12
100
AcDbSymbolTableRecord
100
AcDbRegAppTableRecord
  2
ACAD
 70
0
  0
APPID
  5
34
100
AcDbSymbolTableRecord
100
AcDbRegAppTableRecord
  2
QCAD
 70
0
  0
ENDTAB
  0
TABLE
  2
DIMSTYLE
  5
A
100
AcDbSymbolTable
 70
1
100
AcDbDimStyleTable
 71
0
  0
DIMSTYLE
105
27
100
AcDbSymbolTableRecord
100
AcDbDimStyleTableRecord
  2
Standard
 41
0.18
 42
0.0625
 43
3.75
 44
0.18
 70
0
 73
0
 74
0
 77
1
 78
8
140
0.18
141
2.5
143
0.03937007874016
147
0.09
171
3
172
1
271
2
272
2
274
3
278
44
283
0
284
8
340
33
  0
ENDTAB
  0
TABLE
  2
BLOCK_RECORD
  5
1
100
AcDbSymbolTable
 70
1
  0
BLOCK_RECORD
  5
1F
100
AcDbSymbolTableRecord
100
AcDbBlockTableRecord
  2
*Model_Space
340
22
  0
BLOCK_RECORD
  5
1B
100
AcDbSymbolTableRecord
100
AcDbBlockTableRecord
  2
*Paper_Space
340
1E
  0
BLOCK_RECORD
  5
23
100
AcDbSymbolTableRecord
100
AcDbBlockTableRecord
  2
*Paper_Space0
340
26
  0
ENDTAB
  0
ENDSEC
  0
SECTION
  2
BLOCKS
  0
BLOCK
  5
20
100
AcDbEntity
  8
0
100
AcDbBlockBegin
  2
*Model_Space
 70
0
 10
0.0
 20
0.0
 30
0.0
  3
*Model_Space
  1

  0
ENDBLK
  5
21
100
AcDbEntity
  8
0
100
AcDbBlockEnd
  0
BLOCK
  5
1C
100
AcDbEntity
 67
1
  8
0
100
AcDbBlockBegin
  2
*Paper_Space
 70
0
 10
0.0
 20
0.0
 30
0.0
  3
*Paper_Space
  1

  0
ENDBLK
  5
1D
100
AcDbEntity
 67
1
  8
0
100
AcDbBlockEnd
  0
BLOCK
  5
24
100
AcDbEntity
  8
0
100
AcDbBlockBegin
  2
*Paper_Space0
 70
0
 10
0.0
 20
0.0
 30
0.0
  3
*Paper_Space0
  1

  0
ENDBLK
  5
25
100
AcDbEntity
  8
0
100
AcDbBlockEnd
  0
ENDSEC
  0
SECTION
  2
ENTITIES
  0
LWPOLYLINE
  5
35
100
AcDbEntity
  8
Mounting Holes
 62
256
370
-1
 48
1.0
  6
BYLAYER
100
AcDbPolyline
 90
25
 70
1
 10
2336.7966186208714134
 20
219.2782002415295892
 10
2336.7966186208714134
 20
219.1150684455295732
 10
2336.6637394396716445
 20
218.6231477975295547
 10
2336.3034353428715804
 20
218.0872876255295978
 10
2335.767726686471633
 20
217.7256703935295832
 10
2335.2759070488714315
 20
217.592841717529609
 10
2335.1128510106714202
 20
217.592841717529609
 10
2334.9484565846714759
 20
217.592841717529609
 10
2334.4565864418714227
 20
217.7256703935295832
 10
2333.920928290671327
 20
218.0872876255295978
 10
2333.5592100482713249
 20
218.6231477975295547
 10
2333.4276945074716423
 20
219.1150684455295732
 10
2333.4276945074716423
 20
219.2782002415295892
 10
2333.4276945074716423
 20
219.4425946675295904
 10
2333.5592100482713249
 20
219.9342627895296118
 10
2333.920928290671327
 20
220.4698704355295718
 10
2334.4565864418714227
 20
220.8317401935295834
 10
2334.9484565846714759
 20
220.9633062395295724
 10
2335.1128510106714202
 20
220.9633062395295724
 10
2335.2759070488714315
 20
220.9633062395295724
 10
2335.767726686471633
 20
220.8317401935295834
 10
2336.3034353428715804
 20
220.4698704355295718
 10
2336.6637394396716445
 20
219.9342627895296118
 10
2336.7966186208714134
 20
219.4425946675295904
 10
2336.7966186208714134
 20
219.2782002415295892
  0
LWPOLYLINE
  5
36
100
AcDbEntity
  8
Mounting Holes
 62
256
370
-1
 48
1.0
  6
BYLAYER
100
AcDbPolyline
 90
25
 70
1
 10
2446.6452013474713567
 20
204.000629767529631
 10
2446.6452013474713567
 20
203.8377504975295551
 10
2446.5121201454712718
 20
203.3458298495295935
 10
2446.1520180694715236
 20
202.8102222035295767
 10
2445.6164104234712795
 20
202.448604971529619
 10
2445.1242372494716619
 20
202.3155237695295909
 10
2444.9613579794713587
 20
202.3155237695295909
 10
2444.7969635534714143
 20
202.3155237695295909
 10
2444.3035277494714137
 20
202.448604971529619
 10
2443.7694352594712655
 20
202.8102222035295767
 10
2443.4078180274714214
 20
203.3458298495295935
 10
2443.2762519814714324
 20
203.8377504975295551
 10
2443.2762519814714324
 20
204.000629767529631
 10
2443.2762519814714324
 20
204.1652767195295723
 10
2443.4078180274714214
 20
204.6569448415295938
 10
2443.7694352594712655
 20
205.1925524875296105
 10
2444.3035277494714137
 20
205.5529070895295831
 10
2444.7969635534714143
 20
205.6844731355295721
 10
2444.9613579794713587
 20
205.6844731355295721
 10
2445.1242372494716619
 20
205.6844731355295721
 10
2445.6164104234712795
 20
205.5529070895295831
 10
2446.1520180694715236
 20
205.1925524875296105
 10
2446.5121201454712718
 20
204.6569448415295938
 10
2446.6452013474713567
 20
204.1652767195295723
 10
2446.6452013474713567
 20
204.000629767529631
  0
LWPOLYLINE
  5
37
100
AcDbEntity
  8
Mounting Holes
 62
256
370
-1
 48
1.0
  6
BYLAYER
100
AcDbPolyline
 90
25
 70
1
 10
2429.6007064514715239
 20
295.6675677675295901
 10
2429.6007064514715239
 20
295.5044359715295741
 10
2429.467625249471439
 20
295.0127678495296095
 10
2429.1057554914714274
 20
294.4769076775296526
 10
2428.570147845471638
 20
294.1152904455295811
 10
2428.0784797234714461
 20
293.9822092435296099
 10
2427.91534792747143
 20
293.9822092435296099
 10
2427.7509535014714857
 20
293.9822092435296099
 10
2427.2590328534715809
 20
294.1152904455295811
 10
2426.7231726814716239
 20
294.4769076775296526
 10
2426.3615554494713251
 20
295.0127678495296095
 10
2426.2302419294715037
 20
295.5044359715295741
 10
2426.2302419294715037
 20
295.6675677675295901
 10
2426.2302419294715037
 20
295.8319621935295913
 10
2426.3615554494713251
 20
296.3236303155296127
 10
2426.7231726814716239
 20
296.8592379615296295
 10
2427.2590328534715809
 20
297.2198450895295991
 10
2427.7509535014714857
 20
297.3514111355295881
 10
2427.91534792747143
 20
297.3514111355295881
 10
2428.0784797234714461
 20
297.3514111355295881
 10
2428.570147845471638
 20
297.2198450895295991
 10
2429.1057554914714274
 20
296.8592379615296295
 10
2429.467625249471439
 20
296.3236303155296127
 10
2429.6007064514715239
 20
295.8319621935295913
 10
2429.6007064514715239
 20
295.6675677675295901
  0
LWPOLYLINE
  5
38
100
AcDbEntity
  8
Mounting Holes
 62
256
370
-1
 48
1.0
  6
BYLAYER
100
AcDbPolyline
 90
25
 70
1
 10
2352.2684068414714602
 20
294.2152907415295999
 10
2352.2684068414714602
 20
294.0152901495296192
 10
2352.1052750454714442
 20
293.4109954315296136
 10
2351.6615868634717117
 20
292.7534177275295519
 10
2351.0055243154715754
 20
292.3107396495295802
 10
2350.4012295974716835
 20
292.1478603795296181
 10
2350.2012290054713048
 20
292.1478603795296181
 10
2349.9999657834714526
 20
292.1478603795296181
 10
2349.3956710654715607
 20
292.3107396495295802
 10
2348.7378408354716157
 20
292.7534177275295519
 10
2348.2939001274717157
 20
293.4109954315296136
 10
2348.1322834874713408
 20
294.0152901495296192
 10
2348.1322834874713408
 20
294.2152907415295999
 10
2348.1322834874713408
 20
294.4165539635295659
 10
2348.2939001274717157
 20
295.0208486815295714
 10
2348.7378408354716157
 20
295.6784263855296331
 10
2349.3956710654715607
 20
296.1211044635296048
 10
2349.9999657834714526
 20
296.2827211035296386
 10
2350.2012290054713048
 20
296.2827211035296386
 10
2350.4012295974716835
 20
296.2827211035296386
 10
2351.0055243154715754
 20
296.1211044635296048
 10
2351.6615868634717117
 20
295.6784263855296331
 10
2352.1052750454714442
 20
295.0208486815295714
 10
2352.2684068414714602
 20
294.4165539635295659
 10
2352.2684068414714602
 20
294.2152907415295999
  0
LWPOLYLINE
  5
39
100
AcDbEntity
  8
Mounting Holes
 62
256
370
-1
 48
1.0
  6
BYLAYER
100
AcDbPolyline
 90
25
 70
1
 10
2319.7519217040712647
 20
293.7726126635296282
 10
2319.7519217040712647
 20
293.6097333935296092
 10
2319.6190425228714957
 20
293.1178127455295908
 10
2319.2573747856713453
 20
292.582205099529574
 10
2318.7216661292713979
 20
292.2218504975296014
 10
2318.229821239071498
 20
292.0890218215296272
 10
2318.0668157060717931
 20
292.0890218215296272
 10
2317.9023960274716956
 20
292.0890218215296272
 10
2317.4105511372717956
 20
292.2218504975296014
 10
2316.8748424808713935
 20
292.582205099529574
 10
2316.513174743671243
 20
293.1178127455295908
 10
2316.3816592028715604
 20
293.6097333935296092
 10
2316.3816592028715604
 20
293.7726126635296282
 10
2316.3816592028715604
 20
293.9370070895296294
 10
2316.513174743671243
 20
294.429180263529588
 10
2316.8748424808713935
 20
294.9647879095296048
 10
2317.4105511372717956
 20
295.3264051415296194
 10
2317.9023960274716956
 20
295.4577186615296114
 10
2318.0668157060717931
 20
295.4577186615296114
 10
2318.229821239071498
 20
295.4577186615296114
 10
2318.7216661292713979
 20
295.3264051415296194
 10
2319.2573747856713453
 20
294.9647879095296048
 10
2319.6190425228714957
 20
294.429180263529588
 10
2319.7519217040712647
 20
293.9370070895296294
 10
2319.7519217040712647
 20
293.7726126635296282
  0
LWPOLYLINE
  5
3A
100
AcDbEntity
  8
Switch Holes
 62
256
370
-1
 48
1.0
  6
BYLAYER
100
AcDbPolyline
 90
2
 70
0
 10
2338.2681128754711608
 20
288.0910301895295902
 10
2352.157547927471569
 20
288.0910301895295902
  0
LWPOLYLINE
  5
3B
100
AcDbEntity
  8
Switch Holes
 62
256
370
-1
 48
1.0
  6
BYLAYER
100
AcDbPolyline
 90
2
 70
0
 10
2352.157547927471569
 20
288.0910301895295902
 10
2352.157547927471569
 20
274.203110293529619
  0
LWPOLYLINE
  5
3C
100
AcDbEntity
  8
Switch Holes
 62
256
370
-1
 48
1.0
  6
BYLAYER
100
AcDbPolyline
 90
2
 70
0
 10
2352.157547927471569
 20
274.203110293529619
 10
2338.2681128754711608
 20
274.203110293529619
  0
LWPOLYLINE
  5
3D
100
AcDbEntity
  8
Switch Holes
 62
256
370
-1
 48
1.0
  6
BYLAYER
100
AcDbPolyline
 90
2
 70
0
 10
2338.2681128754711608
 20
274.203110293529619
 10
2338.2681128754711608
 20
288.0910301895295902
  0
LWPOLYLINE
  5
3E
100
AcDbEntity
  8
Switch Holes
 62
256
370
-1
 48
1.0
  6
BYLAYER
100
AcDbPolyline
 90
2
 70
0
 10
2357.2073103494717543
 20
292.5109927675296149
 10
2371.0969979274714206
 20
292.5109927675296149
  0
LWPOLYLINE
  5
3F
100
AcDbEntity
  8
Switch Holes
 62
256
370
-1
 48
1.0
  6
BYLAYER
100
AcDbPolyline
 90
2
 70
0
 10
2371.0969979274714206
 20
292.5109927675296149
 10
2371.0969979274714206
 20
278.6213051895296076
  0
LWPOLYLINE
  5
40
100
AcDbEntity
  8
Switch Holes
 62
256
370
-1
 48
1.0
  6
BYLAYER
100
AcDbPolyline
 90
2
 70
0
 10
2371.0969979274714206
 20
278.6213051895296076
 10
2357.2073103494717543
 20
278.6213051895296076
  0
LWPOLYLINE
  5
41
100
AcDbEntity
  8
Switch Holes
 62
256
370
-1
 48
1.0
  6
BYLAYER
100
AcDbPolyline
 90
2
 70
0
 10
2357.2073103494717543
 20
278.6213051895296076
 10
2357.2073103494717543
 20
292.5109927675296149
  0
LWPOLYLINE
  5
42
100
AcDbEntity
  8
Switch Holes
 62
256
370
-1
 48
1.0
  6
BYLAYER
100
AcDbPolyline
 90
2
 70
0
 10
2376.1467603494716059
 20
295.0360002415296208
 10
2390.0364479274712721
 20
295.0360002415296208
  0
LWPOLYLINE
  5
43
100
AcDbEntity
  8
Switch Holes
 62
256
370
-1
 48
1.0
  6
BYLAYER
100
AcDbPolyline
 90
2
 70
0
 10
2390.0364479274712721
 20
295.0360002415296208
 10
2390.0364479274712721
 20
281.1475752935295986
  0
LWPOLYLINE
  5
44
100
AcDbEntity
  8
Switch Holes
 62
256
370
-1
 48
1.0
  6
BYLAYER
100
AcDbPolyline
 90
2
 70
0
 10
2390.0364479274712721
 20
281.1475752935295986
 10
2376.1467603494716059
 20
281.1475752935295986
  0
LWPOLYLINE
  5
45
100
AcDbEntity
  8
Switch Holes
 62
256
370
-1
 48
1.0
  6
BYLAYER
100
AcDbPolyline
 90
2
 70
0
 10
2376.1467603494716059
 20
281.1475752935295986
 10
2376.1467603494716059
 20
295.0360002415296208
  0
LWPOLYLINE
  5
46
100
AcDbEntity
  8
Switch Holes
 62
256
370
-1
 48
1.0
  6
BYLAYER
100
AcDbPolyline
 90
2
 70
0
 10
2395.0862103494714574
 20
292.5109927675296149
 10
2408.9758979274715784
 20
292.5109927675296149
  0
LWPOLYLINE
  5
47
100
AcDbEntity
  8
Switch Holes
 62
256
370
-1
 48
1.0
  6
BYLAYER
100
AcDbPolyline
 90
2
 70
0
 10
2408.9758979274715784
 20
292.5109927675296149
 10
2408.9758979274715784
 20
278.6213051895296076
  0
LWPOLYLINE
  5
48
100
AcDbEntity
  8
Switch Holes
 62
256
370
-1
 48
1.0
  6
BYLAYER
100
AcDbPolyline
 90
2
 70
0
 10
2408.9758979274715784
 20
278.6213051895296076
 10
2395.0862103494714574
 20
278.6213051895296076
  0
LWPOLYLINE
  5
49
100
AcDbEntity
  8
Switch Holes
 62
256
370
-1
 48
1.0
  6
BYLAYER
100
AcDbPolyline
 90
2
 70
0
 10
2395.0862103494714574
 20
278.6213051895296076
 10
2395.0862103494714574
 20
292.5109927675296149
  0
LWPOLYLINE
  5
4A
100
AcDbEntity
  8
Switch Holes
 62
256
370
-1
 48
1.0
  6
BYLAYER
100
AcDbPolyline
 90
2
 70
0
 10
2414.0256603494717638
 20
290.6173002935295813
 10
2427.91534792747143
 20
290.6173002935295813
  0
LWPOLYLINE
  5
4B
100
AcDbEntity
  8
Switch Holes
 62
256
370
-1
 48
1.0
  6
BYLAYER
100
AcDbPolyline
 90
2
 70
0
 10
2427.91534792747143
 20
290.6173002935295813
 10
2427.91534792747143
 20
276.728117767529568
  0
LWPOLYLINE
  5
4C
100
AcDbEntity
  8
Switch Holes
 62
256
370
-1
 48
1.0
  6
BYLAYER
100
AcDbPolyline
 90
2
 70
0
 10
2427.91534792747143
 20
276.728117767529568
 10
2414.0256603494717638
 20
276.728117767529568
  0
LWPOLYLINE
  5
4D
100
AcDbEntity
  8
Switch Holes
 62
256
370
-1
 48
1.0
  6
BYLAYER
100
AcDbPolyline
 90
2
 70
0
 10
2414.0256603494717638
 20
276.728117767529568
 10
2414.0256603494717638
 20
290.6173002935295813
  0
LWPOLYLINE
  5
4E
100
AcDbEntity
  8
Switch Holes
 62
256
370
-1
 48
1.0
  6
BYLAYER
100
AcDbPolyline
 90
2
 70
0
 10
2432.9651103494716153
 20
281.1475752935295986
 10
2446.8547979274712816
 20
281.1475752935295986
  0
LWPOLYLINE
  5
4F
100
AcDbEntity
  8
Switch Holes
 62
256
370
-1
 48
1.0
  6
BYLAYER
100
AcDbPolyline
 90
2
 70
0
 10
2446.8547979274712816
 20
281.1475752935295986
 10
2446.8547979274712816
 20
267.2583927675295854
  0
LWPOLYLINE
  5
50
100
AcDbEntity
  8
Switch Holes
 62
256
370
-1
 48
1.0
  6
BYLAYER
100
AcDbPolyline
 90
2
 70
0
 10
2446.8547979274712816
 20
267.2583927675295854
 10
2432.9651103494716153
 20
267.2583927675295854
  0
LWPOLYLINE
  5
51
100
AcDbEntity
  8
Switch Holes
 62
256
370
-1
 48
1.0
  6
BYLAYER
100
AcDbPolyline
 90
2
 70
0
 10
2432.9651103494716153
 20
267.2583927675295854
 10
2432.9651103494716153
 20
281.1475752935295986
  0
LWPOLYLINE
  5
52
100
AcDbEntity
  8
Switch Holes
 62
256
370
-1
 48
1.0
  6
BYLAYER
100
AcDbPolyline
 90
2
 70
0
 10
2338.2681128754711608
 20
269.1515801895296249
 10
2352.157547927471569
 20
269.1515801895296249
  0
LWPOLYLINE
  5
53
100
AcDbEntity
  8
Switch Holes
 62
256
370
-1
 48
1.0
  6
BYLAYER
100
AcDbPolyline
 90
2
 70
0
 10
2352.157547927471569
 20
269.1515801895296249
 10
2352.157547927471569
 20
255.2636602935295969
  0
LWPOLYLINE
  5
54
100
AcDbEntity
  8
Switch Holes
 62
256
370
-1
 48
1.0
  6
BYLAYER
100
AcDbPolyline
 90
2
 70
0
 10
2352.157547927471569
 20
255.2636602935295969
 10
2338.2681128754711608
 20
255.2636602935295969
  0
LWPOLYLINE
  5
55
100
AcDbEntity
  8
Switch Holes
 62
256
370
-1
 48
1.0
  6
BYLAYER
100
AcDbPolyline
 90
2
 70
0
 10
2338.2681128754711608
 20
255.2636602935295969
 10
2338.2681128754711608
 20
269.1515801895296249
  0
LWPOLYLINE
  5
56
100
AcDbEntity
  8
Switch Holes
 62
256
370
-1
 48
1.0
  6
BYLAYER
100
AcDbPolyline
 90
2
 70
0
 10
2357.2073103494717543
 20
273.5715427675295928
 10
2371.0969979274714206
 20
273.5715427675295928
  0
LWPOLYLINE
  5
57
100
AcDbEntity
  8
Switch Holes
 62
256
370
-1
 48
1.0
  6
BYLAYER
100
AcDbPolyline
 90
2
 70
0
 10
2371.0969979274714206
 20
273.5715427675295928
 10
2371.0969979274714206
 20
259.6818551895295855
  0
LWPOLYLINE
  5
58
100
AcDbEntity
  8
Switch Holes
 62
256
370
-1
 48
1.0
  6
BYLAYER
100
AcDbPolyline
 90
2
 70
0
 10
2371.0969979274714206
 20
259.6818551895295855
 10
2357.2073103494717543
 20
259.6818551895295855
  0
LWPOLYLINE
  5
59
100
AcDbEntity
  8
Switch Holes
 62
256
370
-1
 48
1.0
  6
BYLAYER
100
AcDbPolyline
 90
2
 70
0
 10
2357.2073103494717543
 20
259.6818551895295855
 10
2357.2073103494717543
 20
273.5715427675295928
  0
LWPOLYLINE
  5
5A
100
AcDbEntity
  8
Switch Holes
 62
256
370
-1
 48
1.0
  6
BYLAYER
100
AcDbPolyline
 90
2
 70
0
 10
2376.1467603494716059
 20
276.0965502415295987
 10
2390.0364479274712721
 20
276.0965502415295987
  0
LWPOLYLINE
  5
5B
100
AcDbEntity
  8
Switch Holes
 62
256
370
-1
 48
1.0
  6
BYLAYER
100
AcDbPolyline
 90
2
 70
0
 10
2390.0364479274712721
 20
276.0965502415295987
 10
2390.0364479274712721
 20
262.2081252935295765
  0
LWPOLYLINE
  5
5C
100
AcDbEntity
  8
Switch Holes
 62
256
370
-1
 48
1.0
  6
BYLAYER
100
AcDbPolyline
 90
2
 70
0
 10
2390.0364479274712721
 20
262.2081252935295765
 10
2376.1467603494716059
 20
262.2081252935295765
  0
LWPOLYLINE
  5
5D
100
AcDbEntity
  8
Switch Holes
 62
256
370
-1
 48
1.0
  6
BYLAYER
100
AcDbPolyline
 90
2
 70
0
 10
2376.1467603494716059
 20
262.2081252935295765
 10
2376.1467603494716059
 20
276.0965502415295987
  0
LWPOLYLINE
  5
5E
100
AcDbEntity
  8
Switch Holes
 62
256
370
-1
 48
1.0
  6
BYLAYER
100
AcDbPolyline
 90
2
 70
0
 10
2395.0862103494714574
 20
273.5715427675295928
 10
2408.9758979274715784
 20
273.5715427675295928
  0
LWPOLYLINE
  5
5F
100
AcDbEntity
  8
Switch Holes
 62
256
370
-1
 48
1.0
  6
BYLAYER
100
AcDbPolyline
 90
2
 70
0
 10
2408.9758979274715784
 20
273.5715427675295928
 10
2408.9758979274715784
 20
259.6818551895295855
  0
LWPOLYLINE
  5
60
100
AcDbEntity
  8
Switch Holes
 62
256
370
-1
 48
1.0
  6
BYLAYER
100
AcDbPolyline
 90
2
 70
0
 10
2408.9758979274715784
 20
259.6818551895295855
 10
2395.0862103494714574
 20
259.6818551895295855
  0
LWPOLYLINE
  5
61
100
AcDbEntity
  8
Switch Holes
 62
256
370
-1
 48
1.0
  6
BYLAYER
100
AcDbPolyline
 90
2
 70
0
 10
2395.0862103494714574
 20
259.6818551895295855
 10
2395.0862103494714574
 20
273.5715427675295928
  0
LWPOLYLINE
  5
62
100
AcDbEntity
  8
Switch Holes
 62
256
370
-1
 48
1.0
  6
BYLAYER
100
AcDbPolyline
 90
2
 70
0
 10
2414.0256603494717638
 20
271.677850293529616
 10
2427.91534792747143
 20
271.677850293529616
  0
LWPOLYLINE
  5
63
100
AcDbEntity
  8
Switch Holes
 62
256
370
-1
 48
1.0
  6
BYLAYER
100
AcDbPolyline
 90
2
 70
0
 10
2427.91534792747143
 20
271.677850293529616
 10
2427.91534792747143
 20
257.7886677675296028
  0
LWPOLYLINE
  5
64
100
AcDbEntity
  8
Switch Holes
 62
256
370
-1
 48
1.0
  6
BYLAYER
100
AcDbPolyline
 90
2
 70
0
 10
2427.91534792747143
 20
257.7886677675296028
 10
2414.0256603494717638
 20
257.7886677675296028
  0
LWPOLYLINE
  5
65
100
AcDbEntity
  8
Switch Holes
 62
256
370
-1
 48
1.0
  6
BYLAYER
100
AcDbPolyline
 90
2
 70
0
 10
2414.0256603494717638
 20
257.7886677675296028
 10
2414.0256603494717638
 20
271.677850293529616
  0
LWPOLYLINE
  5
66
100
AcDbEntity
  8
Switch Holes
 62
256
370
-1
 48
1.0
  6
BYLAYER
100
AcDbPolyline
 90
2
 70
0
 10
2338.2681128754711608
 20
250.2121301895296028
 10
2352.157547927471569
 20
250.2121301895296028
  0
LWPOLYLINE
  5
67
100
AcDbEntity
  8
Switch Holes
 62
256
370
-1
 48
1.0
  6
BYLAYER
100
AcDbPolyline
 90
2
 70
0
 10
2352.157547927471569
 20
250.2121301895296028
 10
2352.157547927471569
 20
236.3242102935295748
  0
LWPOLYLINE
  5
68
100
AcDbEntity
  8
Switch Holes
 62
256
370
-1
 48
1.0
  6
BYLAYER
100
AcDbPolyline
 90
2
 70
0
 10
2352.157547927471569
 20
236.3242102935295748
 10
2338.2681128754711608
 20
236.3242102935295748
  0
LWPOLYLINE
  5
69
100
AcDbEntity
  8
Switch Holes
 62
256
370
-1
 48
1.0
  6
BYLAYER
100
AcDbPolyline
 90
2
 70
0
 10
2338.2681128754711608
 20
236.3242102935295748
 10
2338.2681128754711608
 20
250.2121301895296028
  0
LWPOLYLINE
  5
6A
100
AcDbEntity
  8
Switch Holes
 62
256
370
-1
 48
1.0
  6
BYLAYER
100
AcDbPolyline
 90
2
 70
0
 10
2357.2073103494717543
 20
254.6320927675295707
 10
2371.0969979274714206
 20
254.6320927675295707
  0
LWPOLYLINE
  5
6B
100
AcDbEntity
  8
Switch Holes
 62
256
370
-1
 48
1.0
  6
BYLAYER
100
AcDbPolyline
 90
2
 70
0
 10
2371.0969979274714206
 20
254.6320927675295707
 10
2371.0969979274714206
 20
240.7424051895295634
  0
LWPOLYLINE
  5
6C
100
AcDbEntity
  8
Switch Holes
 62
256
370
-1
 48
1.0
  6
BYLAYER
100
AcDbPolyline
 90
2
 70
0
 10
2371.0969979274714206
 20
240.7424051895295634
 10
2357.2073103494717543
 20
240.7424051895295634
  0
LWPOLYLINE
  5
6D
100
AcDbEntity
  8
Switch Holes
 62
256
370
-1
 48
1.0
  6
BYLAYER
100
AcDbPolyline
 90
2
 70
0
 10
2357.2073103494717543
 20
240.7424051895295634
 10
2357.2073103494717543
 20
254.6320927675295707
  0
LWPOLYLINE
  5
6E
100
AcDbEntity
  8
Switch Holes
 62
256
370
-1
 48
1.0
  6
BYLAYER
100
AcDbPolyline
 90
2
 70
0
 10
2376.1467603494716059
 20
257.1571002415295766
 10
2390.0364479274712721
 20
257.1571002415295766
  0
LWPOLYLINE
  5
6F
100
AcDbEntity
  8
Switch Holes
 62
256
370
-1
 48
1.0
  6
BYLAYER
100
AcDbPolyline
 90
2
 70
0
 10
2390.0364479274712721
 20
257.1571002415295766
 10
2390.0364479274712721
 20
243.2686752935296113
  0
LWPOLYLINE
  5
70
100
AcDbEntity
  8
Switch Holes
 62
256
370
-1
 48
1.0
  6
BYLAYER
100
AcDbPolyline
 90
2
 70
0
 10
2390.0364479274712721
 20
243.2686752935296113
 10
2376.1467603494716059
 20
243.2686752935296113
  0
LWPOLYLINE
  5
71
100
AcDbEntity
  8
Switch Holes
 62
256
370
-1
 48
1.0
  6
BYLAYER
100
AcDbPolyline
 90
2
 70
0
 10
2376.1467603494716059
 20
243.2686752935296113
 10
2376.1467603494716059
 20
257.1571002415295766
  0
LWPOLYLINE
  5
72
100
AcDbEntity
  8
Switch Holes
 62
256
370
-1
 48
1.0
  6
BYLAYER
100
AcDbPolyline
 90
2
 70
0
 10
2395.0862103494714574
 20
254.6320927675295707
 10
2408.9758979274715784
 20
254.6320927675295707
  0
LWPOLYLINE
  5
73
100
AcDbEntity
  8
Switch Holes
 62
256
370
-1
 48
1.0
  6
BYLAYER
100
AcDbPolyline
 90
2
 70
0
 10
2408.9758979274715784
 20
254.6320927675295707
 10
2408.9758979274715784
 20
240.7424051895295634
  0
LWPOLYLINE
  5
74
100
AcDbEntity
  8
Switch Holes
 62
256
370
-1
 48
1.0
  6
BYLAYER
100
AcDbPolyline
 90
2
 70
0
 10
2408.9758979274715784
 20
240.7424051895295634
 10
2395.0862103494714574
 20
240.7424051895295634
  0
LWPOLYLINE
  5
75
100
AcDbEntity
  8
Switch Holes
 62
256
370
-1
 48
1.0
  6
BYLAYER
100
AcDbPolyline
 90
2
 70
0
 10
2395.0862103494714574
 20
240.7424051895295634
 10
2395.0862103494714574
 20
254.6320927675295707
  0
LWPOLYLINE
  5
76
100
AcDbEntity
  8
Switch Holes
 62
256
370
-1
 48
1.0
  6
BYLAYER
100
AcDbPolyline
 90
2
 70
0
 10
2414.0256603494717638
 20
252.7384002935295939
 10
2427.91534792747143
 20
252.7384002935295939
  0
LWPOLYLINE
  5
77
100
AcDbEntity
  8
Switch Holes
 62
256
370
-1
 48
1.0
  6
BYLAYER
100
AcDbPolyline
 90
2
 70
0
 10
2427.91534792747143
 20
252.7384002935295939
 10
2427.91534792747143
 20
238.8492177675295807
  0
LWPOLYLINE
  5
78
100
AcDbEntity
  8
Switch Holes
 62
256
370
-1
 48
1.0
  6
BYLAYER
100
AcDbPolyline
 90
2
 70
0
 10
2427.91534792747143
 20
238.8492177675295807
 10
2414.0256603494717638
 20
238.8492177675295807
  0
LWPOLYLINE
  5
79
100
AcDbEntity
  8
Switch Holes
 62
256
370
-1
 48
1.0
  6
BYLAYER
100
AcDbPolyline
 90
2
 70
0
 10
2414.0256603494717638
 20
238.8492177675295807
 10
2414.0256603494717638
 20
252.7384002935295939
  0
LWPOLYLINE
  5
7A
100
AcDbEntity
  8
Switch Holes
 62
256
370
-1
 48
1.0
  6
BYLAYER
100
AcDbPolyline
 90
2
 70
0
 10
2441.1555386334712239
 20
230.0287371135295871
 10
2453.1830994874717362
 20
223.0842721135295506
  0
LWPOLYLINE
  5
7B
100
AcDbEntity
  8
Switch Holes
 62
256
370
-1
 48
1.0
  6
BYLAYER
100
AcDbPolyline
 90
2
 70
0
 10
2453.1830994874717362
 20
223.0842721135295506
 10
2446.2381294354718193
 20
211.0567112595295498
  0
LWPOLYLINE
  5
7C
100
AcDbEntity
  8
Switch Holes
 62
256
370
-1
 48
1.0
  6
BYLAYER
100
AcDbPolyline
 90
2
 70
0
 10
2446.2381294354718193
 20
211.0567112595295498
 10
2434.210568581471307
 20
218.0011762595295863
  0
LWPOLYLINE
  5
7D
100
AcDbEntity
  8
Switch Holes
 62
256
370
-1
 48
1.0
  6
BYLAYER
100
AcDbPolyline
 90
2
 70
0
 10
2434.210568581471307
 20
218.0011762595295863
 10
2441.1555386334712239
 20
230.0287371135295871
  0
LWPOLYLINE
  5
7E
100
AcDbEntity
  8
Switch Holes
 62
256
370
-1
 48
1.0
  6
BYLAYER
100
AcDbPolyline
 90
2
 70
0
 10
2338.2681128754711608
 20
231.2726801895295807
 10
2352.157547927471569
 20
231.2726801895295807
  0
LWPOLYLINE
  5
7F
100
AcDbEntity
  8
Switch Holes
 62
256
370
-1
 48
1.0
  6
BYLAYER
100
AcDbPolyline
 90
2
 70
0
 10
2352.157547927471569
 20
231.2726801895295807
 10
2352.157547927471569
 20
217.3847602935295527
  0
LWPOLYLINE
  5
80
100
AcDbEntity
  8
Switch Holes
 62
256
370
-1
 48
1.0
  6
BYLAYER
100
AcDbPolyline
 90
2
 70
0
 10
2352.157547927471569
 20
217.3847602935295527
 10
2338.2681128754711608
 20
217.3847602935295527
  0
LWPOLYLINE
  5
81
100
AcDbEntity
  8
Switch Holes
 62
256
370
-1
 48
1.0
  6
BYLAYER
100
AcDbPolyline
 90
2
 70
0
 10
2338.2681128754711608
 20
217.3847602935295527
 10
2338.2681128754711608
 20
231.2726801895295807
  0
LWPOLYLINE
  5
82
100
AcDbEntity
  8
Switch Holes
 62
256
370
-1
 48
1.0
  6
BYLAYER
100
AcDbPolyline
 90
2
 70
0
 10
2357.2073103494717543
 20
235.6926427675296054
 10
2371.0969979274714206
 20
235.6926427675296054
  0
LWPOLYLINE
  5
83
100
AcDbEntity
  8
Switch Holes
 62
256
370
-1
 48
1.0
  6
BYLAYER
100
AcDbPolyline
 90
2
 70
0
 10
2371.0969979274714206
 20
235.6926427675296054
 10
2371.0969979274714206
 20
221.8029551895295981
  0
LWPOLYLINE
  5
84
100
AcDbEntity
  8
Switch Holes
 62
256
370
-1
 48
1.0
  6
BYLAYER
100
AcDbPolyline
 90
2
 70
0
 10
2371.0969979274714206
 20
221.8029551895295981
 10
2357.2073103494717543
 20
221.8029551895295981
  0
LWPOLYLINE
  5
85
100
AcDbEntity
  8
Switch Holes
 62
256
370
-1
 48
1.0
  6
BYLAYER
100
AcDbPolyline
 90
2
 70
0
 10
2357.2073103494717543
 20
221.8029551895295981
 10
2357.2073103494717543
 20
235.6926427675296054
  0
LWPOLYLINE
  5
86
100
AcDbEntity
  8
Switch Holes
 62
256
370
-1
 48
1.0
  6
BYLAYER
100
AcDbPolyline
 90
2
 70
0
 10
2376.1467603494716059
 20
238.2176502415295545
 10
2390.0364479274712721
 20
238.2176502415295545
  0
LWPOLYLINE
  5
87
100
AcDbEntity
  8
Switch Holes
 62
256
370
-1
 48
1.0
  6
BYLAYER
100
AcDbPolyline
 90
2
 70
0
 10
2390.0364479274712721
 20
238.2176502415295545
 10
2390.0364479274712721
 20
224.3292252935295892
  0
LWPOLYLINE
  5
88
100
AcDbEntity
  8
Switch Holes
 62
256
370
-1
 48
1.0
  6
BYLAYER
100
AcDbPolyline
 90
2
 70
0
 10
2390.0364479274712721
 20
224.3292252935295892
 10
2376.1467603494716059
 20
224.3292252935295892
  0
LWPOLYLINE
  5
89
100
AcDbEntity
  8
Switch Holes
 62
256
370
-1
 48
1.0
  6
BYLAYER
100
AcDbPolyline
 90
2
 70
0
 10
2376.1467603494716059
 20
224.3292252935295892
 10
2376.1467603494716059
 20
238.2176502415295545
  0
LWPOLYLINE
  5
8A
100
AcDbEntity
  8
Switch Holes
 62
256
370
-1
 48
1.0
  6
BYLAYER
100
AcDbPolyline
 90
2
 70
0
 10
2395.0862103494714574
 20
235.6926427675296054
 10
2408.9758979274715784
 20
235.6926427675296054
  0
LWPOLYLINE
  5
8B
100
AcDbEntity
  8
Switch Holes
 62
256
370
-1
 48
1.0
  6
BYLAYER
100
AcDbPolyline
 90
2
 70
0
 10
2408.9758979274715784
 20
235.6926427675296054
 10
2408.9758979274715784
 20
221.8029551895295981
  0
LWPOLYLINE
  5
8C
100
AcDbEntity
  8
Switch Holes
 62
256
370
-1
 48
1.0
  6
BYLAYER
100
AcDbPolyline
 90
2
 70
0
 10
2408.9758979274715784
 20
221.8029551895295981
 10
2395.0862103494714574
 20
221.8029551895295981
  0
LWPOLYLINE
  5
8D
100
AcDbEntity
  8
Switch Holes
 62
256
370
-1
 48
1.0
  6
BYLAYER
100
AcDbPolyline
 90
2
 70
0
 10
2395.0862103494714574
 20
221.8029551895295981
 10
2395.0862103494714574
 20
235.6926427675296054
  0
LWPOLYLINE
  5
8E
100
AcDbEntity
  8
Switch Holes
 62
256
370
-1
 48
1.0
  6
BYLAYER
100
AcDbPolyline
 90
2
 70
0
 10
2414.0256603494717638
 20
233.7989502935295718
 10
2427.91534792747143
 20
233.7989502935295718
  0
LWPOLYLINE
  5
8F
100
AcDbEntity
  8
Switch Holes
 62
256
370
-1
 48
1.0
  6
BYLAYER
100
AcDbPolyline
 90
2
 70
0
 10
2427.91534792747143
 20
233.7989502935295718
 10
2427.91534792747143
 20
219.9097677675295586
  0
LWPOLYLINE
  5
90
100
AcDbEntity
  8
Switch Holes
 62
256
370
-1
 48
1.0
  6
BYLAYER
100
AcDbPolyline
 90
2
 70
0
 10
2427.91534792747143
 20
219.9097677675295586
 10
2414.0256603494717638
 20
219.9097677675295586
  0
LWPOLYLINE
  5
91
100
AcDbEntity
  8
Switch Holes
 62
256
370
-1
 48
1.0
  6
BYLAYER
100
AcDbPolyline
 90
2
 70
0
 10
2414.0256603494717638
 20
219.9097677675295586
 10
2414.0256603494717638
 20
233.7989502935295718
  0
LWPOLYLINE
  5
92
100
AcDbEntity
  8
Switch Holes
 62
256
370
-1
 48
1.0
  6
BYLAYER
100
AcDbPolyline
 90
2
 70
0
 10
2319.3285871176713044
 20
212.3332301895296155
 10
2333.2180979274712627
 20
212.3332301895296155
  0
LWPOLYLINE
  5
93
100
AcDbEntity
  8
Switch Holes
 62
256
370
-1
 48
1.0
  6
BYLAYER
100
AcDbPolyline
 90
2
 70
0
 10
2333.2180979274712627
 20
212.3332301895296155
 10
2333.2180979274712627
 20
198.4453102935295874
  0
LWPOLYLINE
  5
94
100
AcDbEntity
  8
Switch Holes
 62
256
370
-1
 48
1.0
  6
BYLAYER
100
AcDbPolyline
 90
2
 70
0
 10
2333.2180979274712627
 20
198.4453102935295874
 10
2319.3285871176713044
 20
198.4453102935295874
  0
LWPOLYLINE
  5
95
100
AcDbEntity
  8
Switch Holes
 62
256
370
-1
 48
1.0
  6
BYLAYER
100
AcDbPolyline
 90
2
 70
0
 10
2319.3285871176713044
 20
198.4453102935295874
 10
2319.3285871176713044
 20
212.3332301895296155
  0
LWPOLYLINE
  5
96
100
AcDbEntity
  8
Switch Holes
 62
256
370
-1
 48
1.0
  6
BYLAYER
100
AcDbPolyline
 90
2
 70
0
 10
2338.2681128754711608
 20
212.3332301895296155
 10
2352.157547927471569
 20
212.3332301895296155
  0
LWPOLYLINE
  5
97
100
AcDbEntity
  8
Switch Holes
 62
256
370
-1
 48
1.0
  6
BYLAYER
100
AcDbPolyline
 90
2
 70
0
 10
2352.157547927471569
 20
212.3332301895296155
 10
2352.157547927471569
 20
198.4453102935295874
  0
LWPOLYLINE
  5
98
100
AcDbEntity
  8
Switch Holes
 62
256
370
-1
 48
1.0
  6
BYLAYER
100
AcDbPolyline
 90
2
 70
0
 10
2352.157547927471569
 20
198.4453102935295874
 10
2338.2681128754711608
 20
198.4453102935295874
  0
LWPOLYLINE
  5
99
100
AcDbEntity
  8
Switch Holes
 62
256
370
-1
 48
1.0
  6
BYLAYER
100
AcDbPolyline
 90
2
 70
0
 10
2338.2681128754711608
 20
198.4453102935295874
 10
2338.2681128754711608
 20
212.3332301895296155
  0
LWPOLYLINE
  5
9A
100
AcDbEntity
  8
Switch Holes
 62
256
370
-1
 48
1.0
  6
BYLAYER
100
AcDbPolyline
 90
2
 70
0
 10
2357.2073103494717543
 20
216.7531927675295833
 10
2371.0969979274714206
 20
216.7531927675295833
  0
LWPOLYLINE
  5
9B
100
AcDbEntity
  8
Switch Holes
 62
256
370
-1
 48
1.0
  6
BYLAYER
100
AcDbPolyline
 90
2
 70
0
 10
2371.0969979274714206
 20
216.7531927675295833
 10
2371.0969979274714206
 20
202.863505189529576
  0
LWPOLYLINE
  5
9C
100
AcDbEntity
  8
Switch Holes
 62
256
370
-1
 48
1.0
  6
BYLAYER
100
AcDbPolyline
 90
2
 70
0
 10
2371.0969979274714206
 20
202.863505189529576
 10
2357.2073103494717543
 20
202.863505189529576
  0
LWPOLYLINE
  5
9D
100
AcDbEntity
  8
Switch Holes
 62
256
370
-1
 48
1.0
  6
BYLAYER
100
AcDbPolyline
 90
2
 70
0
 10
2357.2073103494717543
 20
202.863505189529576
 10
2357.2073103494717543
 20
216.7531927675295833
  0
LWPOLYLINE
  5
9E
100
AcDbEntity
  8
Switch Holes
 62
256
370
-1
 48
1.0
  6
BYLAYER
100
AcDbPolyline
 90
2
 70
0
 10
2376.1467603494716059
 20
219.2782002415295892
 10
2390.0364479274712721
 20
219.2782002415295892
  0
LWPOLYLINE
  5
9F
100
AcDbEntity
  8
Switch Holes
 62
256
370
-1
 48
1.0
  6
BYLAYER
100
AcDbPolyline
 90
2
 70
0
 10
2390.0364479274712721
 20
219.2782002415295892
 10
2390.0364479274712721
 20
205.3900278195295641
  0
LWPOLYLINE
  5
A0
100
AcDbEntity
  8
Switch Holes
 62
256
370
-1
 48
1.0
  6
BYLAYER
100
AcDbPolyline
 90
2
 70
0
 10
2390.0364479274712721
 20
205.3900278195295641
 10
2376.1467603494716059
 20
205.3900278195295641
  0
LWPOLYLINE
  5
A1
100
AcDbEntity
  8
Switch Holes
 62
256
370
-1
 48
1.0
  6
BYLAYER
100
AcDbPolyline
 90
2
 70
0
 10
2376.1467603494716059
 20
205.3900278195295641
 10
2376.1467603494716059
 20
219.2782002415295892
  0
LWPOLYLINE
  5
A2
100
AcDbEntity
  8
Switch Holes
 62
256
370
-1
 48
1.0
  6
BYLAYER
100
AcDbPolyline
 90
2
 70
0
 10
2316.8036301488714344
 20
288.0910301895295902
 10
2330.6931157060716941
 20
288.0910301895295902
  0
LWPOLYLINE
  5
A3
100
AcDbEntity
  8
Switch Holes
 62
256
370
-1
 48
1.0
  6
BYLAYER
100
AcDbPolyline
 90
2
 70
0
 10
2330.6931157060716941
 20
288.0910301895295902
 10
2330.6931157060716941
 20
274.203110293529619
  0
LWPOLYLINE
  5
A4
100
AcDbEntity
  8
Switch Holes
 62
256
370
-1
 48
1.0
  6
BYLAYER
100
AcDbPolyline
 90
2
 70
0
 10
2330.6931157060716941
 20
274.203110293529619
 10
2316.8036301488714344
 20
274.203110293529619
  0
LWPOLYLINE
  5
A5
100
AcDbEntity
  8
Switch Holes
 62
256
370
-1
 48
1.0
  6
BYLAYER
100
AcDbPolyline
 90
2
 70
0
 10
2316.8036301488714344
 20
274.203110293529619
 10
2316.8036301488714344
 20
288.0910301895295902
  0
LWPOLYLINE
  5
A6
100
AcDbEntity
  8
Switch Holes
 62
256
370
-1
 48
1.0
  6
BYLAYER
100
AcDbPolyline
 90
2
 70
0
 10
2316.8036301488714344
 20
269.1515801895296249
 10
2330.6931157060716941
 20
269.1515801895296249
  0
LWPOLYLINE
  5
A7
100
AcDbEntity
  8
Switch Holes
 62
256
370
-1
 48
1.0
  6
BYLAYER
100
AcDbPolyline
 90
2
 70
0
 10
2330.6931157060716941
 20
269.1515801895296249
 10
2330.6931157060716941
 20
255.2636602935295969
  0
LWPOLYLINE
  5
A8
100
AcDbEntity
  8
Switch Holes
 62
256
370
-1
 48
1.0
  6
BYLAYER
100
AcDbPolyline
 90
2
 70
0
 10
2330.6931157060716941
 20
255.2636602935295969
 10
2316.8036301488714344
 20
255.2636602935295969
  0
LWPOLYLINE
  5
A9
100
AcDbEntity
  8
Switch Holes
 62
256
370
-1
 48
1.0
  6
BYLAYER
100
AcDbPolyline
 90
2
 70
0
 10
2316.8036301488714344
 20
255.2636602935295969
 10
2316.8036301488714344
 20
269.1515801895296249
  0
LWPOLYLINE
  5
AA
100
AcDbEntity
  8
Switch Holes
 62
256
370
-1
 48
1.0
  6
BYLAYER
100
AcDbPolyline
 90
2
 70
0
 10
2316.8036301488714344
 20
250.2121301895296028
 10
2330.6931157060716941
 20
250.2121301895296028
  0
LWPOLYLINE
  5
AB
100
AcDbEntity
  8
Switch Holes
 62
256
370
-1
 48
1.0
  6
BYLAYER
100
AcDbPolyline
 90
2
 70
0
 10
2330.6931157060716941
 20
250.2121301895296028
 10
2330.6931157060716941
 20
236.3242102935295748
  0
LWPOLYLINE
  5
AC
100
AcDbEntity
  8
Switch Holes
 62
256
370
-1
 48
1.0
  6
BYLAYER
100
AcDbPolyline
 90
2
 70
0
 10
2330.6931157060716941
 20
236.3242102935295748
 10
2316.8036301488714344
 20
236.3242102935295748
  0
LWPOLYLINE
  5
AD
100
AcDbEntity
  8
Switch Holes
 62
256
370
-1
 48
1.0
  6
BYLAYER
100
AcDbPolyline
 90
2
 70
0
 10
2316.8036301488714344
 20
236.3242102935295748
 10
2316.8036301488714344
 20
250.2121301895296028
  0
LWPOLYLINE
  5
AE
100
AcDbEntity
  8
Switch Holes
 62
256
370
-1
 48
1.0
  6
BYLAYER
100
AcDbPolyline
 90
2
 70
0
 10
2316.8036301488714344
 20
231.2726801895295807
 10
2330.6931157060716941
 20
231.2726801895295807
  0
LWPOLYLINE
  5
AF
100
AcDbEntity
  8
Switch Holes
 62
256
370
-1
 48
1.0
  6
BYLAYER
100
AcDbPolyline
 90
2
 70
0
 10
2330.6931157060716941
 20
231.2726801895295807
 10
2330.6931157060716941
 20
217.3847602935295527
  0
LWPOLYLINE
  5
B0
100
AcDbEntity
  8
Switch Holes
 62
256
370
-1
 48
1.0
  6
BYLAYER
100
AcDbPolyline
 90
2
 70
0
 10
2330.6931157060716941
 20
217.3847602935295527
 10
2316.8036301488714344
 20
217.3847602935295527
  0
LWPOLYLINE
  5
B1
100
AcDbEntity
  8
Switch Holes
 62
256
370
-1
 48
1.0
  6
BYLAYER
100
AcDbPolyline
 90
2
 70
0
 10
2316.8036301488714344
 20
217.3847602935295527
 10
2316.8036301488714344
 20
231.2726801895295807
  0
LWPOLYLINE
  5
B2
100
AcDbEntity
  8
Switch Holes
 62
256
370
-1
 48
1.0
  6
BYLAYER
100
AcDbPolyline
 90
2
 70
0
 10
2403.4326997014713925
 20
215.156975921529579
 10
2416.849406081471443
 20
211.5632784155295667
  0
LWPOLYLINE
  5
B3
100
AcDbEntity
  8
Switch Holes
 62
256
370
-1
 48
1.0
  6
BYLAYER
100
AcDbPolyline
 90
2
 70
0
 10
2416.849406081471443
 20
211.5632784155295667
 10
2413.2531833154716878
 20
198.1465467829295903
  0
LWPOLYLINE
  5
B4
100
AcDbEntity
  8
Switch Holes
 62
256
370
-1
 48
1.0
  6
BYLAYER
100
AcDbPolyline
 90
2
 70
0
 10
2413.2531833154716878
 20
198.1465467829295903
 10
2399.8390021954714939
 20
201.7427948015295556
  0
LWPOLYLINE
  5
B5
100
AcDbEntity
  8
Switch Holes
 62
256
370
-1
 48
1.0
  6
BYLAYER
100
AcDbPolyline
 90
2
 70
0
 10
2399.8390021954714939
 20
201.7427948015295556
 10
2403.4326997014713925
 20
215.156975921529579
  0
LWPOLYLINE
  5
B6
100
AcDbEntity
  8
Switch Holes
 62
256
370
-1
 48
1.0
  6
BYLAYER
100
AcDbPolyline
 90
2
 70
0
 10
2457.5684660034717126
 20
220.5590121135296044
 10
2469.596279383471483
 20
213.6145471135295679
  0
LWPOLYLINE
  5
B7
100
AcDbEntity
  8
Switch Holes
 62
256
370
-1
 48
1.0
  6
BYLAYER
100
AcDbPolyline
 90
2
 70
0
 10
2469.596279383471483
 20
213.6145471135295679
 10
2462.652824487471662
 20
201.5867337335295701
  0
LWPOLYLINE
  5
B8
100
AcDbEntity
  8
Switch Holes
 62
256
370
-1
 48
1.0
  6
BYLAYER
100
AcDbPolyline
 90
2
 70
0
 10
2462.652824487471662
 20
201.5867337335295701
 10
2450.6237484774715085
 20
208.5314512595295469
  0
LWPOLYLINE
  5
B9
100
AcDbEntity
  8
Switch Holes
 62
256
370
-1
 48
1.0
  6
BYLAYER
100
AcDbPolyline
 90
2
 70
0
 10
2450.6237484774715085
 20
208.5314512595295469
 10
2457.5684660034717126
 20
220.5590121135296044
  0
LWPOLYLINE
  5
BA
100
AcDbEntity
  8
Switch Holes
 62
256
370
-1
 48
1.0
  6
BYLAYER
100
AcDbPolyline
 90
2
 70
0
 10
2441.1871043834712509
 20
202.2511296395296085
 10
2434.2436494874714299
 20
190.2222556503296005
  0
LWPOLYLINE
  5
BB
100
AcDbEntity
  8
Switch Holes
 62
256
370
-1
 48
1.0
  6
BYLAYER
100
AcDbPolyline
 90
2
 70
0
 10
2434.2436494874714299
 20
190.2222556503296005
 10
2422.2160886334713723
 20
197.166973176329634
  0
LWPOLYLINE
  5
BC
100
AcDbEntity
  8
Switch Holes
 62
256
370
-1
 48
1.0
  6
BYLAYER
100
AcDbPolyline
 90
2
 70
0
 10
2422.2160886334713723
 20
197.166973176329634
 10
2429.1592910034714805
 20
209.1945845355296001
  0
LWPOLYLINE
  5
BD
100
AcDbEntity
  8
Switch Holes
 62
256
370
-1
 48
1.0
  6
BYLAYER
100
AcDbPolyline
 90
2
 70
0
 10
2429.1592910034714805
 20
209.1945845355296001
 10
2441.1871043834712509
 20
202.2511296395296085
  0
LWPOLYLINE
  5
BE
100
AcDbEntity
  8
Switch Holes
 62
256
370
-1
 48
1.0
  6
BYLAYER
100
AcDbPolyline
 90
2
 70
0
 10
2457.6015469094718355
 20
192.7814551447295912
 10
2450.6568293834711767
 20
180.752530650329561
  0
LWPOLYLINE
  5
BF
100
AcDbEntity
  8
Switch Holes
 62
256
370
-1
 48
1.0
  6
BYLAYER
100
AcDbPolyline
 90
2
 70
0
 10
2450.6568293834711767
 20
180.752530650329561
 10
2438.6290160034714063
 20
187.6972481763295946
  0
LWPOLYLINE
  5
C0
100
AcDbEntity
  8
Switch Holes
 62
256
370
-1
 48
1.0
  6
BYLAYER
100
AcDbPolyline
 90
2
 70
0
 10
2438.6290160034714063
 20
187.6972481763295946
 10
2445.5739860554713232
 20
199.7248595355295606
  0
LWPOLYLINE
  5
C1
100
AcDbEntity
  8
Switch Holes
 62
256
370
-1
 48
1.0
  6
BYLAYER
100
AcDbPolyline
 90
2
 70
0
 10
2445.5739860554713232
 20
199.7248595355295606
 10
2457.6015469094718355
 20
192.7814551447295912
  0
LWPOLYLINE
  5
C2
100
AcDbEntity
  8
Switch Holes
 62
256
370
-1
 48
1.0
  6
BYLAYER
100
AcDbPolyline
 90
2
 70
0
 10
2446.8547979274712816
 20
257.1571002415295766
 10
2446.8547979274712816
 20
243.2686752935296113
  0
LWPOLYLINE
  5
C3
100
AcDbEntity
  8
Switch Holes
 62
256
370
-1
 48
1.0
  6
BYLAYER
100
AcDbPolyline
 90
2
 70
0
 10
2446.8547979274712816
 20
243.2686752935296113
 10
2432.9651103494716153
 20
243.2686752935296113
  0
LWPOLYLINE
  5
C4
100
AcDbEntity
  8
Switch Holes
 62
256
370
-1
 48
1.0
  6
BYLAYER
100
AcDbPolyline
 90
2
 70
0
 10
2432.9651103494716153
 20
243.2686752935296113
 10
2432.9651103494716153
 20
257.1571002415295766
  0
LWPOLYLINE
  5
C5
100
AcDbEntity
  8
Switch Holes
 62
256
370
-1
 48
1.0
  6
BYLAYER
100
AcDbPolyline
 90
2
 70
0
 10
2432.9651103494716153
 20
257.1571002415295766
 10
2446.8547979274712816
 20
257.1571002415295766
  0
LWPOLYLINE
  5
C6
100
AcDbEntity
  8
0
 62
256
370
-1
 48
1.0
  6
BYLAYER
100
AcDbPolyline
 90
2
 70
0
 10
2444.3285278234716316
 20
298.9501532415295628
 10
2316.9296658754715281
 20
298.9501532415295628
  0
LWPOLYLINE
  5
C7
100
AcDbEntity
  8
0
 62
256
370
-1
 48
1.0
  6
BYLAYER
100
AcDbPolyline
 90
2
 70
0
 10
2449.379805401471458
 20
293.900138293529551
 10
2449.379805401471458
 20
283.798845767529599
  0
LWPOLYLINE
  5
C8
100
AcDbEntity
  8
0
 62
256
370
-1
 48
1.0
  6
BYLAYER
100
AcDbPolyline
 90
2
 70
0
 10
2311.8796898164755476
 20
293.900138293529551
 10
2311.8796898164755476
 20
290.6173002935295813
  0
LWPOLYLINE
  5
C9
100
AcDbEntity
  8
0
 62
256
370
-1
 48
1.0
  6
BYLAYER
100
AcDbPolyline
 90
2
 70
0
 10
2311.8796898164755476
 20
293.900138293529551
 10
2316.9296658754715281
 20
298.9501532415295628
  0
LWPOLYLINE
  5
CA
100
AcDbEntity
  8
0
 62
256
370
-1
 48
1.0
  6
BYLAYER
100
AcDbPolyline
 90
2
 70
0
 10
2449.379805401471458
 20
293.900138293529551
 10
2444.3285278234716316
 20
298.9501532415295628
  0
LWPOLYLINE
  5
CB
100
AcDbEntity
  8
0
 62
256
370
-1
 48
1.0
  6
BYLAYER
100
AcDbPolyline
 90
2
 70
0
 10
2386.1222949274715575
 20
202.7374947155295786
 10
2376.0210024014713781
 20
202.7374947155295786
  0
LWPOLYLINE
  5
CC
100
AcDbEntity
  8
0
 62
256
370
-1
 48
1.0
  6
BYLAYER
100
AcDbPolyline
 90
2
 70
0
 10
2449.379805401471458
 20
228.2438833455295821
 10
2473.1172494014713266
 20
214.6064692415295667
  0
LWPOLYLINE
  5
CD
100
AcDbEntity
  8
0
 62
256
370
-1
 48
1.0
  6
BYLAYER
100
AcDbPolyline
 90
2
 70
0
 10
2449.379805401471458
 20
283.798845767529599
 10
2449.379805401471458
 20
228.2438833455295821
  0
LWPOLYLINE
  5
CE
100
AcDbEntity
  8
0
 62
256
370
-1
 48
1.0
  6
BYLAYER
100
AcDbPolyline
 90
2
 70
0
 10
2449.2537949274715174
 20
173.1926272124755997
 10
2473.1172494014713266
 20
214.6064692415295667
  0
LWPOLYLINE
  5
CF
100
AcDbEntity
  8
0
 62
256
370
-1
 48
1.0
  6
BYLAYER
100
AcDbPolyline
 90
2
 70
0
 10
2449.126269297471481
 20
173.1926272124755997
 10
2449.2537949274715174
 20
173.1926272124755997
  0
LWPOLYLINE
  5
D0
100
AcDbEntity
  8
0
 62
256
370
-1
 48
1.0
  6
BYLAYER
100
AcDbPolyline
 90
2
 70
0
 10
2407.9647838234714072
 20
196.9299775253295479
 10
2386.1222949274715575
 20
202.7374947155295786
  0
LWPOLYLINE
  5
D1
100
AcDbEntity
  8
0
 62
256
370
-1
 48
1.0
  6
BYLAYER
100
AcDbPolyline
 90
2
 70
0
 10
2449.126269297471481
 20
173.1926272124755997
 10
2407.9647838234714072
 20
196.9299775253295479
  0
LWPOLYLINE
  5
D2
100
AcDbEntity
  8
0
 62
256
370
-1
 48
1.0
  6
BYLAYER
100
AcDbPolyline
 90
2
 70
0
 10
2373.4959949274712017
 20
200.2124872415295727
 10
2376.0210024014713781
 20
202.7374947155295786
  0
LWPOLYLINE
  5
D3
100
AcDbEntity
  8
0
 62
256
370
-1
 48
1.0
  6
BYLAYER
100
AcDbPolyline
 90
2
 70
0
 10
2358.8487293494713413
 20
200.2124872415295727
 10
2373.4959949274712017
 20
200.2124872415295727
  0
LWPOLYLINE
  5
D4
100
AcDbEntity
  8
0
 62
256
370
-1
 48
1.0
  6
BYLAYER
100
AcDbPolyline
 90
2
 70
0
 10
2354.5565449274713501
 20
195.9202270617295767
 10
2358.8487293494713413
 20
200.2124872415295727
  0
LWPOLYLINE
  5
D5
100
AcDbEntity
  8
0
 62
256
370
-1
 48
1.0
  6
BYLAYER
100
AcDbPolyline
 90
2
 70
0
 10
2316.6775691696716422
 20
195.9202270617295767
 10
2354.5565449274713501
 20
195.9202270617295767
  0
LWPOLYLINE
  5
D6
100
AcDbEntity
  8
0
 62
256
370
-1
 48
1.0
  6
BYLAYER
100
AcDbPolyline
 90
2
 70
0
 10
2316.6775691696716422
 20
210.0620113455295837
 10
2316.6775691696716422
 20
195.9202270617295767
  0
LWPOLYLINE
  5
D7
100
AcDbEntity
  8
0
 62
256
370
-1
 48
1.0
  6
BYLAYER
100
AcDbPolyline
 90
2
 70
0
 10
2311.8796898164755476
 20
214.8595002935296066
 10
2316.6775691696716422
 20
210.0620113455295837
  0
LWPOLYLINE
  5
D8
100
AcDbEntity
  8
0
 62
256
370
-1
 48
1.0
  6
BYLAYER
100
AcDbPolyline
 90
2
 70
0
 10
2311.8796898164755476
 20
290.6173002935295813
 10
2311.8796898164755476
 20
214.8595002935296066
  0
LINE
  5
D9
100
AcDbEntity
  8
Switch Holes
 62
256
370
-1
 48
1.0
  6
BYLAYER
100
AcDbLine
 10
2316.8036301488714344
 20
274.203110293529619
 30
0.0
 11
2330.6931157060721489
 21
288.0910301895295902
 31
0.0
  0
LINE
  5
DA
100
AcDbEntity
  8
Switch Holes
 62
256
370
-1
 48
1.0
  6
BYLAYER
100
AcDbLine
 10
2316.8036301488718891
 20
255.2636602935295969
 30
0.0
 11
2330.6931157060716941
 21
269.1515801895296249
 31
0.0
  0
LINE
  5
DB
100
AcDbEntity
  8
Switch Holes
 62
256
370
-1
 48
1.0
  6
BYLAYER
100
AcDbLine
 10
2311.8796898164750928
 20
214.8595002935294644
 30
0.0
 11
2311.8796898164750928
 21
196.0
 31
0.0
  0
LINE
  5
DC
100
AcDbEntity
  8
Switch Holes
 62
256
370
-1
 48
1.0
  6
BYLAYER
100
AcDbLine
 10
2319.3285871176713044
 20
198.4453102935296158
 30
0.0
 11
2333.2180979274712627
 21
212.3332301895296155
 31
0.0
  0
LINE
  5
DD
100
AcDbEntity
  8
Switch Holes
 62
256
370
-1
 48
1.0
  6
BYLAYER
100
AcDbLine
 10
2338.2681128754711608
 20
274.203110293529619
 30
0.0
 11
2352.157547927471569
 21
288.0910301895295902
 31
0.0
  0
LINE
  5
DE
100
AcDbEntity
  8
Switch Holes
 62
256
370
-1
 48
1.0
  6
BYLAYER
100
AcDbLine
 10
2357.2073103494717543
 20
278.6213051895296076
 30
0.0
 11
2371.0969979274714206
 21
292.5109927675296149
 31
0.0
  0
LINE
  5
DF
100
AcDbEntity
  8
Switch Holes
 62
256
370
-1
 48
1.0
  6
BYLAYER
100
AcDbLine
 10
2357.2073103494717543
 20
259.6818551895295855
 30
0.0
 11
2371.0969979274714206
 21
273.5715427675295928
 31
0.0
  0
LINE
  5
E0
100
AcDbEntity
  8
Switch Holes
 62
256
370
-1
 48
1.0
  6
BYLAYER
100
AcDbLine
 10
2376.1467603494716059
 20
281.1475752935295986
 30
0.0
 11
2390.0364479274712721
 21
295.0360002415296208
 31
0.0
  0
LINE
  5
E1
100
AcDbEntity
  8
Switch Holes
 62
256
370
-1
 48
1.0
  6
BYLAYER
100
AcDbLine
 10
2395.0862103494714574
 20
278.6213051895296076
 30
0.0
 11
2408.9758979274720332
 21
292.5109927675296717
 31
0.0
  0
LINE
  5
E2
100
AcDbEntity
  8
Switch Holes
 62
256
370
-1
 48
1.0
  6
BYLAYER
100
AcDbLine
 10
2414.0256603494717638
 20
276.728117767529568
 30
0.0
 11
2427.91534792747143
 21
290.6173002935295813
 31
0.0
  0
LINE
  5
E3
100
AcDbEntity
  8
Switch Holes
 62
256
370
-1
 48
1.0
  6
BYLAYER
100
AcDbLine
 10
2432.9651103494711606
 20
267.2583927675295854
 30
0.0
 11
2446.8547979274708268
 21
281.1475752935295986
 31
0.0
  0
LINE
  5
E4
100
AcDbEntity
  8
Switch Holes
 62
256
370
-1
 48
1.0
  6
BYLAYER
100
AcDbLine
 10
2432.9651103494720701
 20
243.2686752935296113
 30
0.0
 11
2446.8547979274712816
 21
257.1571002415295766
 31
0.0
  0
LINE
  5
E5
100
AcDbEntity
  8
Switch Holes
 62
256
370
-1
 48
1.0
  6
BYLAYER
100
AcDbLine
 10
2399.8390021954714939
 20
201.7427948015295556
 30
0.0
 11
2416.8494060814709883
 21
211.5632784155295099
 31
0.0
  0
LINE
  5
E6
100
AcDbEntity
  8
Switch Holes
 62
256
370
-1
 48
1.0
  6
BYLAYER
100
AcDbLine
 10
2422.2160886334713723
 20
197.166973176329833
 30
0.0
 11
2441.1871043834707962
 21
202.2511296395296938
 31
0.0
  0
LINE
  5
E7
100
AcDbEntity
  8
Switch Holes
 62
256
370
-1
 48
1.0
  6
BYLAYER
100
AcDbLine
 10
2434.2105685814708522
 20
218.0011762595294158
 30
0.0
 11
2453.183099487472191
 21
223.0842721135294653
 31
0.0
  0
LINE
  5
E8
100
AcDbEntity
  8
Switch Holes
 62
256
370
-1
 48
1.0
  6
BYLAYER
100
AcDbLine
 10
2450.6237484774710538
 20
208.53145125952949
 30
0.0
 11
2469.596279383471483
 21
213.6145471135294827
 31
0.0
  0
LINE
  5
E9
100
AcDbEntity
  8
Switch Holes
 62
256
370
-1
 48
1.0
  6
BYLAYER
100
AcDbLine
 10
2438.6290160034714063
 20
187.6972481763294525
 30
0.0
 11
2457.6015469094718355
 21
192.7814551447298186
 31
0.0
  0
LINE
  5
EA
100
AcDbEntity
  8
Switch Holes
 62
256
370
-1
 48
1.0
  6
BYLAYER
100
AcDbLine
 10
2311.8796898164750928
 20
196.0
 30
0.0
 11
2311.8796898164750928
 21
172.8405781566846713
 31
0.0
  0
LINE
  5
EB
100
AcDbEntity
  8
Switch Holes
 62
256
370
-1
 48
1.0
  6
BYLAYER
100
AcDbLine
 10
2444.3285278234716316
 20
298.9501532415295628
 30
0.0
 11
2473.7087591949339185
 21
298.9501532415295628
 31
0.0
  0
ENDSEC
  0
SECTION
  2
OBJECTS
  0
DICTIONARY
  5
C
100
AcDbDictionary
280
0
281
1
  3
ACAD_GROUP
350
D
  3
ACAD_LAYOUT
350
1A
  3
ACAD_MLINESTYLE
350
17
  3
ACAD_PLOTSETTINGS
350
19
  3
ACAD_PLOTSTYLENAME
350
E
  3
AcDbVariableDictionary
350
EC
  3
QCAD_OBJECTS
350
ED
  0
DICTIONARY
  5
D
100
AcDbDictionary
280
0
281
1
  0
ACDBDICTIONARYWDFLT
  5
E
100
AcDbDictionary
281
1
  3
Normal
350
F
100
AcDbDictionaryWithDefault
340
F
  0
ACDBPLACEHOLDER
  5
F
  0
DICTIONARY
  5
17
100
AcDbDictionary
280
0
281
1
  3
Standard
350
18
  0
MLINESTYLE
  5
18
100
AcDbMlineStyle
  2
STANDARD
 70
0
  3

 62
256
 51
90.0
 52
90.0
 71
2
 49
0.5
 62
256
  6
BYLAYER
 49
-0.5
 62
256
  6
BYLAYER
  0
DICTIONARY
  5
19
100
AcDbDictionary
280
0
281
1
  0
DICTIONARY
  5
1A
100
AcDbDictionary
281
1
  3
Layout1
350
1E
  3
Layout2
350
26
  3
Model
350
22
  0
LAYOUT
  5
1E
100
AcDbPlotSettings
  1

  2
none_device
  4

  6

 40
0.0
 41
0.0
 42
0.0
 43
0.0
 44
0.0
 45
0.0
 46
0.0
 47
0.0
 48
0.0
 49
0.0
140
0.0
141
0.0
142
1.0
143
1.0
 70
688
 72
0
 73
0
 74
5
  7

 75
16
147
1.0
148
0.0
149
0.0
100
AcDbLayout
  1
Layout1
 70
1
 71
1
 10
0.0
 20
0.0
 11
420.0
 21
297.0
 12
0.0
 22
0.0
 32
0.0
 14
100000000000000000000.0
 24
100000000000000000000.0
 34
100000000000000000000.0
 15
-100000000000000000000.0
 25
-100000000000000000000.0
 35
-100000000000000000000.0
146
0.0
 13
0.0
 23
0.0
 33
0.0
 16
1.0
 26
0.0
 36
0.0
 17
0.0
 27
1.0
 37
0.0
 76
0
330
1B
  0
LAYOUT
  5
22
100
AcDbPlotSettings
  1

  2
none_device
  4

  6

 40
0.0
 41
0.0
 42
0.0
 43
0.0
 44
0.0
 45
0.0
 46
0.0
 47
0.0
 48
0.0
 49
0.0
140
0.0
141
0.0
142
1.0
143
1.0
 70
1712
 72
0
 73
0
 74
0
  7

 75
0
147
1.0
148
0.0
149
0.0
100
AcDbLayout
  1
Model
 70
1
 71
0
 10
0.0
 20
0.0
 11
12.0
 21
9.0
 12
0.0
 22
0.0
 32
0.0
 14
0.0
 24
0.0
 34
0.0
 15
0.0
 25
0.0
 35
0.0
146
0.0
 13
0.0
 23
0.0
 33
0.0
 16
1.0
 26
0.0
 36
0.0
 17
0.0
 27
1.0
 37
0.0
 76
0
330
1F
  0
LAYOUT
  5
26
100
AcDbPlotSettings
  1

  2
none_device
  4

  6

 40
0.0
 41
0.0
 42
0.0
 43
0.0
 44
0.0
 45
0.0
 46
0.0
 47
0.0
 48
0.0
 49
0.0
140
0.0
141
0.0
142
1.0
143
1.0
 70
688
 72
0
 73
0
 74
5
  7

 75
16
147
1.0
148
0.0
149
0.0
100
AcDbLayout
  1
Layout2
 70
1
 71
2
 10
0.0
 20
0.0
 11
12.0
 21
9.0
 12
0.0
 22
0.0
 32
0.0
 14
0.0
 24
0.0
 34
0.0
 15
0.0
 25
0.0
 35
0.0
146
0.0
 13
0.0
 23
0.0
 33
0.0
 16
1.0
 26
0.0
 36
0.0
 17
0.0
 27
1.0
 37
0.0
 76
0
330
23
  0
DICTIONARY
  5
EC
100
AcDbDictionary
281
1
  3
DIMASSOC
350
EF
  3
HIDETEXT
350
EE
  0
DICTIONARYVAR
  5
EE
100
DictionaryVariables
280
0
  1
2
  0
DICTIONARYVAR
  5
EF
100
DictionaryVariables
280
0
  1
1
  0
DICTIONARY
  5
ED
100
AcDbDictionary
281
1
  3
ColorSettings/BackgroundColor
350
F0
  3
ColorSettings/ColorMode
350
F1
  3
Grid/DisplayGrid00
350
F2
  3
Grid/DisplayGrid01
350
F3
  3
Grid/DisplayGrid02
350
F4
  3
Grid/DisplayGrid03
350
F5
  3
Grid/GridSpacingX00
350
F6
  3
Grid/GridSpacingX01
350
F7
  3
Grid/GridSpacingX02
350
F8
  3
Grid/GridSpacingX03
350
F9
  3
Grid/GridSpacingY00
350
FA
  3
Grid/GridSpacingY01
350
FB
  3
Grid/GridSpacingY02
350
FC
  3
Grid/GridSpacingY03
350
FD
  3
Grid/IsometricGrid00
350
FE
  3
Grid/IsometricGrid01
350
FF
  3
Grid/IsometricGrid02
350
100
  3
Grid/IsometricGrid03
350
101
  3
Grid/IsometricProjection00
350
102
  3
Grid/IsometricProjection01
350
103
  3
Grid/IsometricProjection02
350
104
  3
Grid/IsometricProjection03
350
105
  3
Grid/MetaGridSpacingX00
350
106
  3
Grid/MetaGridSpacingX01
350
107
  3
Grid/MetaGridSpacingX02
350
108
  3
Grid/MetaGridSpacingX03
350
109
  3
Grid/MetaGridSpacingY00
350
10A
  3
Grid/MetaGridSpacingY01
350
10B
  3
Grid/MetaGridSpacingY02
350
10C
  3
Grid/MetaGridSpacingY03
350
10D
  3
MultiPageSettings/Columns
350
10E
  3
MultiPageSettings/GlueMarginsBottom
350
10F
  3
MultiPageSettings/GlueMarginsLeft
350
110
  3
MultiPageSettings/GlueMarginsRight
350
111
  3
MultiPageSettings/GlueMarginsTop
350
112
  3
MultiPageSettings/PrintCropMarks
350
113
  3
MultiPageSettings/Rows
350
114
  3
PageSettings/OffsetX
350
115
  3
PageSettings/OffsetY
350
116
  3
PageSettings/PageOrientation
350
117
  3
PageSettings/PaperHeight
350
118
  3
PageSettings/PaperWidth
350
119
  3
PageSettings/Scale
350
11A
  3
PageSettings/ShowPaperBorders
350
11B
  3
PageTagSettings/EnablePageTags
350
11C
  3
PageTagSettings/TagAlignment
350
11D
  3
PageTagSettings/TagFont
350
11E
  3
PageTagSettings/TagPosition
350
11F
  3
QCADVersion
350
120
  3
UnitSettings/PaperUnit
350
121
  3
ViewportCenter
350
122
  3
ViewportHeight
350
123
  3
ViewportWidth
350
124
  0
XRECORD
  5
F0
330
ED
100
AcDbXrecord
280
1
1000
White
  0
XRECORD
  5
F1
330
ED
100
AcDbXrecord
280
1
1000
FullColor
  0
XRECORD
  5
F2
330
ED
100
AcDbXrecord
280
1
290
0
  0
XRECORD
  5
F3
330
ED
100
AcDbXrecord
280
1
290
1
  0
XRECORD
  5
F4
330
ED
100
AcDbXrecord
280
1
290
1
  0
XRECORD
  5
F5
330
ED
100
AcDbXrecord
280
1
290
1
  0
XRECORD
  5
F6
330
ED
100
AcDbXrecord
280
1
1000
auto
  0
XRECORD
  5
F7
330
ED
100
AcDbXrecord
280
1
1000
auto
  0
XRECORD
  5
F8
330
ED
100
AcDbXrecord
280
1
1000
auto
  0
XRECORD
  5
F9
330
ED
100
AcDbXrecord
280
1
1000
auto
  0
XRECORD
  5
FA
330
ED
100
AcDbXrecord
280
1
1000
auto
  0
XRECORD
  5
FB
330
ED
100
AcDbXrecord
280
1
1000
auto
  0
XRECORD
  5
FC
330
ED
100
AcDbXrecord
280
1
1000
auto
  0
XRECORD
  5
FD
330
ED
100
AcDbXrecord
280
1
1000
auto
  0
XRECORD
  5
FE
330
ED
100
AcDbXrecord
280
1
290
0
  0
XRECORD
  5
FF
330
ED
100
AcDbXrecord
280
1
290
0
  0
XRECORD
  5
100
330
ED
100
AcDbXrecord
280
1
290
0
  0
XRECORD
  5
101
330
ED
100
AcDbXrecord
280
1
290
0
  0
XRECORD
  5
102
330
ED
100
AcDbXrecord
280
1
 90
65537
  0
XRECORD
  5
103
330
ED
100
AcDbXrecord
280
1
 90
65537
  0
XRECORD
  5
104
330
ED
100
AcDbXrecord
280
1
 90
65537
  0
XRECORD
  5
105
330
ED
100
AcDbXrecord
280
1
 90
65537
  0
XRECORD
  5
106
330
ED
100
AcDbXrecord
280
1
1000
auto
  0
XRECORD
  5
107
330
ED
100
AcDbXrecord
280
1
1000
auto
  0
XRECORD
  5
108
330
ED
100
AcDbXrecord
280
1
1000
auto
  0
XRECORD
  5
109
330
ED
100
AcDbXrecord
280
1
1000
auto
  0
XRECORD
  5
10A
330
ED
100
AcDbXrecord
280
1
1000
auto
  0
XRECORD
  5
10B
330
ED
100
AcDbXrecord
280
1
1000
auto
  0
XRECORD
  5
10C
330
ED
100
AcDbXrecord
280
1
1000
auto
  0
XRECORD
  5
10D
330
ED
100
AcDbXrecord
280
1
1000
auto
  0
XRECORD
  5
10E
330
ED
100
AcDbXrecord
280
1
 90
1
  0
XRECORD
  5
10F
330
ED
100
AcDbXrecord
280
1
 40
10.0
  0
XRECORD
  5
110
330
ED
100
AcDbXrecord
280
1
 40
10.0
  0
XRECORD
  5
111
330
ED
100
AcDbXrecord
280
1
 40
10.0
  0
XRECORD
  5
112
330
ED
100
AcDbXrecord
280
1
 40
10.0
  0
XRECORD
  5
113
330
ED
100
AcDbXrecord
280
1
290
0
  0
XRECORD
  5
114
330
ED
100
AcDbXrecord
280
1
 90
1
  0
XRECORD
  5
115
330
ED
100
AcDbXrecord
280
1
 40
0.0
  0
XRECORD
  5
116
330
ED
100
AcDbXrecord
280
1
 40
0.0
  0
XRECORD
  5
117
330
ED
100
AcDbXrecord
280
1
1000
Portrait
  0
XRECORD
  5
118
330
ED
100
AcDbXrecord
280
1
 40
297.0
  0
XRECORD
  5
119
330
ED
100
AcDbXrecord
280
1
 40
210.0
  0
XRECORD
  5
11A
330
ED
100
AcDbXrecord
280
1
1000
1:1
  0
XRECORD
  5
11B
330
ED
100
AcDbXrecord
280
1
290
1
  0
XRECORD
  5
11C
330
ED
100
AcDbXrecord
280
1
290
0
  0
XRECORD
  5
11D
330
ED
100
AcDbXrecord
280
1
1000
Inside
  0
XRECORD
  5
11E
330
ED
100
AcDbXrecord
280
1
1000
Arial,10,-1,5,50,0,0,0,0,0
  0
XRECORD
  5
11F
330
ED
100
AcDbXrecord
280
1
1000
TopLeft
  0
XRECORD
  5
120
330
ED
100
AcDbXrecord
280
1
1000
3.25.2
  0
XRECORD
  5
121
330
ED
100
AcDbXrecord
280
1
 90
4
  0
XRECORD
  5
123
330
ED
100
AcDbXrecord
280
1
 40
2.7217625622275534
  0
XRECORD
  5
124
330
ED
100
AcDbXrecord
280
1
 40
147.6556190008454905
  0
ENDSEC
  0
EOF
