999
dxflib 3.17.0.0
  0
SECTION
  2
HEADER
  9
$ACADVER
  1
AC1015
  9
$HANDSEED
  5
FFFF
  9
$ANGBASE
 50
0.0
  9
$ANGDIR
 70
0
  9
$ATTMODE
 70
0
  9
$AUNITS
 70
0
  9
$AUPREC
 70
2
  9
$CECOLOR
 62
256
  9
$CELTSCALE
 40
1.0
  9
$CHAMFERA
 40
0.0
  9
$CHAMFERB
 40
0.0
  9
$CHAMFERC
 40
0.0
  9
$CHAMFERD
 40
0.0
  9
$CMLJUST
 70
0
  9
$CMLSCALE
 40
20.0
  9
$DIMADEC
 70
0
  9
$DIMALT
 70
0
  9
$DIMALTD
 70
3
  9
$DIMALTF
 40
0.03937
  9
$DIMALTRND
 40
0.0
  9
$DIMALTTD
 70
3
  9
$DIMALTTZ
 70
0
  9
$DIMALTU
 70
2
  9
$DIMALTZ
 70
0
  9
$DIMAPOST
  1

  9
$DIMASZ
 40
3.0
  9
$DIMATFIT
 70
3
  9
$DIMAUNIT
 70
0
  9
$DIMAZIN
 70
0
  9
$DIMBLK
  1

  9
$DIMBLK1
  1

  9
$DIMBLK2
  1

  9
$DIMCEN
 40
2.5
  9
$DIMCLRD
 70
0
  9
$DIMCLRE
 70
0
  9
$DIMDEC
 70
2
  9
$DIMDLE
 40
0.0
  9
$DIMDLI
 40
6.0
  9
$DIMDSEP
 70
46
  9
$DIMEXE
 40
1.5
  9
$DIMEXO
 40
0.75
  9
$DIMFRAC
 70
0
  9
$DIMGAP
 40
0.75
  9
$DIMJUST
 70
0
  9
$DIMLDRBLK
  1
STANDARD
  9
$DIMLFAC
 40
1.0
  9
$DIMLIM
 70
0
  9
$DIMLUNIT
 70
2
  9
$DIMLWD
 70
-2
  9
$DIMLWE
 70
-2
  9
$DIMPOST
  1

  9
$DIMRND
 40
0.0
  9
$DIMSAH
 70
0
  9
$DIMSCALE
 40
1.0
  9
$DIMSD1
 70
0
  9
$DIMSD2
 70
0
  9
$DIMSE1
 70
0
  9
$DIMSE2
 70
0
  9
$DIMSOXD
 70
0
  9
$DIMTAD
 70
1
  9
$DIMTDEC
 70
2
  9
$DIMTFAC
 40
1.0
  9
$DIMTIH
 70
0
  9
$DIMTIX
 70
0
  9
$DIMTM
 40
0.0
  9
$DIMTOFL
 70
1
  9
$DIMTOH
 70
0
  9
$DIMTOL
 70
0
  9
$DIMTOLJ
 70
0
  9
$DIMTP
 40
0.0
  9
$DIMTSZ
 40
0.0
  9
$DIMTVP
 40
0.0
  9
$DIMTXSTY
  7
STANDARD
  9
$DIMTXT
 40
3.0
  9
$DIMTZIN
 70
8
  9
$DIMUPT
 70
0
  9
$DIMZIN
 70
0
  9
$DISPSILH
 70
0
  9
$DWGCODEPAGE
  3
ANSI_1252
  9
$ELEVATION
 40
0.0
  9
$EXTMAX
 10
217.228585041632698
 20
113.3124593131094002
 30
0.0
  9
$EXTMIN
 10
-22.75
 20
-193.1515922983421092
 30
0.0
  9
$FILLETRAD
 40
0.0
  9
$FILLMODE
 70
0
  9
$INSBASE
 10
0.0
 20
0.0
 30
0.0
  9
$INSUNITS
 70
4
  9
$LIMCHECK
 70
0
  9
$LIMMAX
 10
420.0
 20
297.0
  9
$LIMMIN
 10
0.0
 20
0.0
  9
$LTSCALE
 40
1.0
  9
$LUNITS
 70
2
  9
$LUPREC
 70
4
  9
$MAXACTVP
 70
64
  9
$MEASUREMENT
 70
1
  9
$MIRRTEXT
 70
0
  9
$ORTHOMODE
 70
0
  9
$PDMODE
 70
0
  9
$PDSIZE
 40
0.0
  9
$PELEVATION
 40
0.0
  9
$PEXTMAX
 10
0.0
 20
0.0
 30
0.0
  9
$PEXTMIN
 10
0.0
 20
0.0
 30
0.0
  9
$PINSBASE
 10
0.0
 20
0.0
 30
0.0
  9
$PLIMCHECK
 70
0
  9
$PLIMMAX
 10
210.0
 20
297.0
  9
$PLIMMIN
 10
0.0
 20
0.0
  9
$PLINEGEN
 70
0
  9
$PLINEWID
 40
0.0
  9
$PROXYGRAPHICS
 70
1
  9
$PSLTSCALE
 70
1
  9
$PUCSNAME
  2

  9
$PUCSORG
 10
0.0
 20
0.0
 30
0.0
  9
$PUCSXDIR
 10
1.0
 20
0.0
 30
0.0
  9
$PUCSYDIR
 10
0.0
 20
1.0
 30
0.0
  9
$QTEXTMODE
 70
0
  9
$REGENMODE
 70
1
  9
$SHADEDGE
 70
3
  9
$SHADEDIF
 70
70
  9
$SKETCHINC
 40
1.0
  9
$SKPOLY
 70
0
  9
$SPLFRAME
 70
1
  9
$SPLINESEGS
 70
8
  9
$SPLINETYPE
 70
2
  9
$SURFTAB1
 70
6
  9
$SURFTAB2
 70
6
  9
$SURFTYPE
 70
6
  9
$SURFU
 70
6
  9
$SURFV
 70
6
  9
$TEXTSIZE
 40
2.5
  9
$TEXTSTYLE
  7
STANDARD
  9
$THICKNESS
 40
0.0
  9
$TILEMODE
 70
1
  9
$TRACEWID
 40
15.6799999999999997
  9
$TREEDEPTH
 70
3020
  9
$UCSNAME
  2

  9
$UCSORG
 10
0.0
 20
0.0
 30
0.0
  9
$UCSXDIR
 10
1.0
 20
0.0
 30
0.0
  9
$UCSYDIR
 10
0.0
 20
1.0
 30
0.0
  9
$UNITMODE
 70
0
  9
$USERI1
 70
0
  9
$USERI2
 70
0
  9
$USERI3
 70
0
  9
$USERI4
 70
0
  9
$USERI5
 70
0
  9
$USERR1
 40
0.0
  9
$USERR2
 40
0.0
  9
$USERR3
 40
0.0
  9
$USERR4
 40
0.0
  9
$USERR5
 40
0.0
  9
$USRTIMER
 70
1
  9
$VISRETAIN
 70
1
  0
ENDSEC
  0
SECTION
  2
TABLES
  0
TABLE
  2
VPORT
  5
8
100
AcDbSymbolTable
 70
1
  0
VPORT
  5
30
100
AcDbSymbolTableRecord
100
AcDbViewportTableRecord
  2
*Active
 70
0
 10
0.0
 20
0.0
 11
1.0
 21
1.0
 12
286.3055555555554861
 22
148.5
 13
0.0
 23
0.0
 14
10.0
 24
10.0
 15
10.0
 25
10.0
 16
0.0
 26
0.0
 36
1.0
 17
0.0
 27
0.0
 37
0.0
 40
297.0
 41
1.92798353909465
 42
50.0
 43
0.0
 44
0.0
 50
0.0
 51
0.0
 71
0
 72
100
 73
1
 74
3
 75
1
 76
1
 77
0
 78
0
281
0
 65
1
110
0.0
120
0.0
130
0.0
111
1.0
121
0.0
131
0.0
112
0.0
122
1.0
132
0.0
 79
0
146
0.0
  0
ENDTAB
  0
TABLE
  2
LTYPE
  5
5
100
AcDbSymbolTable
 70
27
  0
LTYPE
  5
16
100
AcDbSymbolTableRecord
100
AcDbLinetypeTableRecord
  2
Continuous
 70
0
  3
Solid line
 72
65
 73
0
 40
0.0
  0
LTYPE
  5
31
100
AcDbSymbolTableRecord
100
AcDbLinetypeTableRecord
  2
DASHEDX2
 70
0
  3
Dashed (2x) ____  ____  ____  ____  ____  ___
 72
65
 73
2
 40
38.0999999999999943
 49
25.3999999999999986
 74
0
 49
-12.6999999999999993
 74
0
  0
LTYPE
  5
32
100
AcDbSymbolTableRecord
100
AcDbLinetypeTableRecord
  2
DIVIDE
 70
0
  3
Divide ____ . . ____ . . ____ . . ____ . . ____
 72
65
 73
6
 40
31.7500000000000036
 49
12.6999999999999993
 74
0
 49
-6.2999999999999998
 74
0
 49
0.1
 74
0
 49
-6.25
 74
0
 49
0.1
 74
0
 49
-6.2999999999999998
 74
0
  0
LTYPE
  5
33
100
AcDbSymbolTableRecord
100
AcDbLinetypeTableRecord
  2
DASHED2
 70
0
  3
Dashed (.5x) _ _ _ _ _ _ _ _ _ _ _ _ _ _ _ _ _
 72
65
 73
2
 40
9.5249999999999986
 49
6.3499999999999996
 74
0
 49
-3.1749999999999998
 74
0
  0
LTYPE
  5
34
100
AcDbSymbolTableRecord
100
AcDbLinetypeTableRecord
  2
CENTERTINY
 70
0
  3
Center (.15x) ___ _ ___ _ ___ _ ___ _ ___ _ ___
 72
65
 73
4
 40
7.6199999999999992
 49
4.7625000000000002
 74
0
 49
-0.9525
 74
0
 49
0.9525
 74
0
 49
-0.9525
 74
0
  0
LTYPE
  5
35
100
AcDbSymbolTableRecord
100
AcDbLinetypeTableRecord
  2
DOTTINY
 70
0
  3
Dot (.15x) .....................................
 72
65
 73
2
 40
0.9525
 49
0.1
 74
0
 49
-0.8525
 74
0
  0
LTYPE
  5
36
100
AcDbSymbolTableRecord
100
AcDbLinetypeTableRecord
  2
DASHED
 70
0
  3
Dashed _ _ _ _ _ _ _ _ _ _ _ _ _ _ _ _ _
 72
65
 73
2
 40
19.0499999999999972
 49
12.6999999999999993
 74
0
 49
-6.3499999999999996
 74
0
  0
LTYPE
  5
37
100
AcDbSymbolTableRecord
100
AcDbLinetypeTableRecord
  2
DASHDOT
 70
0
  3
Dash dot __ . __ . __ . __ . __ . __ . __ . __
 72
65
 73
4
 40
25.4000000000000021
 49
12.6999999999999993
 74
0
 49
-6.2999999999999998
 74
0
 49
0.1
 74
0
 49
-6.2999999999999998
 74
0
  0
LTYPE
  5
38
100
AcDbSymbolTableRecord
100
AcDbLinetypeTableRecord
  2
DASHDOT2
 70
0
  3
Dash dot (.5x) _._._._._._._._._._._._._._._.
 72
65
 73
4
 40
12.6999999999999993
 49
6.3499999999999996
 74
0
 49
-3.125
 74
0
 49
0.1
 74
0
 49
-3.125
 74
0
  0
LTYPE
  5
39
100
AcDbSymbolTableRecord
100
AcDbLinetypeTableRecord
  2
BORDER
 70
0
  3
Border __ __ . __ __ . __ __ . __ __ . __ __ .
 72
65
 73
6
 40
44.4499999999999957
 49
12.6999999999999993
 74
0
 49
-6.3499999999999996
 74
0
 49
12.6999999999999993
 74
0
 49
-6.2999999999999998
 74
0
 49
0.1
 74
0
 49
-6.2999999999999998
 74
0
  0
LTYPE
  5
3A
100
AcDbSymbolTableRecord
100
AcDbLinetypeTableRecord
  2
DIVIDETINY
 70
0
  3
Divide (.15x) __..__..__..__..__..__..__..__.._
 72
65
 73
6
 40
4.7625000000000002
 49
1.905
 74
0
 49
-0.9025
 74
0
 49
0.1
 74
0
 49
-0.8524999999999999
 74
0
 49
0.1
 74
0
 49
-0.9025
 74
0
  0
LTYPE
  5
3B
100
AcDbSymbolTableRecord
100
AcDbLinetypeTableRecord
  2
BORDERTINY
 70
0
  3
Border (.15x) __.__.__.__.__.__.__.__.__.__.__.
 72
65
 73
6
 40
6.6674999999999995
 49
1.905
 74
0
 49
-0.9525
 74
0
 49
1.905
 74
0
 49
-0.9025
 74
0
 49
0.1
 74
0
 49
-0.9025
 74
0
  0
LTYPE
  5
3C
100
AcDbSymbolTableRecord
100
AcDbLinetypeTableRecord
  2
DOTX2
 70
0
  3
Dot (2x) .  .  .  .  .  .  .  .  .  .  .  .  .
 72
65
 73
2
 40
12.6999999999999993
 49
0.1
 74
0
 49
-12.5999999999999996
 74
0
  0
LTYPE
  5
3D
100
AcDbSymbolTableRecord
100
AcDbLinetypeTableRecord
  2
DOT2
 70
0
  3
Dot (.5x) .....................................
 72
65
 73
2
 40
3.1749999999999998
 49
0.1
 74
0
 49
-3.0749999999999997
 74
0
  0
LTYPE
  5
3E
100
AcDbSymbolTableRecord
100
AcDbLinetypeTableRecord
  2
DASHDOTTINY
 70
0
  3
Dash dot (.15x) _._._._._._._._._._._._._._._.
 72
65
 73
4
 40
3.8100000000000001
 49
1.905
 74
0
 49
-0.9025
 74
0
 49
0.1
 74
0
 49
-0.9025
 74
0
  0
LTYPE
  5
3F
100
AcDbSymbolTableRecord
100
AcDbLinetypeTableRecord
  2
DASHEDTINY
 70
0
  3
Dashed (.15x) _ _ _ _ _ _ _ _ _ _ _ _ _ _ _ _ _
 72
65
 73
2
 40
2.8574999999999999
 49
1.905
 74
0
 49
-0.9525
 74
0
  0
LTYPE
  5
40
100
AcDbSymbolTableRecord
100
AcDbLinetypeTableRecord
  2
CENTERX2
 70
0
  3
Center (2x) ________  __  ________  __  _____
 72
65
 73
4
 40
101.6000000000000085
 49
63.5
 74
0
 49
-12.6999999999999993
 74
0
 49
12.6999999999999993
 74
0
 49
-12.6999999999999993
 74
0
  0
LTYPE
  5
41
100
AcDbSymbolTableRecord
100
AcDbLinetypeTableRecord
  2
CENTER
 70
0
  3
Center ____ _ ____ _ ____ _ ____ _ ____ _ ____
 72
65
 73
4
 40
50.8000000000000043
 49
31.75
 74
0
 49
-6.3499999999999996
 74
0
 49
6.3499999999999996
 74
0
 49
-6.3499999999999996
 74
0
  0
LTYPE
  5
14
100
AcDbSymbolTableRecord
100
AcDbLinetypeTableRecord
  2
ByBlock
 70
0
  3

 72
65
 73
0
 40
0.0
  0
LTYPE
  5
15
100
AcDbSymbolTableRecord
100
AcDbLinetypeTableRecord
  2
ByLayer
 70
0
  3

 72
65
 73
0
 40
0.0
  0
LTYPE
  5
42
100
AcDbSymbolTableRecord
100
AcDbLinetypeTableRecord
  2
DOT
 70
0
  3
Dot . . . . . . . . . . . . . . . . . . . . . .
 72
65
 73
2
 40
6.3499999999999996
 49
0.1
 74
0
 49
-6.25
 74
0
  0
LTYPE
  5
43
100
AcDbSymbolTableRecord
100
AcDbLinetypeTableRecord
  2
DIVIDE2
 70
0
  3
Divide (.5x) __..__..__..__..__..__..__..__.._
 72
65
 73
6
 40
15.8749999999999982
 49
6.3499999999999996
 74
0
 49
-3.125
 74
0
 49
0.1
 74
0
 49
-3.0750000000000002
 74
0
 49
0.1
 74
0
 49
-3.125
 74
0
  0
LTYPE
  5
44
100
AcDbSymbolTableRecord
100
AcDbLinetypeTableRecord
  2
BORDER2
 70
0
  3
Border (.5x) __.__.__.__.__.__.__.__.__.__.__.
 72
65
 73
6
 40
22.2250000000000014
 49
6.3499999999999996
 74
0
 49
-3.1749999999999998
 74
0
 49
6.3499999999999996
 74
0
 49
-3.125
 74
0
 49
0.1
 74
0
 49
-3.125
 74
0
  0
LTYPE
  5
45
100
AcDbSymbolTableRecord
100
AcDbLinetypeTableRecord
  2
BORDERX2
 70
0
  3
Border (2x) ____  ____  .  ____  ____  .  ___
 72
65
 73
6
 40
88.8999999999999773
 49
25.3999999999999986
 74
0
 49
-12.6999999999999993
 74
0
 49
25.3999999999999986
 74
0
 49
-12.6499999999999986
 74
0
 49
0.1
 74
0
 49
-12.6499999999999986
 74
0
  0
LTYPE
  5
46
100
AcDbSymbolTableRecord
100
AcDbLinetypeTableRecord
  2
DASHDOTX2
 70
0
  3
Dash dot (2x) ____  .  ____  .  ____  .  ___
 72
65
 73
4
 40
50.7999999999999972
 49
25.3999999999999986
 74
0
 49
-12.6499999999999986
 74
0
 49
0.1
 74
0
 49
-12.6499999999999986
 74
0
  0
LTYPE
  5
47
100
AcDbSymbolTableRecord
100
AcDbLinetypeTableRecord
  2
CENTER2
 70
0
  3
Center (.5x) ___ _ ___ _ ___ _ ___ _ ___ _ ___
 72
65
 73
4
 40
28.5750000000000028
 49
19.0500000000000007
 74
0
 49
-3.1749999999999998
 74
0
 49
3.1749999999999998
 74
0
 49
-3.1749999999999998
 74
0
  0
LTYPE
  5
48
100
AcDbSymbolTableRecord
100
AcDbLinetypeTableRecord
  2
DIVIDEX2
 70
0
  3
Divide (2x) ________  .  .  ________  .  .  _
 72
65
 73
6
 40
63.5
 49
25.3999999999999986
 74
0
 49
-12.6499999999999986
 74
0
 49
0.1
 74
0
 49
-12.5999999999999979
 74
0
 49
0.1
 74
0
 49
-12.6499999999999986
 74
0
  0
ENDTAB
  0
TABLE
  2
LAYER
  5
2
100
AcDbSymbolTable
 70
8
  0
LAYER
  5
49
100
AcDbSymbolTableRecord
100
AcDbLayerTableRecord
  2
Shell2
 70
1
 62
30
420
16744192
  6
Continuous
370
25
390
F
  0
LAYER
  5
4A
100
AcDbSymbolTableRecord
100
AcDbLayerTableRecord
  2
Holes
 70
1
 62
4
420
65535
  6
Continuous
370
25
390
F
  0
LAYER
  5
10
100
AcDbSymbolTableRecord
100
AcDbLayerTableRecord
  2
0
 70
0
 62
7
420
16777215
  6
Continuous
370
5
390
F
  0
LAYER
  5
4B
100
AcDbSymbolTableRecord
100
AcDbLayerTableRecord
  2
Refs
 70
1
 62
14
420
8388608
  6
Continuous
370
25
390
F
  0
LAYER
  5
4C
100
AcDbSymbolTableRecord
100
AcDbLayerTableRecord
  2
Switches
 70
1
 62
7
420
16777215
  6
Continuous
370
25
390
F
  0
LAYER
  5
4D
100
AcDbSymbolTableRecord
100
AcDbLayerTableRecord
  2
Shell
 70
4
 62
2
420
16776960
  6
Continuous
370
25
390
F
  0
LAYER
  5
4E
100
AcDbSymbolTableRecord
100
AcDbLayerTableRecord
  2
Dims
 70
0
 62
6
420
16711935
  6
Continuous
370
25
390
F
  0
LAYER
  5
4F
100
AcDbSymbolTableRecord
100
AcDbLayerTableRecord
  2
PCB
 70
1
 62
4
420
65535
  6
Continuous
370
25
390
F
  0
ENDTAB
  0
TABLE
  2
STYLE
  5
3
100
AcDbSymbolTable
 70
1
  0
STYLE
  5
50
100
AcDbSymbolTableRecord
100
AcDbTextStyleTableRecord
  2
Standard
 70
0
 40
0.0
 41
1.0
 50
0.0
 71
0
 42
2.5
  3

  4

1001
ACAD
1000
txt
1071
0
  0
ENDTAB
  0
TABLE
  2
VIEW
  5
6
100
AcDbSymbolTable
 70
0
  0
ENDTAB
  0
TABLE
  2
UCS
  5
7
100
AcDbSymbolTable
 70
0
  0
ENDTAB
  0
TABLE
  2
APPID
  5
9
100
AcDbSymbolTable
 70
1
  0
APPID
  5
12
100
AcDbSymbolTableRecord
100
AcDbRegAppTableRecord
  2
ACAD
 70
0
  0
APPID
  5
51
100
AcDbSymbolTableRecord
100
AcDbRegAppTableRecord
  2
QCAD
 70
0
  0
ENDTAB
  0
TABLE
  2
DIMSTYLE
  5
A
100
AcDbSymbolTable
 70
1
100
AcDbDimStyleTable
 71
0
  0
DIMSTYLE
105
27
100
AcDbSymbolTableRecord
100
AcDbDimStyleTableRecord
  2
Standard
 41
3.0
 42
0.75
 43
3.75
 44
1.5
 70
0
 73
0
 74
0
 77
1
 78
8
140
3.0
141
2.5
143
0.03937007874016
147
0.75
171
3
172
1
271
2
272
2
274
3
278
44
283
0
284
8
340
50
  0
ENDTAB
  0
TABLE
  2
BLOCK_RECORD
  5
1
100
AcDbSymbolTable
 70
1
  0
BLOCK_RECORD
  5
1F
100
AcDbSymbolTableRecord
100
AcDbBlockTableRecord
  2
*Model_Space
340
22
  0
BLOCK_RECORD
  5
1B
100
AcDbSymbolTableRecord
100
AcDbBlockTableRecord
  2
*Paper_Space
340
1E
  0
BLOCK_RECORD
  5
23
100
AcDbSymbolTableRecord
100
AcDbBlockTableRecord
  2
*Paper_Space0
340
26
  0
ENDTAB
  0
ENDSEC
  0
SECTION
  2
BLOCKS
  0
BLOCK
  5
20
100
AcDbEntity
  8
0
100
AcDbBlockBegin
  2
*Model_Space
 70
0
 10
0.0
 20
0.0
 30
0.0
  3
*Model_Space
  1

  0
ENDBLK
  5
21
100
AcDbEntity
  8
0
100
AcDbBlockEnd
  0
BLOCK
  5
1C
100
AcDbEntity
 67
1
  8
0
100
AcDbBlockBegin
  2
*Paper_Space
 70
0
 10
0.0
 20
0.0
 30
0.0
  3
*Paper_Space
  1

  0
ENDBLK
  5
1D
100
AcDbEntity
 67
1
  8
0
100
AcDbBlockEnd
  0
BLOCK
  5
24
100
AcDbEntity
  8
0
100
AcDbBlockBegin
  2
*Paper_Space0
 70
0
 10
0.0
 20
0.0
 30
0.0
  3
*Paper_Space0
  1

  0
ENDBLK
  5
25
100
AcDbEntity
  8
0
100
AcDbBlockEnd
  0
ENDSEC
  0
SECTION
  2
ENTITIES
  0
LWPOLYLINE
  5
52
100
AcDbEntity
  8
0
 62
256
370
-1
 48
1.0
  6
ByLayer
100
AcDbPolyline
 90
2
 70
0
 10
132.4488619480000864
 20
-0.0000000000000009
 10
5.0499999999999998
 20
-0.0000000000000009
  0
LWPOLYLINE
  5
53
100
AcDbEntity
  8
0
 62
256
370
-1
 48
1.0
  6
ByLayer
100
AcDbPolyline
 90
2
 70
0
 10
137.5001395259999128
 20
-5.0500149480000127
 10
137.5001395259999128
 20
-15.1513074739999603
  0
LWPOLYLINE
  5
54
100
AcDbEntity
  8
0
 62
256
370
-1
 48
1.0
  6
ByLayer
100
AcDbPolyline
 90
2
 70
0
 10
0.0000239410040193
 20
-5.0500149480000127
 10
0.0000239410040193
 20
-8.3328529479999816
  0
LWPOLYLINE
  5
55
100
AcDbEntity
  8
0
 62
256
370
-1
 48
1.0
  6
ByLayer
100
AcDbPolyline
 90
2
 70
0
 10
0.0000239410040193
 20
-5.0500149480000127
 10
5.0499999999999998
 20
-0.0000000000000009
  0
LWPOLYLINE
  5
56
100
AcDbEntity
  8
0
 62
256
370
-1
 48
1.0
  6
ByLayer
100
AcDbPolyline
 90
2
 70
0
 10
137.5001395259999128
 20
-5.0500149480000127
 10
132.4488619480000864
 20
-0.0000000000000009
  0
LWPOLYLINE
  5
57
100
AcDbEntity
  8
0
 62
256
370
-1
 48
1.0
  6
ByLayer
100
AcDbPolyline
 90
2
 70
0
 10
74.2426290520000265
 20
-96.2126585259999842
 10
64.1413365259998471
 20
-96.2126585259999842
  0
LWPOLYLINE
  5
58
100
AcDbEntity
  8
0
 62
256
370
-1
 48
1.0
  6
ByLayer
100
AcDbPolyline
 90
2
 70
0
 10
137.5001395259999128
 20
-70.7062698959999807
 10
161.2375835259998098
 20
-84.3436839999999961
  0
LWPOLYLINE
  5
59
100
AcDbEntity
  8
0
 62
256
370
-1
 48
1.0
  6
ByLayer
100
AcDbPolyline
 90
2
 70
0
 10
137.5001395259999128
 20
-15.1513074739999603
 10
137.5001395259999128
 20
-70.7062698959999807
  0
LWPOLYLINE
  5
5A
100
AcDbEntity
  8
0
 62
256
370
-1
 48
1.0
  6
ByLayer
100
AcDbPolyline
 90
2
 70
0
 10
137.3741290520000007
 20
-125.7575260290540058
 10
161.2375835259998098
 20
-84.3436839999999961
  0
LWPOLYLINE
  5
5B
100
AcDbEntity
  8
0
 62
256
370
-1
 48
1.0
  6
ByLayer
100
AcDbPolyline
 90
2
 70
0
 10
137.2466034219999926
 20
-125.7575260290540058
 10
137.3741290520000007
 20
-125.7575260290540058
  0
LWPOLYLINE
  5
5C
100
AcDbEntity
  8
0
 62
256
370
-1
 48
1.0
  6
ByLayer
100
AcDbPolyline
 90
2
 70
0
 10
96.0851179479998763
 20
-102.0201757162000007
 10
74.2426290520000265
 20
-96.2126585259999842
  0
LWPOLYLINE
  5
5D
100
AcDbEntity
  8
0
 62
256
370
-1
 48
1.0
  6
ByLayer
100
AcDbPolyline
 90
2
 70
0
 10
137.2466034219999926
 20
-125.7575260290540058
 10
96.0851179479998763
 20
-102.0201757162000007
  0
LWPOLYLINE
  5
5E
100
AcDbEntity
  8
0
 62
256
370
-1
 48
1.0
  6
ByLayer
100
AcDbPolyline
 90
2
 70
0
 10
61.6163290519996707
 20
-98.7376659999999902
 10
64.1413365259998471
 20
-96.2126585259999842
  0
LWPOLYLINE
  5
5F
100
AcDbEntity
  8
0
 62
256
370
-1
 48
1.0
  6
ByLayer
100
AcDbPolyline
 90
2
 70
0
 10
46.9690634739998103
 20
-98.7376659999999902
 10
61.6163290519996707
 20
-98.7376659999999902
  0
LWPOLYLINE
  5
60
100
AcDbEntity
  8
0
 62
256
370
-1
 48
1.0
  6
ByLayer
100
AcDbPolyline
 90
2
 70
0
 10
42.6768790519998191
 20
-103.0299261798000003
 10
46.9690634739998103
 20
-98.7376659999999902
  0
LWPOLYLINE
  5
61
100
AcDbEntity
  8
0
 62
256
370
-1
 48
1.0
  6
ByLayer
100
AcDbPolyline
 90
2
 70
0
 10
4.7979032942001139
 20
-103.0299261798000003
 10
42.6768790519998191
 20
-103.0299261798000003
  0
LWPOLYLINE
  5
62
100
AcDbEntity
  8
0
 62
256
370
-1
 48
1.0
  6
ByLayer
100
AcDbPolyline
 90
2
 70
0
 10
4.7979032942001139
 20
-88.8881418959999792
 10
4.7979032942001139
 20
-103.0299261798000003
  0
LWPOLYLINE
  5
63
100
AcDbEntity
  8
0
 62
256
370
-1
 48
1.0
  6
ByLayer
100
AcDbPolyline
 90
2
 70
0
 10
0.0000239410040193
 20
-84.0906529479999563
 10
4.7979032942001139
 20
-88.8881418959999792
  0
LWPOLYLINE
  5
64
100
AcDbEntity
  8
0
 62
256
370
-1
 48
1.0
  6
ByLayer
100
AcDbPolyline
 90
2
 70
0
 10
0.0000239410040193
 20
-8.3328529479999816
 10
0.0000239410040193
 20
-84.0906529479999563
  0
LINE
  5
65
100
AcDbEntity
  8
Shell
 62
256
370
-1
 48
1.0
  6
ByLayer
100
AcDbLine
 10
-11.5625
 20
4.0
 30
0.0
 11
-11.5625
 21
-107.0298999999999978
 31
0.0
  0
LINE
  5
66
100
AcDbEntity
  8
Refs
 62
256
370
-1
 48
1.0
  6
ByLayer
100
AcDbLine
 10
179.7375835259998098
 20
-84.3436839999999677
 30
0.0
 11
179.7375835259998098
 21
-187.4209382320715065
 31
0.0
  0
LINE
  5
67
100
AcDbEntity
  8
Refs
 62
256
370
-1
 48
1.0
  6
ByLayer
100
AcDbLine
 10
179.7375835259998098
 20
-84.3436839999999677
 30
0.0
 11
179.7375835259998098
 21
49.7252565726251703
 31
0.0
  0
LINE
  5
68
100
AcDbEntity
  8
Refs
 62
256
370
-1
 48
1.0
  6
ByLayer
100
AcDbLine
 10
130.4471790046625017
 20
113.3124593131094002
 30
0.0
 11
184.2781140814109904
 21
-191.9779441206750903
 31
0.0
  0
LINE
  5
69
100
AcDbEntity
  8
Shell
 62
256
370
-1
 48
1.0
  6
ByLayer
100
AcDbLine
 10
149.4614461506818941
 20
4.0
 30
0.0
 11
172.6016676980632099
 21
-125.7575260290540058
 31
0.0
  0
LINE
  5
6A
100
AcDbEntity
  8
Switches
 62
256
370
-1
 48
1.0
  6
ByLayer
100
AcDbLine
 10
101.9671408665879966
 20
-101.391842926670293
 30
0.0
 11
105.5828429266702955
 21
-87.8978591334119699
 31
0.0
  0
LINE
  5
6B
100
AcDbEntity
  8
Switches
 62
256
370
-1
 48
1.0
  6
ByLayer
100
AcDbLine
 10
105.5828429266702955
 20
-87.8978591334119699
 30
0.0
 11
92.0888591334119582
 21
-84.2821570733297563
 31
0.0
  0
POINT
  5
6C
100
AcDbEntity
  8
Refs
 62
256
370
-1
 48
1.0
  6
ByLayer
100
AcDbPoint
 10
-5.7857908268086433
 20
-1.30499896939598
 30
0.0
  0
POINT
  5
6D
100
AcDbEntity
  8
Refs
 62
256
370
-1
 48
1.0
  6
ByLayer
100
AcDbPoint
 10
143.0628227430823074
 20
-0.8842519951853518
 30
0.0
  0
POINT
  5
6E
100
AcDbEntity
  8
Refs
 62
256
370
-1
 48
1.0
  6
ByLayer
100
AcDbPoint
 10
-5.1726121288087974
 20
-98.4215332090793282
 30
0.0
  0
POINT
  5
6F
100
AcDbEntity
  8
Refs
 62
256
370
-1
 48
1.0
  6
ByLayer
100
AcDbPoint
 10
158.297788718805208
 20
-114.6141796151833034
 30
0.0
  0
LINE
  5
70
100
AcDbEntity
  8
Refs
 62
256
370
-1
 48
1.0
  6
ByLayer
100
AcDbLine
 10
0.0000239410040193
 20
-84.0906529479999563
 30
0.0
 11
0.0000239410040193
 21
-106.5304956066224946
 31
0.0
  0
LINE
  5
71
100
AcDbEntity
  8
Refs
 62
256
370
-1
 48
1.0
  6
ByLayer
100
AcDbLine
 10
132.4488619480000864
 20
-0.0000000000000009
 30
0.0
 11
179.7375835259998098
 21
-0.0000000000000009
 31
0.0
  0
LINE
  5
72
100
AcDbEntity
  8
Switches
 62
256
370
-1
 48
1.0
  6
ByLayer
100
AcDbLine
 10
105.5828429266702955
 20
-87.8978591334119699
 30
0.0
 11
101.9671408665879966
 21
-101.391842926670293
 31
0.0
  0
LINE
  5
73
100
AcDbEntity
  8
Switches
 62
256
370
-1
 48
1.0
  6
ByLayer
100
AcDbLine
 10
101.9671408665879966
 20
-101.391842926670293
 30
0.0
 11
88.4731570733297303
 21
-97.7761408665880367
 31
0.0
  0
LINE
  5
74
100
AcDbEntity
  8
Switches
 62
256
370
-1
 48
1.0
  6
ByLayer
100
AcDbLine
 10
88.4731570733297303
 20
-97.7761408665880367
 30
0.0
 11
92.0888591334119582
 21
-84.2821570733297563
 31
0.0
  0
LINE
  5
75
100
AcDbEntity
  8
Refs
 62
256
370
-1
 48
1.0
  6
ByLayer
100
AcDbLine
 10
137.5001395259999128
 20
-70.7062698959999807
 30
0.0
 11
179.7375835259998098
 21
-70.7062698959999807
 31
0.0
  0
LINE
  5
76
100
AcDbEntity
  8
Switches
 62
256
370
-1
 48
1.0
  6
ByLayer
100
AcDbLine
 10
18.9229999999999983
 20
-82.0420000000000016
 30
0.0
 11
18.9229999999999983
 21
-68.0720000000000027
 31
0.0
  0
LINE
  5
77
100
AcDbEntity
  8
Switches
 62
256
370
-1
 48
1.0
  6
ByLayer
100
AcDbLine
 10
18.9229999999999983
 20
-68.0720000000000027
 30
0.0
 11
4.9530000000000012
 21
-68.0720000000000027
 31
0.0
  0
LINE
  5
78
100
AcDbEntity
  8
Switches
 62
256
370
-1
 48
1.0
  6
ByLayer
100
AcDbLine
 10
18.9229999999999983
 20
-68.0720000000000027
 30
0.0
 11
18.9229999999999983
 21
-82.0420000000000016
 31
0.0
  0
LINE
  5
79
100
AcDbEntity
  8
Switches
 62
256
370
-1
 48
1.0
  6
ByLayer
100
AcDbLine
 10
18.9229999999999983
 20
-82.0420000000000016
 30
0.0
 11
4.9530000000000012
 21
-82.0420000000000016
 31
0.0
  0
LINE
  5
7A
100
AcDbEntity
  8
Switches
 62
256
370
-1
 48
1.0
  6
ByLayer
100
AcDbLine
 10
4.9530000000000012
 20
-82.0420000000000016
 30
0.0
 11
4.9530000000000012
 21
-68.0720000000000027
 31
0.0
  0
LINE
  5
7B
100
AcDbEntity
  8
Switches
 62
256
370
-1
 48
1.0
  6
ByLayer
100
AcDbLine
 10
18.9229999999999983
 20
-62.9919999999999973
 30
0.0
 11
18.9229999999999983
 21
-49.0220000000000127
 31
0.0
  0
LINE
  5
7C
100
AcDbEntity
  8
Switches
 62
256
370
-1
 48
1.0
  6
ByLayer
100
AcDbLine
 10
18.9229999999999983
 20
-49.0220000000000127
 30
0.0
 11
4.9530000000000012
 21
-49.0220000000000127
 31
0.0
  0
LINE
  5
7D
100
AcDbEntity
  8
Switches
 62
256
370
-1
 48
1.0
  6
ByLayer
100
AcDbLine
 10
18.9229999999999983
 20
-49.0220000000000127
 30
0.0
 11
18.9229999999999983
 21
-62.9919999999999973
 31
0.0
  0
LINE
  5
7E
100
AcDbEntity
  8
Switches
 62
256
370
-1
 48
1.0
  6
ByLayer
100
AcDbLine
 10
18.9229999999999983
 20
-62.9919999999999973
 30
0.0
 11
4.9530000000000012
 21
-62.9919999999999973
 31
0.0
  0
LINE
  5
7F
100
AcDbEntity
  8
Switches
 62
256
370
-1
 48
1.0
  6
ByLayer
100
AcDbLine
 10
4.9530000000000012
 20
-62.9919999999999973
 30
0.0
 11
4.9530000000000012
 21
-49.0220000000000127
 31
0.0
  0
LINE
  5
80
100
AcDbEntity
  8
Switches
 62
256
370
-1
 48
1.0
  6
ByLayer
100
AcDbLine
 10
18.9229999999999983
 20
-43.9419999999999931
 30
0.0
 11
18.9229999999999983
 21
-29.9719999999999906
 31
0.0
  0
LINE
  5
81
100
AcDbEntity
  8
Switches
 62
256
370
-1
 48
1.0
  6
ByLayer
100
AcDbLine
 10
18.9229999999999983
 20
-29.9719999999999906
 30
0.0
 11
4.9530000000000012
 21
-29.9719999999999906
 31
0.0
  0
LINE
  5
82
100
AcDbEntity
  8
Switches
 62
256
370
-1
 48
1.0
  6
ByLayer
100
AcDbLine
 10
18.9229999999999983
 20
-29.9719999999999906
 30
0.0
 11
18.9229999999999983
 21
-43.9419999999999931
 31
0.0
  0
LINE
  5
83
100
AcDbEntity
  8
Switches
 62
256
370
-1
 48
1.0
  6
ByLayer
100
AcDbLine
 10
18.9229999999999983
 20
-43.9419999999999931
 30
0.0
 11
4.9530000000000012
 21
-43.9419999999999931
 31
0.0
  0
LINE
  5
84
100
AcDbEntity
  8
Switches
 62
256
370
-1
 48
1.0
  6
ByLayer
100
AcDbLine
 10
4.9530000000000012
 20
-43.9419999999999931
 30
0.0
 11
4.9530000000000012
 21
-29.9719999999999906
 31
0.0
  0
LINE
  5
85
100
AcDbEntity
  8
Switches
 62
256
370
-1
 48
1.0
  6
ByLayer
100
AcDbLine
 10
18.9229999999999983
 20
-24.8919999999999995
 30
0.0
 11
18.9229999999999983
 21
-10.9220000000000006
 31
0.0
  0
LINE
  5
86
100
AcDbEntity
  8
Switches
 62
256
370
-1
 48
1.0
  6
ByLayer
100
AcDbLine
 10
18.9229999999999983
 20
-10.9220000000000006
 30
0.0
 11
4.9530000000000012
 21
-10.9220000000000006
 31
0.0
  0
LINE
  5
87
100
AcDbEntity
  8
Switches
 62
256
370
-1
 48
1.0
  6
ByLayer
100
AcDbLine
 10
18.9229999999999983
 20
-10.9220000000000006
 30
0.0
 11
18.9229999999999983
 21
-24.8919999999999995
 31
0.0
  0
LINE
  5
88
100
AcDbEntity
  8
Switches
 62
256
370
-1
 48
1.0
  6
ByLayer
100
AcDbLine
 10
18.9229999999999983
 20
-24.8919999999999995
 30
0.0
 11
4.9530000000000012
 21
-24.8919999999999995
 31
0.0
  0
LINE
  5
89
100
AcDbEntity
  8
Switches
 62
256
370
-1
 48
1.0
  6
ByLayer
100
AcDbLine
 10
4.9530000000000012
 20
-24.8919999999999995
 30
0.0
 11
4.9530000000000012
 21
-10.9220000000000006
 31
0.0
  0
LINE
  5
8A
100
AcDbEntity
  8
Switches
 62
256
370
-1
 48
1.0
  6
ByLayer
100
AcDbLine
 10
151.6546874454342912
 20
-97.9336874454343302
 30
0.0
 11
158.6396874454343049
 21
-85.8353125545657178
 31
0.0
  0
LINE
  5
8B
100
AcDbEntity
  8
Switches
 62
256
370
-1
 48
1.0
  6
ByLayer
100
AcDbLine
 10
158.6396874454343049
 20
-85.8353125545657178
 30
0.0
 11
146.5413125545657067
 21
-78.8503125545657184
 31
0.0
  0
LINE
  5
8C
100
AcDbEntity
  8
Switches
 62
256
370
-1
 48
1.0
  6
ByLayer
100
AcDbLine
 10
158.6396874454343049
 20
-85.8353125545657178
 30
0.0
 11
151.6546874454342912
 21
-97.9336874454343302
 31
0.0
  0
LINE
  5
8D
100
AcDbEntity
  8
Switches
 62
256
370
-1
 48
1.0
  6
ByLayer
100
AcDbLine
 10
151.6546874454342912
 20
-97.9336874454343302
 30
0.0
 11
139.5563125545656931
 21
-90.9486874454343166
 31
0.0
  0
LINE
  5
8E
100
AcDbEntity
  8
Switches
 62
256
370
-1
 48
1.0
  6
ByLayer
100
AcDbLine
 10
139.5563125545656931
 20
-90.9486874454343166
 30
0.0
 11
146.5413125545657067
 21
-78.8503125545657184
 31
0.0
  0
LINE
  5
8F
100
AcDbEntity
  8
Switches
 62
256
370
-1
 48
1.0
  6
ByLayer
100
AcDbLine
 10
78.6130000000000138
 20
-94.1069999999999993
 30
0.0
 11
78.6130000000000138
 21
-80.1370000000000005
 31
0.0
  0
LINE
  5
90
100
AcDbEntity
  8
Switches
 62
256
370
-1
 48
1.0
  6
ByLayer
100
AcDbLine
 10
78.6130000000000138
 20
-80.1370000000000005
 30
0.0
 11
64.6430000000000149
 21
-80.1370000000000005
 31
0.0
  0
LINE
  5
91
100
AcDbEntity
  8
Switches
 62
256
370
-1
 48
1.0
  6
ByLayer
100
AcDbLine
 10
78.6130000000000138
 20
-80.1370000000000005
 30
0.0
 11
78.6130000000000138
 21
-94.1069999999999993
 31
0.0
  0
LINE
  5
92
100
AcDbEntity
  8
Switches
 62
256
370
-1
 48
1.0
  6
ByLayer
100
AcDbLine
 10
78.6130000000000138
 20
-94.1069999999999993
 30
0.0
 11
64.6430000000000149
 21
-94.1069999999999993
 31
0.0
  0
LINE
  5
93
100
AcDbEntity
  8
Switches
 62
256
370
-1
 48
1.0
  6
ByLayer
100
AcDbLine
 10
64.6430000000000149
 20
-94.1069999999999993
 30
0.0
 11
64.6430000000000149
 21
-80.1370000000000005
 31
0.0
  0
LINE
  5
94
100
AcDbEntity
  8
Switches
 62
256
370
-1
 48
1.0
  6
ByLayer
100
AcDbLine
 10
59.5630000000000024
 20
-96.6469999999999914
 30
0.0
 11
59.5630000000000024
 21
-82.6769999999999925
 31
0.0
  0
LINE
  5
95
100
AcDbEntity
  8
Switches
 62
256
370
-1
 48
1.0
  6
ByLayer
100
AcDbLine
 10
59.5630000000000024
 20
-82.6769999999999925
 30
0.0
 11
45.5930000000000035
 21
-82.6769999999999925
 31
0.0
  0
LINE
  5
96
100
AcDbEntity
  8
Switches
 62
256
370
-1
 48
1.0
  6
ByLayer
100
AcDbLine
 10
59.5630000000000024
 20
-82.6769999999999925
 30
0.0
 11
59.5630000000000024
 21
-96.6469999999999914
 31
0.0
  0
LINE
  5
97
100
AcDbEntity
  8
Switches
 62
256
370
-1
 48
1.0
  6
ByLayer
100
AcDbLine
 10
59.5630000000000024
 20
-96.6469999999999914
 30
0.0
 11
45.5930000000000035
 21
-96.6469999999999914
 31
0.0
  0
LINE
  5
98
100
AcDbEntity
  8
Switches
 62
256
370
-1
 48
1.0
  6
ByLayer
100
AcDbLine
 10
45.5930000000000035
 20
-96.6469999999999914
 30
0.0
 11
45.5930000000000035
 21
-82.6769999999999925
 31
0.0
  0
LINE
  5
99
100
AcDbEntity
  8
Switches
 62
256
370
-1
 48
1.0
  6
ByLayer
100
AcDbLine
 10
40.5130000000000123
 20
-101.0919999999999987
 30
0.0
 11
40.5130000000000123
 21
-87.1219999999999857
 31
0.0
  0
LINE
  5
9A
100
AcDbEntity
  8
Switches
 62
256
370
-1
 48
1.0
  6
ByLayer
100
AcDbLine
 10
40.5130000000000123
 20
-87.1219999999999857
 30
0.0
 11
26.5430000000000099
 21
-87.1219999999999857
 31
0.0
  0
LINE
  5
9B
100
AcDbEntity
  8
Switches
 62
256
370
-1
 48
1.0
  6
ByLayer
100
AcDbLine
 10
40.5130000000000123
 20
-87.1219999999999857
 30
0.0
 11
40.5130000000000123
 21
-101.0919999999999987
 31
0.0
  0
LINE
  5
9C
100
AcDbEntity
  8
Switches
 62
256
370
-1
 48
1.0
  6
ByLayer
100
AcDbLine
 10
40.5130000000000123
 20
-101.0919999999999987
 30
0.0
 11
26.5430000000000099
 21
-101.0919999999999987
 31
0.0
  0
LINE
  5
9D
100
AcDbEntity
  8
Switches
 62
256
370
-1
 48
1.0
  6
ByLayer
100
AcDbLine
 10
26.5430000000000099
 20
-101.0919999999999987
 30
0.0
 11
26.5430000000000099
 21
-87.1219999999999857
 31
0.0
  0
LINE
  5
9E
100
AcDbEntity
  8
Switches
 62
256
370
-1
 48
1.0
  6
ByLayer
100
AcDbLine
 10
21.4630000000000116
 20
-101.0919999999999987
 30
0.0
 11
21.4630000000000116
 21
-87.1219999999999857
 31
0.0
  0
LINE
  5
9F
100
AcDbEntity
  8
Switches
 62
256
370
-1
 48
1.0
  6
ByLayer
100
AcDbLine
 10
21.4630000000000116
 20
-87.1219999999999857
 30
0.0
 11
7.4930000000000074
 21
-87.1219999999999857
 31
0.0
  0
LINE
  5
A0
100
AcDbEntity
  8
Switches
 62
256
370
-1
 48
1.0
  6
ByLayer
100
AcDbLine
 10
21.4630000000000116
 20
-87.1219999999999857
 30
0.0
 11
21.4630000000000116
 21
-101.0919999999999987
 31
0.0
  0
LINE
  5
A1
100
AcDbEntity
  8
Switches
 62
256
370
-1
 48
1.0
  6
ByLayer
100
AcDbLine
 10
21.4630000000000116
 20
-101.0919999999999987
 30
0.0
 11
7.4930000000000074
 21
-101.0919999999999987
 31
0.0
  0
LINE
  5
A2
100
AcDbEntity
  8
Switches
 62
256
370
-1
 48
1.0
  6
ByLayer
100
AcDbLine
 10
7.4930000000000074
 20
-101.0919999999999987
 30
0.0
 11
7.4930000000000074
 21
-87.1219999999999857
 31
0.0
  0
LINE
  5
A3
100
AcDbEntity
  8
Switches
 62
256
370
-1
 48
1.0
  6
ByLayer
100
AcDbLine
 10
116.7129999999999939
 20
-79.5020000000000095
 30
0.0
 11
116.7129999999999939
 21
-65.5319999999999823
 31
0.0
  0
LINE
  5
A4
100
AcDbEntity
  8
Switches
 62
256
370
-1
 48
1.0
  6
ByLayer
100
AcDbLine
 10
116.7129999999999939
 20
-65.5319999999999823
 30
0.0
 11
102.742999999999995
 21
-65.5319999999999823
 31
0.0
  0
LINE
  5
A5
100
AcDbEntity
  8
Switches
 62
256
370
-1
 48
1.0
  6
ByLayer
100
AcDbLine
 10
116.7129999999999939
 20
-65.5319999999999823
 30
0.0
 11
116.7129999999999939
 21
-79.5020000000000095
 31
0.0
  0
LINE
  5
A6
100
AcDbEntity
  8
Switches
 62
256
370
-1
 48
1.0
  6
ByLayer
100
AcDbLine
 10
116.7129999999999939
 20
-79.5020000000000095
 30
0.0
 11
102.742999999999995
 21
-79.5020000000000095
 31
0.0
  0
LINE
  5
A7
100
AcDbEntity
  8
Switches
 62
256
370
-1
 48
1.0
  6
ByLayer
100
AcDbLine
 10
102.742999999999995
 20
-79.5020000000000095
 30
0.0
 11
102.742999999999995
 21
-65.5319999999999823
 31
0.0
  0
LINE
  5
A8
100
AcDbEntity
  8
Switches
 62
256
370
-1
 48
1.0
  6
ByLayer
100
AcDbLine
 10
97.6629999999999967
 20
-77.59699999999998
 30
0.0
 11
97.6629999999999967
 21
-63.6270000000000024
 31
0.0
  0
LINE
  5
A9
100
AcDbEntity
  8
Switches
 62
256
370
-1
 48
1.0
  6
ByLayer
100
AcDbLine
 10
97.6629999999999967
 20
-63.6270000000000024
 30
0.0
 11
83.6929999999999978
 21
-63.6270000000000024
 31
0.0
  0
LINE
  5
AA
100
AcDbEntity
  8
Switches
 62
256
370
-1
 48
1.0
  6
ByLayer
100
AcDbLine
 10
97.6629999999999967
 20
-63.6270000000000024
 30
0.0
 11
97.6629999999999967
 21
-77.59699999999998
 31
0.0
  0
LINE
  5
AB
100
AcDbEntity
  8
Switches
 62
256
370
-1
 48
1.0
  6
ByLayer
100
AcDbLine
 10
97.6629999999999967
 20
-77.59699999999998
 30
0.0
 11
83.6929999999999978
 21
-77.59699999999998
 31
0.0
  0
LINE
  5
AC
100
AcDbEntity
  8
Switches
 62
256
370
-1
 48
1.0
  6
ByLayer
100
AcDbLine
 10
83.6929999999999978
 20
-77.59699999999998
 30
0.0
 11
83.6929999999999978
 21
-63.6270000000000024
 31
0.0
  0
LINE
  5
AD
100
AcDbEntity
  8
Switches
 62
256
370
-1
 48
1.0
  6
ByLayer
100
AcDbLine
 10
78.6130000000000138
 20
-75.0569999999999879
 30
0.0
 11
78.6130000000000138
 21
-61.0870000000000033
 31
0.0
  0
LINE
  5
AE
100
AcDbEntity
  8
Switches
 62
256
370
-1
 48
1.0
  6
ByLayer
100
AcDbLine
 10
78.6130000000000138
 20
-61.0870000000000033
 30
0.0
 11
64.6430000000000149
 21
-61.0870000000000033
 31
0.0
  0
LINE
  5
AF
100
AcDbEntity
  8
Switches
 62
256
370
-1
 48
1.0
  6
ByLayer
100
AcDbLine
 10
78.6130000000000138
 20
-61.0870000000000033
 30
0.0
 11
78.6130000000000138
 21
-75.0569999999999879
 31
0.0
  0
LINE
  5
B0
100
AcDbEntity
  8
Switches
 62
256
370
-1
 48
1.0
  6
ByLayer
100
AcDbLine
 10
78.6130000000000138
 20
-75.0569999999999879
 30
0.0
 11
64.6430000000000149
 21
-75.0569999999999879
 31
0.0
  0
LINE
  5
B1
100
AcDbEntity
  8
Switches
 62
256
370
-1
 48
1.0
  6
ByLayer
100
AcDbLine
 10
64.6430000000000149
 20
-75.0569999999999879
 30
0.0
 11
64.6430000000000149
 21
-61.0870000000000033
 31
0.0
  0
LINE
  5
B2
100
AcDbEntity
  8
Switches
 62
256
370
-1
 48
1.0
  6
ByLayer
100
AcDbLine
 10
59.5630000000000024
 20
-77.59699999999998
 30
0.0
 11
59.5630000000000024
 21
-63.6270000000000024
 31
0.0
  0
LINE
  5
B3
100
AcDbEntity
  8
Switches
 62
256
370
-1
 48
1.0
  6
ByLayer
100
AcDbLine
 10
59.5630000000000024
 20
-63.6270000000000024
 30
0.0
 11
45.5930000000000035
 21
-63.6270000000000024
 31
0.0
  0
LINE
  5
B4
100
AcDbEntity
  8
Switches
 62
256
370
-1
 48
1.0
  6
ByLayer
100
AcDbLine
 10
59.5630000000000024
 20
-63.6270000000000024
 30
0.0
 11
59.5630000000000024
 21
-77.59699999999998
 31
0.0
  0
LINE
  5
B5
100
AcDbEntity
  8
Switches
 62
256
370
-1
 48
1.0
  6
ByLayer
100
AcDbLine
 10
59.5630000000000024
 20
-77.59699999999998
 30
0.0
 11
45.5930000000000035
 21
-77.59699999999998
 31
0.0
  0
LINE
  5
B6
100
AcDbEntity
  8
Switches
 62
256
370
-1
 48
1.0
  6
ByLayer
100
AcDbLine
 10
45.5930000000000035
 20
-77.59699999999998
 30
0.0
 11
45.5930000000000035
 21
-63.6270000000000024
 31
0.0
  0
LINE
  5
B7
100
AcDbEntity
  8
Switches
 62
256
370
-1
 48
1.0
  6
ByLayer
100
AcDbLine
 10
40.5130000000000123
 20
-82.0420000000000016
 30
0.0
 11
40.5130000000000123
 21
-68.0720000000000027
 31
0.0
  0
LINE
  5
B8
100
AcDbEntity
  8
Switches
 62
256
370
-1
 48
1.0
  6
ByLayer
100
AcDbLine
 10
40.5130000000000123
 20
-68.0720000000000027
 30
0.0
 11
26.5430000000000099
 21
-68.0720000000000027
 31
0.0
  0
LINE
  5
B9
100
AcDbEntity
  8
Switches
 62
256
370
-1
 48
1.0
  6
ByLayer
100
AcDbLine
 10
40.5130000000000123
 20
-68.0720000000000027
 30
0.0
 11
40.5130000000000123
 21
-82.0420000000000016
 31
0.0
  0
LINE
  5
BA
100
AcDbEntity
  8
Switches
 62
256
370
-1
 48
1.0
  6
ByLayer
100
AcDbLine
 10
40.5130000000000123
 20
-82.0420000000000016
 30
0.0
 11
26.5430000000000099
 21
-82.0420000000000016
 31
0.0
  0
LINE
  5
BB
100
AcDbEntity
  8
Switches
 62
256
370
-1
 48
1.0
  6
ByLayer
100
AcDbLine
 10
26.5430000000000099
 20
-82.0420000000000016
 30
0.0
 11
26.5430000000000099
 21
-68.0720000000000027
 31
0.0
  0
LINE
  5
BC
100
AcDbEntity
  8
Switches
 62
256
370
-1
 48
1.0
  6
ByLayer
100
AcDbLine
 10
135.1446874454343003
 20
-88.4086874454343246
 30
0.0
 11
142.129687445434314
 21
-76.3103125545657122
 31
0.0
  0
LINE
  5
BD
100
AcDbEntity
  8
Switches
 62
256
370
-1
 48
1.0
  6
ByLayer
100
AcDbLine
 10
142.129687445434314
 20
-76.3103125545657122
 30
0.0
 11
130.0313125545656874
 21
-69.3253125545656985
 31
0.0
  0
LINE
  5
BE
100
AcDbEntity
  8
Switches
 62
256
370
-1
 48
1.0
  6
ByLayer
100
AcDbLine
 10
142.129687445434314
 20
-76.3103125545657122
 30
0.0
 11
135.1446874454343003
 21
-88.4086874454343246
 31
0.0
  0
LINE
  5
BF
100
AcDbEntity
  8
Switches
 62
256
370
-1
 48
1.0
  6
ByLayer
100
AcDbLine
 10
135.1446874454343003
 20
-88.4086874454343246
 30
0.0
 11
123.0463125545657022
 21
-81.4236874454343109
 31
0.0
  0
LINE
  5
C0
100
AcDbEntity
  8
Switches
 62
256
370
-1
 48
1.0
  6
ByLayer
100
AcDbLine
 10
123.0463125545657022
 20
-81.4236874454343109
 30
0.0
 11
130.0313125545656874
 21
-69.3253125545656985
 31
0.0
  0
LINE
  5
C1
100
AcDbEntity
  8
Switches
 62
256
370
-1
 48
1.0
  6
ByLayer
100
AcDbLine
 10
116.7129999999999939
 20
-60.4519999999999982
 30
0.0
 11
116.7129999999999939
 21
-46.4819999999999993
 31
0.0
  0
LINE
  5
C2
100
AcDbEntity
  8
Switches
 62
256
370
-1
 48
1.0
  6
ByLayer
100
AcDbLine
 10
116.7129999999999939
 20
-46.4819999999999993
 30
0.0
 11
102.742999999999995
 21
-46.4819999999999993
 31
0.0
  0
LINE
  5
C3
100
AcDbEntity
  8
Switches
 62
256
370
-1
 48
1.0
  6
ByLayer
100
AcDbLine
 10
116.7129999999999939
 20
-46.4819999999999993
 30
0.0
 11
116.7129999999999939
 21
-60.4519999999999982
 31
0.0
  0
LINE
  5
C4
100
AcDbEntity
  8
Switches
 62
256
370
-1
 48
1.0
  6
ByLayer
100
AcDbLine
 10
116.7129999999999939
 20
-60.4519999999999982
 30
0.0
 11
102.742999999999995
 21
-60.4519999999999982
 31
0.0
  0
LINE
  5
C5
100
AcDbEntity
  8
Switches
 62
256
370
-1
 48
1.0
  6
ByLayer
100
AcDbLine
 10
102.742999999999995
 20
-60.4519999999999982
 30
0.0
 11
102.742999999999995
 21
-46.4819999999999993
 31
0.0
  0
LINE
  5
C6
100
AcDbEntity
  8
Switches
 62
256
370
-1
 48
1.0
  6
ByLayer
100
AcDbLine
 10
97.6629999999999967
 20
-58.546999999999997
 30
0.0
 11
97.6629999999999967
 21
-44.5769999999999982
 31
0.0
  0
LINE
  5
C7
100
AcDbEntity
  8
Switches
 62
256
370
-1
 48
1.0
  6
ByLayer
100
AcDbLine
 10
97.6629999999999967
 20
-44.5769999999999982
 30
0.0
 11
83.6929999999999978
 21
-44.5769999999999982
 31
0.0
  0
LINE
  5
C8
100
AcDbEntity
  8
Switches
 62
256
370
-1
 48
1.0
  6
ByLayer
100
AcDbLine
 10
97.6629999999999967
 20
-44.5769999999999982
 30
0.0
 11
97.6629999999999967
 21
-58.546999999999997
 31
0.0
  0
LINE
  5
C9
100
AcDbEntity
  8
Switches
 62
256
370
-1
 48
1.0
  6
ByLayer
100
AcDbLine
 10
97.6629999999999967
 20
-58.546999999999997
 30
0.0
 11
83.6929999999999978
 21
-58.546999999999997
 31
0.0
  0
LINE
  5
CA
100
AcDbEntity
  8
Switches
 62
256
370
-1
 48
1.0
  6
ByLayer
100
AcDbLine
 10
83.6929999999999978
 20
-58.546999999999997
 30
0.0
 11
83.6929999999999978
 21
-44.5769999999999982
 31
0.0
  0
LINE
  5
CB
100
AcDbEntity
  8
Switches
 62
256
370
-1
 48
1.0
  6
ByLayer
100
AcDbLine
 10
78.6130000000000138
 20
-56.0070000000000121
 30
0.0
 11
78.6130000000000138
 21
-42.0370000000000132
 31
0.0
  0
LINE
  5
CC
100
AcDbEntity
  8
Switches
 62
256
370
-1
 48
1.0
  6
ByLayer
100
AcDbLine
 10
78.6130000000000138
 20
-42.0370000000000132
 30
0.0
 11
64.6430000000000149
 21
-42.0370000000000132
 31
0.0
  0
LINE
  5
CD
100
AcDbEntity
  8
Switches
 62
256
370
-1
 48
1.0
  6
ByLayer
100
AcDbLine
 10
78.6130000000000138
 20
-42.0370000000000132
 30
0.0
 11
78.6130000000000138
 21
-56.0070000000000121
 31
0.0
  0
LINE
  5
CE
100
AcDbEntity
  8
Switches
 62
256
370
-1
 48
1.0
  6
ByLayer
100
AcDbLine
 10
78.6130000000000138
 20
-56.0070000000000121
 30
0.0
 11
64.6430000000000149
 21
-56.0070000000000121
 31
0.0
  0
LINE
  5
CF
100
AcDbEntity
  8
Switches
 62
256
370
-1
 48
1.0
  6
ByLayer
100
AcDbLine
 10
64.6430000000000149
 20
-56.0070000000000121
 30
0.0
 11
64.6430000000000149
 21
-42.0370000000000132
 31
0.0
  0
LINE
  5
D0
100
AcDbEntity
  8
Switches
 62
256
370
-1
 48
1.0
  6
ByLayer
100
AcDbLine
 10
59.5630000000000024
 20
-58.546999999999997
 30
0.0
 11
59.5630000000000024
 21
-44.5769999999999982
 31
0.0
  0
LINE
  5
D1
100
AcDbEntity
  8
Switches
 62
256
370
-1
 48
1.0
  6
ByLayer
100
AcDbLine
 10
59.5630000000000024
 20
-44.5769999999999982
 30
0.0
 11
45.5930000000000035
 21
-44.5769999999999982
 31
0.0
  0
LINE
  5
D2
100
AcDbEntity
  8
Switches
 62
256
370
-1
 48
1.0
  6
ByLayer
100
AcDbLine
 10
59.5630000000000024
 20
-44.5769999999999982
 30
0.0
 11
59.5630000000000024
 21
-58.546999999999997
 31
0.0
  0
LINE
  5
D3
100
AcDbEntity
  8
Switches
 62
256
370
-1
 48
1.0
  6
ByLayer
100
AcDbLine
 10
59.5630000000000024
 20
-58.546999999999997
 30
0.0
 11
45.5930000000000035
 21
-58.546999999999997
 31
0.0
  0
LINE
  5
D4
100
AcDbEntity
  8
Switches
 62
256
370
-1
 48
1.0
  6
ByLayer
100
AcDbLine
 10
45.5930000000000035
 20
-58.546999999999997
 30
0.0
 11
45.5930000000000035
 21
-44.5769999999999982
 31
0.0
  0
LINE
  5
D5
100
AcDbEntity
  8
Switches
 62
256
370
-1
 48
1.0
  6
ByLayer
100
AcDbLine
 10
40.5130000000000123
 20
-62.9919999999999973
 30
0.0
 11
40.5130000000000123
 21
-49.0220000000000127
 31
0.0
  0
LINE
  5
D6
100
AcDbEntity
  8
Switches
 62
256
370
-1
 48
1.0
  6
ByLayer
100
AcDbLine
 10
40.5130000000000123
 20
-49.0220000000000127
 30
0.0
 11
26.5430000000000099
 21
-49.0220000000000127
 31
0.0
  0
LINE
  5
D7
100
AcDbEntity
  8
Switches
 62
256
370
-1
 48
1.0
  6
ByLayer
100
AcDbLine
 10
40.5130000000000123
 20
-49.0220000000000127
 30
0.0
 11
40.5130000000000123
 21
-62.9919999999999973
 31
0.0
  0
LINE
  5
D8
100
AcDbEntity
  8
Switches
 62
256
370
-1
 48
1.0
  6
ByLayer
100
AcDbLine
 10
40.5130000000000123
 20
-62.9919999999999973
 30
0.0
 11
26.5430000000000099
 21
-62.9919999999999973
 31
0.0
  0
LINE
  5
D9
100
AcDbEntity
  8
Switches
 62
256
370
-1
 48
1.0
  6
ByLayer
100
AcDbLine
 10
26.5430000000000099
 20
-62.9919999999999973
 30
0.0
 11
26.5430000000000099
 21
-49.0220000000000127
 31
0.0
  0
LINE
  5
DA
100
AcDbEntity
  8
Switches
 62
256
370
-1
 48
1.0
  6
ByLayer
100
AcDbLine
 10
116.7129999999999939
 20
-41.402000000000001
 30
0.0
 11
116.7129999999999939
 21
-27.4319999999999986
 31
0.0
  0
LINE
  5
DB
100
AcDbEntity
  8
Switches
 62
256
370
-1
 48
1.0
  6
ByLayer
100
AcDbLine
 10
116.7129999999999939
 20
-27.4319999999999986
 30
0.0
 11
102.742999999999995
 21
-27.4319999999999986
 31
0.0
  0
LINE
  5
DC
100
AcDbEntity
  8
Switches
 62
256
370
-1
 48
1.0
  6
ByLayer
100
AcDbLine
 10
116.7129999999999939
 20
-27.4319999999999986
 30
0.0
 11
116.7129999999999939
 21
-41.402000000000001
 31
0.0
  0
LINE
  5
DD
100
AcDbEntity
  8
Switches
 62
256
370
-1
 48
1.0
  6
ByLayer
100
AcDbLine
 10
116.7129999999999939
 20
-41.402000000000001
 30
0.0
 11
102.742999999999995
 21
-41.402000000000001
 31
0.0
  0
LINE
  5
DE
100
AcDbEntity
  8
Switches
 62
256
370
-1
 48
1.0
  6
ByLayer
100
AcDbLine
 10
102.742999999999995
 20
-41.402000000000001
 30
0.0
 11
102.742999999999995
 21
-27.4319999999999986
 31
0.0
  0
LINE
  5
DF
100
AcDbEntity
  8
Switches
 62
256
370
-1
 48
1.0
  6
ByLayer
100
AcDbLine
 10
97.6629999999999967
 20
-39.4969999999999999
 30
0.0
 11
97.6629999999999967
 21
-25.527000000000001
 31
0.0
  0
LINE
  5
E0
100
AcDbEntity
  8
Switches
 62
256
370
-1
 48
1.0
  6
ByLayer
100
AcDbLine
 10
97.6629999999999967
 20
-25.527000000000001
 30
0.0
 11
83.6929999999999978
 21
-25.527000000000001
 31
0.0
  0
LINE
  5
E1
100
AcDbEntity
  8
Switches
 62
256
370
-1
 48
1.0
  6
ByLayer
100
AcDbLine
 10
97.6629999999999967
 20
-25.527000000000001
 30
0.0
 11
97.6629999999999967
 21
-39.4969999999999999
 31
0.0
  0
LINE
  5
E2
100
AcDbEntity
  8
Switches
 62
256
370
-1
 48
1.0
  6
ByLayer
100
AcDbLine
 10
97.6629999999999967
 20
-39.4969999999999999
 30
0.0
 11
83.6929999999999978
 21
-39.4969999999999999
 31
0.0
  0
LINE
  5
E3
100
AcDbEntity
  8
Switches
 62
256
370
-1
 48
1.0
  6
ByLayer
100
AcDbLine
 10
83.6929999999999978
 20
-39.4969999999999999
 30
0.0
 11
83.6929999999999978
 21
-25.527000000000001
 31
0.0
  0
LINE
  5
E4
100
AcDbEntity
  8
Switches
 62
256
370
-1
 48
1.0
  6
ByLayer
100
AcDbLine
 10
78.6130000000000138
 20
-36.9569999999999865
 30
0.0
 11
78.6130000000000138
 21
-22.9869999999999912
 31
0.0
  0
LINE
  5
E5
100
AcDbEntity
  8
Switches
 62
256
370
-1
 48
1.0
  6
ByLayer
100
AcDbLine
 10
78.6130000000000138
 20
-22.9869999999999912
 30
0.0
 11
64.6430000000000149
 21
-22.9869999999999912
 31
0.0
  0
LINE
  5
E6
100
AcDbEntity
  8
Switches
 62
256
370
-1
 48
1.0
  6
ByLayer
100
AcDbLine
 10
78.6130000000000138
 20
-22.9869999999999912
 30
0.0
 11
78.6130000000000138
 21
-36.9569999999999865
 31
0.0
  0
LINE
  5
E7
100
AcDbEntity
  8
Switches
 62
256
370
-1
 48
1.0
  6
ByLayer
100
AcDbLine
 10
78.6130000000000138
 20
-36.9569999999999865
 30
0.0
 11
64.6430000000000149
 21
-36.9569999999999865
 31
0.0
  0
LINE
  5
E8
100
AcDbEntity
  8
Switches
 62
256
370
-1
 48
1.0
  6
ByLayer
100
AcDbLine
 10
64.6430000000000149
 20
-36.9569999999999865
 30
0.0
 11
64.6430000000000149
 21
-22.9869999999999912
 31
0.0
  0
LINE
  5
E9
100
AcDbEntity
  8
Switches
 62
256
370
-1
 48
1.0
  6
ByLayer
100
AcDbLine
 10
59.5630000000000024
 20
-39.4969999999999999
 30
0.0
 11
59.5630000000000024
 21
-25.527000000000001
 31
0.0
  0
LINE
  5
EA
100
AcDbEntity
  8
Switches
 62
256
370
-1
 48
1.0
  6
ByLayer
100
AcDbLine
 10
59.5630000000000024
 20
-25.527000000000001
 30
0.0
 11
45.5930000000000035
 21
-25.527000000000001
 31
0.0
  0
LINE
  5
EB
100
AcDbEntity
  8
Switches
 62
256
370
-1
 48
1.0
  6
ByLayer
100
AcDbLine
 10
59.5630000000000024
 20
-25.527000000000001
 30
0.0
 11
59.5630000000000024
 21
-39.4969999999999999
 31
0.0
  0
LINE
  5
EC
100
AcDbEntity
  8
Switches
 62
256
370
-1
 48
1.0
  6
ByLayer
100
AcDbLine
 10
59.5630000000000024
 20
-39.4969999999999999
 30
0.0
 11
45.5930000000000035
 21
-39.4969999999999999
 31
0.0
  0
LINE
  5
ED
100
AcDbEntity
  8
Switches
 62
256
370
-1
 48
1.0
  6
ByLayer
100
AcDbLine
 10
45.5930000000000035
 20
-39.4969999999999999
 30
0.0
 11
45.5930000000000035
 21
-25.527000000000001
 31
0.0
  0
LINE
  5
EE
100
AcDbEntity
  8
Switches
 62
256
370
-1
 48
1.0
  6
ByLayer
100
AcDbLine
 10
40.5130000000000123
 20
-43.9419999999999931
 30
0.0
 11
40.5130000000000123
 21
-29.9719999999999906
 31
0.0
  0
LINE
  5
EF
100
AcDbEntity
  8
Switches
 62
256
370
-1
 48
1.0
  6
ByLayer
100
AcDbLine
 10
40.5130000000000123
 20
-29.9719999999999906
 30
0.0
 11
26.5430000000000099
 21
-29.9719999999999906
 31
0.0
  0
LINE
  5
F0
100
AcDbEntity
  8
Switches
 62
256
370
-1
 48
1.0
  6
ByLayer
100
AcDbLine
 10
40.5130000000000123
 20
-29.9719999999999906
 30
0.0
 11
40.5130000000000123
 21
-43.9419999999999931
 31
0.0
  0
LINE
  5
F1
100
AcDbEntity
  8
Switches
 62
256
370
-1
 48
1.0
  6
ByLayer
100
AcDbLine
 10
40.5130000000000123
 20
-43.9419999999999931
 30
0.0
 11
26.5430000000000099
 21
-43.9419999999999931
 31
0.0
  0
LINE
  5
F2
100
AcDbEntity
  8
Switches
 62
256
370
-1
 48
1.0
  6
ByLayer
100
AcDbLine
 10
26.5430000000000099
 20
-43.9419999999999931
 30
0.0
 11
26.5430000000000099
 21
-29.9719999999999906
 31
0.0
  0
LINE
  5
F3
100
AcDbEntity
  8
Switches
 62
256
370
-1
 48
1.0
  6
ByLayer
100
AcDbLine
 10
135.7630000000000052
 20
-31.8769999999999989
 30
0.0
 11
135.7630000000000052
 21
-17.907
 31
0.0
  0
LINE
  5
F4
100
AcDbEntity
  8
Switches
 62
256
370
-1
 48
1.0
  6
ByLayer
100
AcDbLine
 10
135.7630000000000052
 20
-17.907
 30
0.0
 11
121.7930000000000064
 21
-17.907
 31
0.0
  0
LINE
  5
F5
100
AcDbEntity
  8
Switches
 62
256
370
-1
 48
1.0
  6
ByLayer
100
AcDbLine
 10
135.7630000000000052
 20
-17.907
 30
0.0
 11
135.7630000000000052
 21
-31.8769999999999989
 31
0.0
  0
LINE
  5
F6
100
AcDbEntity
  8
Switches
 62
256
370
-1
 48
1.0
  6
ByLayer
100
AcDbLine
 10
135.7630000000000052
 20
-31.8769999999999989
 30
0.0
 11
121.7930000000000064
 21
-31.8769999999999989
 31
0.0
  0
LINE
  5
F7
100
AcDbEntity
  8
Switches
 62
256
370
-1
 48
1.0
  6
ByLayer
100
AcDbLine
 10
121.7930000000000064
 20
-31.8769999999999989
 30
0.0
 11
121.7930000000000064
 21
-17.907
 31
0.0
  0
LINE
  5
F8
100
AcDbEntity
  8
Switches
 62
256
370
-1
 48
1.0
  6
ByLayer
100
AcDbLine
 10
116.7129999999999939
 20
-22.3520000000000003
 30
0.0
 11
116.7129999999999939
 21
-8.3819999999999979
 31
0.0
  0
LINE
  5
F9
100
AcDbEntity
  8
Switches
 62
256
370
-1
 48
1.0
  6
ByLayer
100
AcDbLine
 10
116.7129999999999939
 20
-8.3819999999999979
 30
0.0
 11
102.742999999999995
 21
-8.3819999999999979
 31
0.0
  0
LINE
  5
FA
100
AcDbEntity
  8
Switches
 62
256
370
-1
 48
1.0
  6
ByLayer
100
AcDbLine
 10
116.7129999999999939
 20
-8.3819999999999979
 30
0.0
 11
116.7129999999999939
 21
-22.3520000000000003
 31
0.0
  0
LINE
  5
FB
100
AcDbEntity
  8
Switches
 62
256
370
-1
 48
1.0
  6
ByLayer
100
AcDbLine
 10
116.7129999999999939
 20
-22.3520000000000003
 30
0.0
 11
102.742999999999995
 21
-22.3520000000000003
 31
0.0
  0
LINE
  5
FC
100
AcDbEntity
  8
Switches
 62
256
370
-1
 48
1.0
  6
ByLayer
100
AcDbLine
 10
102.742999999999995
 20
-22.3520000000000003
 30
0.0
 11
102.742999999999995
 21
-8.3819999999999979
 31
0.0
  0
LINE
  5
FD
100
AcDbEntity
  8
Switches
 62
256
370
-1
 48
1.0
  6
ByLayer
100
AcDbLine
 10
97.6629999999999967
 20
-20.4469999999999992
 30
0.0
 11
97.6629999999999967
 21
-6.4769999999999968
 31
0.0
  0
LINE
  5
FE
100
AcDbEntity
  8
Switches
 62
256
370
-1
 48
1.0
  6
ByLayer
100
AcDbLine
 10
97.6629999999999967
 20
-6.4769999999999968
 30
0.0
 11
83.6929999999999978
 21
-6.4769999999999968
 31
0.0
  0
LINE
  5
FF
100
AcDbEntity
  8
Switches
 62
256
370
-1
 48
1.0
  6
ByLayer
100
AcDbLine
 10
97.6629999999999967
 20
-6.4769999999999968
 30
0.0
 11
97.6629999999999967
 21
-20.4469999999999992
 31
0.0
  0
LINE
  5
100
100
AcDbEntity
  8
Switches
 62
256
370
-1
 48
1.0
  6
ByLayer
100
AcDbLine
 10
97.6629999999999967
 20
-20.4469999999999992
 30
0.0
 11
83.6929999999999978
 21
-20.4469999999999992
 31
0.0
  0
LINE
  5
101
100
AcDbEntity
  8
Switches
 62
256
370
-1
 48
1.0
  6
ByLayer
100
AcDbLine
 10
83.6929999999999978
 20
-20.4469999999999992
 30
0.0
 11
83.6929999999999978
 21
-6.4769999999999968
 31
0.0
  0
LINE
  5
102
100
AcDbEntity
  8
Switches
 62
256
370
-1
 48
1.0
  6
ByLayer
100
AcDbLine
 10
78.6130000000000138
 20
-17.907
 30
0.0
 11
78.6130000000000138
 21
-3.9369999999999981
 31
0.0
  0
LINE
  5
103
100
AcDbEntity
  8
Switches
 62
256
370
-1
 48
1.0
  6
ByLayer
100
AcDbLine
 10
78.6130000000000138
 20
-3.9369999999999981
 30
0.0
 11
64.6430000000000149
 21
-3.9369999999999981
 31
0.0
  0
LINE
  5
104
100
AcDbEntity
  8
Switches
 62
256
370
-1
 48
1.0
  6
ByLayer
100
AcDbLine
 10
78.6130000000000138
 20
-3.9369999999999981
 30
0.0
 11
78.6130000000000138
 21
-17.907
 31
0.0
  0
LINE
  5
105
100
AcDbEntity
  8
Switches
 62
256
370
-1
 48
1.0
  6
ByLayer
100
AcDbLine
 10
78.6130000000000138
 20
-17.907
 30
0.0
 11
64.6430000000000149
 21
-17.907
 31
0.0
  0
LINE
  5
106
100
AcDbEntity
  8
Switches
 62
256
370
-1
 48
1.0
  6
ByLayer
100
AcDbLine
 10
64.6430000000000149
 20
-17.907
 30
0.0
 11
64.6430000000000149
 21
-3.9369999999999981
 31
0.0
  0
LINE
  5
107
100
AcDbEntity
  8
Switches
 62
256
370
-1
 48
1.0
  6
ByLayer
100
AcDbLine
 10
59.5630000000000024
 20
-20.4469999999999992
 30
0.0
 11
59.5630000000000024
 21
-6.4769999999999968
 31
0.0
  0
LINE
  5
108
100
AcDbEntity
  8
Switches
 62
256
370
-1
 48
1.0
  6
ByLayer
100
AcDbLine
 10
59.5630000000000024
 20
-6.4769999999999968
 30
0.0
 11
45.5930000000000035
 21
-6.4769999999999968
 31
0.0
  0
LINE
  5
109
100
AcDbEntity
  8
Switches
 62
256
370
-1
 48
1.0
  6
ByLayer
100
AcDbLine
 10
59.5630000000000024
 20
-6.4769999999999968
 30
0.0
 11
59.5630000000000024
 21
-20.4469999999999992
 31
0.0
  0
LINE
  5
10A
100
AcDbEntity
  8
Switches
 62
256
370
-1
 48
1.0
  6
ByLayer
100
AcDbLine
 10
59.5630000000000024
 20
-20.4469999999999992
 30
0.0
 11
45.5930000000000035
 21
-20.4469999999999992
 31
0.0
  0
LINE
  5
10B
100
AcDbEntity
  8
Switches
 62
256
370
-1
 48
1.0
  6
ByLayer
100
AcDbLine
 10
45.5930000000000035
 20
-20.4469999999999992
 30
0.0
 11
45.5930000000000035
 21
-6.4769999999999968
 31
0.0
  0
LINE
  5
10C
100
AcDbEntity
  8
Switches
 62
256
370
-1
 48
1.0
  6
ByLayer
100
AcDbLine
 10
40.5130000000000123
 20
-24.8919999999999995
 30
0.0
 11
40.5130000000000123
 21
-10.9220000000000006
 31
0.0
  0
LINE
  5
10D
100
AcDbEntity
  8
Switches
 62
256
370
-1
 48
1.0
  6
ByLayer
100
AcDbLine
 10
40.5130000000000123
 20
-10.9220000000000006
 30
0.0
 11
26.5430000000000099
 21
-10.9220000000000006
 31
0.0
  0
LINE
  5
10E
100
AcDbEntity
  8
Switches
 62
256
370
-1
 48
1.0
  6
ByLayer
100
AcDbLine
 10
40.5130000000000123
 20
-10.9220000000000006
 30
0.0
 11
40.5130000000000123
 21
-24.8919999999999995
 31
0.0
  0
LINE
  5
10F
100
AcDbEntity
  8
Switches
 62
256
370
-1
 48
1.0
  6
ByLayer
100
AcDbLine
 10
40.5130000000000123
 20
-24.8919999999999995
 30
0.0
 11
26.5430000000000099
 21
-24.8919999999999995
 31
0.0
  0
LINE
  5
110
100
AcDbEntity
  8
Switches
 62
256
370
-1
 48
1.0
  6
ByLayer
100
AcDbLine
 10
26.5430000000000099
 20
-24.8919999999999995
 30
0.0
 11
26.5430000000000099
 21
-10.9220000000000006
 31
0.0
  0
LINE
  5
111
100
AcDbEntity
  8
Switches
 62
256
370
-1
 48
1.0
  6
ByLayer
100
AcDbLine
 10
121.7930000000000064
 20
-42.0370000000000132
 30
0.0
 11
135.7630000000000052
 21
-42.0370000000000132
 31
0.0
  0
LINE
  5
112
100
AcDbEntity
  8
Switches
 62
256
370
-1
 48
1.0
  6
ByLayer
100
AcDbLine
 10
135.7630000000000052
 20
-42.0370000000000132
 30
0.0
 11
135.7630000000000052
 21
-56.0070000000000121
 31
0.0
  0
LINE
  5
113
100
AcDbEntity
  8
Switches
 62
256
370
-1
 48
1.0
  6
ByLayer
100
AcDbLine
 10
135.7630000000000052
 20
-56.0070000000000121
 30
0.0
 11
121.7930000000000064
 21
-56.0070000000000121
 31
0.0
  0
LINE
  5
114
100
AcDbEntity
  8
Switches
 62
256
370
-1
 48
1.0
  6
ByLayer
100
AcDbLine
 10
121.7930000000000064
 20
-56.0070000000000121
 30
0.0
 11
121.7930000000000064
 21
-42.0370000000000132
 31
0.0
  0
LINE
  5
115
100
AcDbEntity
  8
Switches
 62
256
370
-1
 48
1.0
  6
ByLayer
100
AcDbLine
 10
134.476312554565709
 20
-99.8053125545657025
 30
0.0
 11
146.5746874454343072
 21
-106.7903125545657019
 31
0.0
  0
LINE
  5
116
100
AcDbEntity
  8
Switches
 62
256
370
-1
 48
1.0
  6
ByLayer
100
AcDbLine
 10
146.5746874454343072
 20
-106.7903125545657019
 30
0.0
 11
139.5896874454342935
 21
-118.8886874454343001
 31
0.0
  0
LINE
  5
117
100
AcDbEntity
  8
Switches
 62
256
370
-1
 48
1.0
  6
ByLayer
100
AcDbLine
 10
139.5896874454342935
 20
-118.8886874454343001
 30
0.0
 11
127.4913125545656953
 21
-111.9036874454343007
 31
0.0
  0
LINE
  5
118
100
AcDbEntity
  8
Switches
 62
256
370
-1
 48
1.0
  6
ByLayer
100
AcDbLine
 10
127.4913125545656953
 20
-111.9036874454343007
 30
0.0
 11
134.476312554565709
 21
-99.8053125545657025
 31
0.0
  0
LINE
  5
119
100
AcDbEntity
  8
Switches
 62
256
370
-1
 48
1.0
  6
ByLayer
100
AcDbLine
 10
117.9663125545657039
 20
-90.2803125545656826
 30
0.0
 11
130.0646874454342878
 21
-97.265312554565682
 31
0.0
  0
LINE
  5
11A
100
AcDbEntity
  8
Switches
 62
256
370
-1
 48
1.0
  6
ByLayer
100
AcDbLine
 10
130.0646874454342878
 20
-97.265312554565682
 30
0.0
 11
123.0796874454343026
 21
-109.3636874454342944
 31
0.0
  0
LINE
  5
11B
100
AcDbEntity
  8
Switches
 62
256
370
-1
 48
1.0
  6
ByLayer
100
AcDbLine
 10
123.0796874454343026
 20
-109.3636874454342944
 30
0.0
 11
110.9813125545657044
 21
-102.378687445434295
 31
0.0
  0
LINE
  5
11C
100
AcDbEntity
  8
Switches
 62
256
370
-1
 48
1.0
  6
ByLayer
100
AcDbLine
 10
110.9813125545657044
 20
-102.378687445434295
 30
0.0
 11
117.9663125545657039
 21
-90.2803125545656826
 31
0.0
  0
LINE
  5
11D
100
AcDbEntity
  8
PCB
 62
256
370
-1
 48
1.0
  6
ByLayer
100
AcDbLine
 10
133.2230239410039871
 20
0.02998505199999
 30
0.0
 11
5.0800239410040184
 21
0.02998505199999
 31
0.0
  0
LINE
  5
11E
100
AcDbEntity
  8
PCB
 62
256
370
-1
 48
1.0
  6
ByLayer
100
AcDbLine
 10
138.3030239410039997
 20
-5.0500149480000083
 30
0.0
 11
138.3030239410039997
 21
-15.2100149479999995
 31
0.0
  0
LINE
  5
11F
100
AcDbEntity
  8
PCB
 62
256
370
-1
 48
1.0
  6
ByLayer
100
AcDbLine
 10
0.0000239410040201
 20
-5.0500149480000083
 30
0.0
 11
0.0000239410040201
 21
-8.3520149480000079
 31
0.0
  0
LINE
  5
120
100
AcDbEntity
  8
PCB
 62
256
370
-1
 48
1.0
  6
ByLayer
100
AcDbLine
 10
0.0000239410040201
 20
-5.0500149480000083
 30
0.0
 11
5.0800239410040184
 21
0.02998505199999
 31
0.0
  0
LINE
  5
121
100
AcDbEntity
  8
PCB
 62
256
370
-1
 48
1.0
  6
ByLayer
100
AcDbLine
 10
138.3030239410039997
 20
-5.0500149480000083
 30
0.0
 11
133.2230239410039871
 21
0.02998505199999
 31
0.0
  0
LINE
  5
122
100
AcDbEntity
  8
PCB
 62
256
370
-1
 48
1.0
  6
ByLayer
100
AcDbLine
 10
74.6760239410040185
 20
-96.7440149480000144
 30
0.0
 11
64.5160239410040219
 21
-96.7440149480000144
 31
0.0
  0
LINE
  5
123
100
AcDbEntity
  8
PCB
 62
256
370
-1
 48
1.0
  6
ByLayer
100
AcDbLine
 10
138.3030239410039997
 20
-71.0900149480000181
 30
0.0
 11
162.1790239410040897
 21
-84.8060149480000263
 31
0.0
  0
LINE
  5
124
100
AcDbEntity
  8
PCB
 62
256
370
-1
 48
1.0
  6
ByLayer
100
AcDbLine
 10
138.3030239410039997
 20
-15.2100149479999995
 30
0.0
 11
138.3030239410039997
 21
-71.0900149480000181
 31
0.0
  0
LINE
  5
125
100
AcDbEntity
  8
PCB
 62
256
370
-1
 48
1.0
  6
ByLayer
100
AcDbLine
 10
138.1760239410039901
 20
-126.4620149480000038
 30
0.0
 11
162.1790239410040897
 21
-84.8060149480000263
 31
0.0
  0
LINE
  5
126
100
AcDbEntity
  8
PCB
 62
256
370
-1
 48
1.0
  6
ByLayer
100
AcDbLine
 10
138.049023941004009
 20
-126.4620149480000038
 30
0.0
 11
138.1760239410039901
 21
-126.4620149480000038
 31
0.0
  0
LINE
  5
127
100
AcDbEntity
  8
PCB
 62
256
370
-1
 48
1.0
  6
ByLayer
100
AcDbLine
 10
96.6470239410040222
 20
-102.586014947999999
 30
0.0
 11
74.6760239410040185
 21
-96.7440149480000144
 31
0.0
  0
LINE
  5
128
100
AcDbEntity
  8
PCB
 62
256
370
-1
 48
1.0
  6
ByLayer
100
AcDbLine
 10
138.049023941004009
 20
-126.4620149480000038
 30
0.0
 11
96.6470239410040222
 21
-102.586014947999999
 31
0.0
  0
LINE
  5
129
100
AcDbEntity
  8
PCB
 62
256
370
-1
 48
1.0
  6
ByLayer
100
AcDbLine
 10
61.9760239410040299
 20
-99.2840149480000065
 30
0.0
 11
64.5160239410040219
 21
-96.7440149480000144
 31
0.0
  0
LINE
  5
12A
100
AcDbEntity
  8
PCB
 62
256
370
-1
 48
1.0
  6
ByLayer
100
AcDbLine
 10
47.2440239410040235
 20
-99.2840149480000065
 30
0.0
 11
61.9760239410040299
 21
-99.2840149480000065
 31
0.0
  0
LINE
  5
12B
100
AcDbEntity
  8
PCB
 62
256
370
-1
 48
1.0
  6
ByLayer
100
AcDbLine
 10
42.9260239410040185
 20
-103.6020149480000043
 30
0.0
 11
47.2440239410040235
 21
-99.2840149480000065
 31
0.0
  0
LINE
  5
12C
100
AcDbEntity
  8
PCB
 62
256
370
-1
 48
1.0
  6
ByLayer
100
AcDbLine
 10
4.8260239410040278
 20
-103.6020149480000043
 30
0.0
 11
42.9260239410040185
 21
-103.6020149480000043
 31
0.0
  0
LINE
  5
12D
100
AcDbEntity
  8
PCB
 62
256
370
-1
 48
1.0
  6
ByLayer
100
AcDbLine
 10
4.8260239410040278
 20
-89.3780149480000006
 30
0.0
 11
4.8260239410040278
 21
-103.6020149480000043
 31
0.0
  0
LINE
  5
12E
100
AcDbEntity
  8
PCB
 62
256
370
-1
 48
1.0
  6
ByLayer
100
AcDbLine
 10
0.0000239410040201
 20
-84.5520149480000072
 30
0.0
 11
4.8260239410040278
 21
-89.3780149480000006
 31
0.0
  0
LINE
  5
12F
100
AcDbEntity
  8
PCB
 62
256
370
-1
 48
1.0
  6
ByLayer
100
AcDbLine
 10
0.0000239410040201
 20
-8.3520149480000079
 30
0.0
 11
0.0000239410040201
 21
-84.5520149480000072
 31
0.0
  0
LINE
  5
130
100
AcDbEntity
  8
Switches
 62
256
370
-1
 48
1.0
  6
ByLayer
100
AcDbLine
 10
88.4731570733297445
 20
-97.7761408665880509
 30
0.0
 11
105.5828429266702955
 21
-87.8978591334119699
 31
0.0
  0
LINE
  5
131
100
AcDbEntity
  8
Switches
 62
256
370
-1
 48
1.0
  6
ByLayer
100
AcDbLine
 10
110.9813125545657044
 20
-102.378687445434295
 30
0.0
 11
130.0646874454342878
 21
-97.2653125545656962
 31
0.0
  0
LINE
  5
132
100
AcDbEntity
  8
Switches
 62
256
370
-1
 48
1.0
  6
ByLayer
100
AcDbLine
 10
123.0463125545657022
 20
-81.4236874454343251
 30
0.0
 11
142.129687445434314
 21
-76.3103125545657122
 31
0.0
  0
LINE
  5
133
100
AcDbEntity
  8
Switches
 62
256
370
-1
 48
1.0
  6
ByLayer
100
AcDbLine
 10
139.5563125545656931
 20
-90.9486874454343166
 30
0.0
 11
158.6396874454343049
 21
-85.8353125545657178
 31
0.0
  0
LINE
  5
134
100
AcDbEntity
  8
Switches
 62
256
370
-1
 48
1.0
  6
ByLayer
100
AcDbLine
 10
127.4913125545656953
 20
-111.9036874454343007
 30
0.0
 11
146.5746874454343072
 21
-106.7903125545657019
 31
0.0
  0
CIRCLE
  5
135
100
AcDbEntity
  8
Holes
 62
256
370
-1
 48
1.0
  6
ByLayer
100
AcDbCircle
 10
6.222999999999999
 20
-5.2069999999999999
 30
0.0
 40
2.0
  0
CIRCLE
  5
136
100
AcDbEntity
  8
Holes
 62
256
370
-1
 48
1.0
  6
ByLayer
100
AcDbCircle
 10
116.7129999999999939
 20
-3.302
 30
0.0
 40
2.0
  0
CIRCLE
  5
137
100
AcDbEntity
  8
Holes
 62
256
370
-1
 48
1.0
  6
ByLayer
100
AcDbCircle
 10
23.3679999999999986
 20
-80.1370000000000005
 30
0.0
 40
2.0
  0
CIRCLE
  5
138
100
AcDbEntity
  8
Holes
 62
256
370
-1
 48
1.0
  6
ByLayer
100
AcDbCircle
 10
133.8580000000000041
 20
-95.5040000000000049
 30
0.0
 40
2.0
  0
CIRCLE
  5
139
100
AcDbEntity
  8
Refs
 62
256
370
-1
 48
1.0
  6
ByLayer
100
AcDbCircle
 10
-5.1726121288087974
 20
-98.4215332090793282
 30
0.0
 40
2.0
  0
CIRCLE
  5
13A
100
AcDbEntity
  8
Refs
 62
256
370
-1
 48
1.0
  6
ByLayer
100
AcDbCircle
 10
-5.7857908268086433
 20
-1.30499896939598
 30
0.0
 40
2.0
  0
CIRCLE
  5
13B
100
AcDbEntity
  8
Refs
 62
256
370
-1
 48
1.0
  6
ByLayer
100
AcDbCircle
 10
143.0628227430823074
 20
-0.8842519951853518
 30
0.0
 40
2.0
  0
CIRCLE
  5
13C
100
AcDbEntity
  8
Refs
 62
256
370
-1
 48
1.0
  6
ByLayer
100
AcDbCircle
 10
158.297788718805208
 20
-114.6141796151833034
 30
0.0
 40
2.0
  0
LINE
  5
13D
100
AcDbEntity
  8
Switches
 62
256
370
-1
 48
1.0
  6
ByLayer
100
AcDbLine
 10
4.9530000000000012
 20
-24.8919999999999995
 30
0.0
 11
18.9229999999999983
 21
-10.9220000000000006
 31
0.0
  0
LINE
  5
13E
100
AcDbEntity
  8
Switches
 62
256
370
-1
 48
1.0
  6
ByLayer
100
AcDbLine
 10
4.9530000000000012
 20
-43.9419999999999931
 30
0.0
 11
18.9229999999999983
 21
-29.9719999999999906
 31
0.0
  0
LINE
  5
13F
100
AcDbEntity
  8
Switches
 62
256
370
-1
 48
1.0
  6
ByLayer
100
AcDbLine
 10
4.9530000000000012
 20
-62.9919999999999973
 30
0.0
 11
18.9229999999999983
 21
-49.0220000000000127
 31
0.0
  0
LINE
  5
140
100
AcDbEntity
  8
Switches
 62
256
370
-1
 48
1.0
  6
ByLayer
100
AcDbLine
 10
4.9530000000000012
 20
-82.0420000000000016
 30
0.0
 11
18.9229999999999983
 21
-68.0720000000000027
 31
0.0
  0
LINE
  5
141
100
AcDbEntity
  8
Switches
 62
256
370
-1
 48
1.0
  6
ByLayer
100
AcDbLine
 10
7.4930000000000074
 20
-101.0919999999999987
 30
0.0
 11
21.4630000000000116
 21
-87.1219999999999715
 31
0.0
  0
LINE
  5
142
100
AcDbEntity
  8
Switches
 62
256
370
-1
 48
1.0
  6
ByLayer
100
AcDbLine
 10
26.5430000000000099
 20
-24.8919999999999888
 30
0.0
 11
40.5130000000000123
 21
-10.9220000000000006
 31
0.0
  0
LINE
  5
143
100
AcDbEntity
  8
Switches
 62
256
370
-1
 48
1.0
  6
ByLayer
100
AcDbLine
 10
26.5430000000000099
 20
-43.9419999999999931
 30
0.0
 11
40.5130000000000123
 21
-29.9719999999999906
 31
0.0
  0
LINE
  5
144
100
AcDbEntity
  8
Switches
 62
256
370
-1
 48
1.0
  6
ByLayer
100
AcDbLine
 10
26.5430000000000099
 20
-62.9919999999999973
 30
0.0
 11
40.5130000000000123
 21
-49.0220000000000127
 31
0.0
  0
LINE
  5
145
100
AcDbEntity
  8
Switches
 62
256
370
-1
 48
1.0
  6
ByLayer
100
AcDbLine
 10
26.5430000000000099
 20
-82.0420000000000016
 30
0.0
 11
40.5130000000000123
 21
-68.0720000000000027
 31
0.0
  0
LINE
  5
146
100
AcDbEntity
  8
Switches
 62
256
370
-1
 48
1.0
  6
ByLayer
100
AcDbLine
 10
26.5430000000000099
 20
-101.0919999999999987
 30
0.0
 11
40.5130000000000123
 21
-87.1219999999999715
 31
0.0
  0
LINE
  5
147
100
AcDbEntity
  8
Switches
 62
256
370
-1
 48
1.0
  6
ByLayer
100
AcDbLine
 10
45.5930000000000106
 20
-20.4469999999999992
 30
0.0
 11
59.5630000000000095
 21
-6.4769999999999994
 31
0.0
  0
LINE
  5
148
100
AcDbEntity
  8
Switches
 62
256
370
-1
 48
1.0
  6
ByLayer
100
AcDbLine
 10
45.5930000000000035
 20
-39.4969999999999999
 30
0.0
 11
59.5630000000000024
 21
-25.527000000000001
 31
0.0
  0
LINE
  5
149
100
AcDbEntity
  8
Switches
 62
256
370
-1
 48
1.0
  6
ByLayer
100
AcDbLine
 10
45.5930000000000035
 20
-58.546999999999997
 30
0.0
 11
59.5630000000000024
 21
-44.5769999999999982
 31
0.0
  0
LINE
  5
14A
100
AcDbEntity
  8
Switches
 62
256
370
-1
 48
1.0
  6
ByLayer
100
AcDbLine
 10
45.5930000000000035
 20
-77.59699999999998
 30
0.0
 11
59.5630000000000024
 21
-63.6270000000000024
 31
0.0
  0
LINE
  5
14B
100
AcDbEntity
  8
Switches
 62
256
370
-1
 48
1.0
  6
ByLayer
100
AcDbLine
 10
45.5930000000000035
 20
-96.6469999999999914
 30
0.0
 11
59.5630000000000024
 21
-82.6769999999999783
 31
0.0
  0
LINE
  5
14C
100
AcDbEntity
  8
Switches
 62
256
370
-1
 48
1.0
  6
ByLayer
100
AcDbLine
 10
64.6430000000000149
 20
-17.907
 30
0.0
 11
78.257300477316889
 21
-6.217517741296076
 31
0.0
  0
LINE
  5
14D
100
AcDbEntity
  8
Switches
 62
256
370
-1
 48
1.0
  6
ByLayer
100
AcDbLine
 10
78.257300477316889
 20
-6.217517741296076
 30
0.0
 11
64.6430000000000149
 21
-17.907
 31
0.0
  0
LINE
  5
14E
100
AcDbEntity
  8
Switches
 62
256
370
-1
 48
1.0
  6
ByLayer
100
AcDbLine
 10
64.6430000000000149
 20
-17.907
 30
0.0
 11
78.6129999999999995
 21
-3.9369999999999981
 31
0.0
  0
LINE
  5
14F
100
AcDbEntity
  8
Switches
 62
256
370
-1
 48
1.0
  6
ByLayer
100
AcDbLine
 10
64.6430000000000149
 20
-36.9569999999999865
 30
0.0
 11
78.6129999999999995
 21
-22.9869999999999912
 31
0.0
  0
LINE
  5
150
100
AcDbEntity
  8
Switches
 62
256
370
-1
 48
1.0
  6
ByLayer
100
AcDbLine
 10
64.6430000000000149
 20
-56.0070000000000121
 30
0.0
 11
78.6129999999999995
 21
-42.0370000000000132
 31
0.0
  0
LINE
  5
151
100
AcDbEntity
  8
Switches
 62
256
370
-1
 48
1.0
  6
ByLayer
100
AcDbLine
 10
64.6430000000000149
 20
-75.0569999999999879
 30
0.0
 11
78.6130000000000138
 21
-61.0870000000000104
 31
0.0
  0
LINE
  5
152
100
AcDbEntity
  8
Switches
 62
256
370
-1
 48
1.0
  6
ByLayer
100
AcDbLine
 10
64.6430000000000149
 20
-94.1069999999999993
 30
0.0
 11
78.6129999999999995
 21
-80.1370000000000005
 31
0.0
  0
LINE
  5
153
100
AcDbEntity
  8
Switches
 62
256
370
-1
 48
1.0
  6
ByLayer
100
AcDbLine
 10
83.6929999999999978
 20
-20.4469999999999992
 30
0.0
 11
97.6629999999999967
 21
-6.4769999999999994
 31
0.0
  0
LINE
  5
154
100
AcDbEntity
  8
Switches
 62
256
370
-1
 48
1.0
  6
ByLayer
100
AcDbLine
 10
83.6929999999999978
 20
-39.4969999999999999
 30
0.0
 11
97.6629999999999967
 21
-25.527000000000001
 31
0.0
  0
LINE
  5
155
100
AcDbEntity
  8
Switches
 62
256
370
-1
 48
1.0
  6
ByLayer
100
AcDbLine
 10
83.6929999999999978
 20
-58.546999999999997
 30
0.0
 11
97.6629999999999967
 21
-44.5769999999999982
 31
0.0
  0
LINE
  5
156
100
AcDbEntity
  8
Switches
 62
256
370
-1
 48
1.0
  6
ByLayer
100
AcDbLine
 10
83.6929999999999836
 20
-77.59699999999998
 30
0.0
 11
97.6629999999999825
 21
-63.6270000000000024
 31
0.0
  0
LINE
  5
157
100
AcDbEntity
  8
Switches
 62
256
370
-1
 48
1.0
  6
ByLayer
100
AcDbLine
 10
102.742999999999995
 20
-79.5020000000000095
 30
0.0
 11
116.7129999999999939
 21
-65.5319999999999823
 31
0.0
  0
LINE
  5
158
100
AcDbEntity
  8
Switches
 62
256
370
-1
 48
1.0
  6
ByLayer
100
AcDbLine
 10
102.742999999999995
 20
-60.4519999999999982
 30
0.0
 11
116.7129999999999939
 21
-46.4819999999999993
 31
0.0
  0
LINE
  5
159
100
AcDbEntity
  8
Switches
 62
256
370
-1
 48
1.0
  6
ByLayer
100
AcDbLine
 10
102.742999999999995
 20
-41.402000000000001
 30
0.0
 11
116.7129999999999939
 21
-27.4319999999999986
 31
0.0
  0
LINE
  5
15A
100
AcDbEntity
  8
Switches
 62
256
370
-1
 48
1.0
  6
ByLayer
100
AcDbLine
 10
102.742999999999995
 20
-22.352000000000011
 30
0.0
 11
116.7129999999999939
 21
-8.3819999999999979
 31
0.0
  0
LINE
  5
15B
100
AcDbEntity
  8
Switches
 62
256
370
-1
 48
1.0
  6
ByLayer
100
AcDbLine
 10
121.7930000000000064
 20
-31.8769999999999882
 30
0.0
 11
135.7630000000000052
 21
-17.907
 31
0.0
  0
LINE
  5
15C
100
AcDbEntity
  8
Switches
 62
256
370
-1
 48
1.0
  6
ByLayer
100
AcDbLine
 10
121.7930000000000064
 20
-56.0069999999999979
 30
0.0
 11
135.7630000000000052
 21
-42.0370000000000132
 31
0.0
  0
LINE
  5
15D
100
AcDbEntity
  8
Refs
 62
256
370
-1
 48
1.0
  6
ByLayer
100
AcDbLine
 10
0.0000239410040201
 20
-5.0500149480000092
 30
0.0
 11
0.0
 21
0.0
 31
0.0
  0
LINE
  5
15E
100
AcDbEntity
  8
Refs
 62
256
370
-1
 48
1.0
  6
ByLayer
100
AcDbLine
 10
0.0
 20
0.0
 30
0.0
 11
5.0800239410040184
 21
0.02998505199999
 31
0.0
  0
CIRCLE
  5
15F
100
AcDbEntity
  8
Refs
 62
256
370
-1
 48
1.0
  6
ByLayer
100
AcDbCircle
 10
42.9017968381750805
 20
-27.5292465680985714
 30
0.0
 40
2.0
  0
CIRCLE
  5
160
100
AcDbEntity
  8
Refs
 62
256
370
-1
 48
1.0
  6
ByLayer
100
AcDbCircle
 10
62.504360987801391
 20
-39.7726381955420578
 30
0.0
 40
2.0
  0
CIRCLE
  5
161
100
AcDbEntity
  8
Refs
 62
256
370
-1
 48
1.0
  6
ByLayer
100
AcDbCircle
 10
62.263878931225797
 20
-78.4069085194126245
 30
0.0
 40
1.999999999999996
  0
CIRCLE
  5
162
100
AcDbEntity
  8
Refs
 62
256
370
-1
 48
1.0
  6
ByLayer
100
AcDbCircle
 10
100.2085066569540004
 20
-61.5963948951833018
 30
0.0
 40
2.0
  0
CIRCLE
  5
163
100
AcDbEntity
  8
Refs
 62
256
370
-1
 48
1.0
  6
ByLayer
100
AcDbCircle
 10
100.0
 20
-23.0
 30
0.0
 40
2.0
  0
CIRCLE
  5
164
100
AcDbEntity
  8
Refs
 62
256
370
-1
 48
1.0
  6
ByLayer
100
AcDbCircle
 10
43.4402338364220526
 20
-61.0424379264420978
 30
0.0
 40
2.0
  0
CIRCLE
  5
165
100
AcDbEntity
  8
Refs
 62
256
370
-1
 48
1.0
  6
ByLayer
100
AcDbCircle
 10
119.0
 20
-25.0
 30
0.0
 40
2.0
  0
CIRCLE
  5
166
100
AcDbEntity
  8
Refs
 62
256
370
-1
 48
1.0
  6
ByLayer
100
AcDbCircle
 10
119.0
 20
-63.1160091415630404
 30
0.0
 40
2.0
  0
CIRCLE
  5
167
100
AcDbEntity
  8
Refs
 62
256
370
-1
 48
1.0
  6
ByLayer
100
AcDbCircle
 10
136.0
 20
-37.0
 30
0.0
 40
2.0
  0
CIRCLE
  5
168
100
AcDbEntity
  8
Refs
 62
256
370
-1
 48
1.0
  6
ByLayer
100
AcDbCircle
 10
119.0
 20
-25.0
 30
0.0
 40
2.0
  0
CIRCLE
  5
169
100
AcDbEntity
  8
Refs
 62
256
370
-1
 48
1.0
  6
ByLayer
100
AcDbCircle
 10
62.0
 20
-3.0
 30
0.0
 40
2.0
  0
CIRCLE
  5
16A
100
AcDbEntity
  8
Refs
 62
256
370
-1
 48
1.0
  6
ByLayer
100
AcDbCircle
 10
2.806982780543517
 20
-65.5793891685987376
 30
0.0
 40
2.0
  0
CIRCLE
  5
16B
100
AcDbEntity
  8
Refs
 62
256
370
-1
 48
1.0
  6
ByLayer
100
AcDbCircle
 10
104.387776994669494
 20
-103.7137328453345049
 30
0.0
 40
2.0
  0
CIRCLE
  5
16C
100
AcDbEntity
  8
Refs
 62
256
370
-1
 48
1.0
  6
ByLayer
100
AcDbCircle
 10
100.0563128168970053
 20
-81.5859446519626204
 30
0.0
 40
2.0
  0
CIRCLE
  5
16D
100
AcDbEntity
  8
Refs
 62
256
370
-1
 48
1.0
  6
ByLayer
100
AcDbCircle
 10
2.7220173633438578
 20
-27.3429483706034588
 30
0.0
 40
2.0
  0
CIRCLE
  5
16E
100
AcDbEntity
  8
Refs
 62
256
370
-1
 48
1.0
  6
ByLayer
100
AcDbCircle
 10
81.1490854731720219
 20
-49.6182011714340376
 30
0.0
 40
2.0
  0
CIRCLE
  5
16F
100
AcDbEntity
  8
Refs
 62
256
370
-1
 48
1.0
  6
ByLayer
100
AcDbCircle
 10
22.6819255754292008
 20
-46.4006527648815776
 30
0.0
 40
2.0
  0
LINE
  5
170
100
AcDbEntity
  8
Refs
 62
256
370
-1
 48
1.0
  6
ByLayer
100
AcDbLine
 10
138.1379071618626995
 20
-126.4620149480000038
 30
0.0
 11
172.7122672250150117
 21
-126.4620149480000038
 31
0.0
  0
LINE
  5
171
100
AcDbEntity
  8
Refs
 62
256
370
-1
 48
1.0
  6
ByLayer
100
AcDbLine
 10
138.1760239410039901
 20
-126.4620149480000038
 30
0.0
 11
138.1760239410039901
 21
-130.4620149479999895
 31
0.0
  0
LINE
  5
172
100
AcDbEntity
  8
Refs
 62
256
370
-1
 48
1.0
  6
ByLayer
100
AcDbLine
 10
138.1760239410039901
 20
-130.4620149479999895
 30
0.0
 11
173.3893096083000103
 21
-130.4620149479999895
 31
0.0
  0
LINE
  5
173
100
AcDbEntity
  8
Refs
 62
256
370
-1
 48
1.0
  6
ByLayer
100
AcDbLine
 10
42.9260239410040185
 20
-103.6020149480000043
 30
0.0
 11
42.9260239410040185
 21
-107.6020149480000043
 31
0.0
  0
LINE
  5
174
100
AcDbEntity
  8
Refs
 62
256
370
-1
 48
1.0
  6
ByLayer
100
AcDbLine
 10
42.9260239410040185
 20
-107.6020149480003028
 30
0.0
 11
42.9260239410040185
 21
0.0299850519999865
 31
0.0
  0
LINE
  5
175
100
AcDbEntity
  8
Refs
 62
256
370
-1
 48
1.0
  6
ByLayer
100
AcDbLine
 10
42.9260239410040185
 20
0.0299850519999865
 30
0.0
 11
42.9260239410040185
 21
4.0299850519999856
 31
0.0
  0
LINE
  5
176
100
AcDbEntity
  8
Shell
 62
256
370
-1
 48
1.0
  6
ByLayer
100
AcDbLine
 10
-11.5625
 20
4.0
 30
0.0
 11
-11.5625
 21
8.0
 31
0.0
  0
LINE
  5
177
100
AcDbEntity
  8
Refs
 62
256
370
-1
 48
1.0
  6
ByLayer
100
AcDbLine
 10
42.9260239410040185
 20
-107.6020149480000043
 30
0.0
 11
42.9260239410040185
 21
-109.6020149480000043
 31
0.0
  0
ARC
  5
178
100
AcDbEntity
  8
Shell
 62
256
370
-1
 48
1.0
  6
ByLayer
100
AcDbCircle
 10
-5.59499126651186
 20
-559.049653898910492
 30
0.0
 40
452.0591433378111788
100
AcDbArc
 50
71.4558168965573515
 51
90.7563678352739771
  0
DIMENSION
  5
179
100
AcDbEntity
  8
Dims
 62
256
370
-1
 48
1.0
  6
ByLayer
100
AcDbDimension
 10
0.0000239410040201
 20
-118.3946843236820996
 30
0.0
 11
-5.7812380294979899
 21
-116.1446843236820996
 31
0.0
 70
0
 71
8
 72
1
 74
0
 75
0
 41
1.0
 42
0.0
  1

  3
Standard
100
AcDbAlignedDimension
 13
0.0000239410040201
 23
-84.5520149480000072
 33
0.0
 14
-11.5625
 24
-84.5520149480000072
 34
0.0
 50
0.0
100
AcDbRotatedDimension
1001
ACAD
1000
DSTYLE
1002
{
1070
144
1040
1.0
1070
40
1040
1.0
1002
}
  0
DIMENSION
  5
17A
100
AcDbEntity
  8
Dims
 62
256
370
-1
 48
1.0
  6
ByLayer
100
AcDbDimension
 10
-11.5625
 20
15.1057851134673307
 30
0.0
 11
68.949473075340947
 21
17.3557851134673307
 31
0.0
 70
0
 71
8
 72
1
 74
0
 75
0
 41
1.0
 42
0.0
  1

  3
Standard
100
AcDbAlignedDimension
 13
-11.5625
 23
8.0
 33
0.0
 14
149.4614461506818941
 24
4.0
 34
0.0
 50
0.0
100
AcDbRotatedDimension
1001
ACAD
1000
DSTYLE
1002
{
1070
144
1040
1.0
1070
40
1040
1.0
1002
}
  0
LINE
  5
17B
100
AcDbEntity
  8
Refs
 62
256
370
-1
 48
1.0
  6
ByLayer
100
AcDbLine
 10
0.0
 20
-0.0
 30
0.0
 11
-11.5625
 21
-0.0
 31
0.0
  0
DIMENSION
  5
17C
100
AcDbEntity
  8
Dims
 62
256
370
-1
 48
1.0
  6
ByLayer
100
AcDbDimension
 10
-19.0
 20
8.0
 30
0.0
 11
-21.2499999999999964
 21
12.7987465181058493
 31
0.0
 70
0
 71
8
 72
1
 74
0
 75
0
 41
1.0
 42
0.0
  1

  3
Standard
100
AcDbAlignedDimension
 13
-11.5625
 23
8.0
 33
0.0
 14
-11.5625
 24
0.0
 34
0.0
 50
90.0
100
AcDbRotatedDimension
1001
ACAD
1000
DSTYLE
1002
{
1070
144
1040
1.0
1070
40
1040
1.0
1002
}
  0
LINE
  5
17D
100
AcDbEntity
  8
Refs
 62
256
370
-1
 48
1.0
  6
ByLayer
100
AcDbLine
 10
-11.5625
 20
-107.0299000000000973
 30
0.0
 11
-11.5625
 21
-156.0485981110493867
 31
0.0
  0
DIMENSION
  5
17E
100
AcDbEntity
  8
Dims
 62
256
370
-1
 48
1.0
  6
ByLayer
100
AcDbDimension
 10
172.6016676980651994
 20
-145.2430925883782038
 30
0.0
 11
80.5195838490325997
 21
-142.9930925883782038
 31
0.0
 70
1
 71
8
 72
1
 74
0
 75
0
 41
1.0
 42
0.0
  1

  3
Standard
100
AcDbAlignedDimension
 13
172.6016676980651994
 23
-125.7575260290557964
 33
0.0
 14
-11.5625
 24
-125.7575260290557964
 34
0.0
1001
ACAD
1000
DSTYLE
1002
{
1070
144
1040
1.0
1070
40
1040
1.0
1002
}
  0
DIMENSION
  5
17F
100
AcDbEntity
  8
Dims
 62
256
370
-1
 48
1.0
  6
ByLayer
100
AcDbDimension
 10
215.728585041632698
 20
-130.4620149480003022
 30
0.0
 11
213.478585041632698
 21
-63.1173334584197292
 31
0.0
 70
1
 71
8
 72
1
 74
0
 75
0
 41
1.0
 42
0.0
  1

  3
Standard
100
AcDbAlignedDimension
 13
138.1760239410039901
 23
-130.4620149480003022
 33
0.0
 14
138.1760239410039901
 24
4.2273480311608473
 34
0.0
1001
ACAD
1000
DSTYLE
1002
{
1070
144
1040
1.0
1070
40
1040
1.0
1002
}
  0
LINE
  5
180
100
AcDbEntity
  8
Shell
 62
256
370
-1
 48
1.0
  6
ByLayer
100
AcDbLine
 10
138.1760239410039901
 20
-130.4620149480000748
 30
0.0
 11
172.6016676980651141
 21
-125.7575260290748815
 31
0.0
  0
LINE
  5
181
100
AcDbEntity
  8
Shell
 62
256
370
-1
 48
1.0
  6
ByLayer
100
AcDbLine
 10
148.7668534400141596
 20
7.9392310120488325
 30
0.0
 11
149.4614461506818941
 21
4.0
 31
0.0
  0
ARC
  5
182
100
AcDbEntity
  8
Shell
 62
256
370
-1
 48
1.0
  6
ByLayer
100
AcDbCircle
 10
68.8781709244397717
 20
736.1366270357942767
 30
0.0
 40
732.566481058093359
100
AcDbArc
 50
263.6958301075586633
 51
276.2607367182479265
  0
LINE
  5
183
100
AcDbEntity
  8
Shell2
 62
256
370
-1
 48
1.0
  6
ByLayer
100
AcDbLine
 10
-3.9999760589959807
 20
-5.0500149480000127
 30
0.0
 11
-3.9999760589959807
 21
-106.9933244422779097
 31
0.0
  0
LINE
  5
184
100
AcDbEntity
  8
Shell2
 62
256
370
-1
 48
1.0
  6
ByLayer
100
AcDbLine
 10
-3.9999760589959803
 20
-5.0500149480000127
 30
0.0
 11
-3.9999760589959803
 21
7.2042400052147206
 31
0.0
  0
LINE
  5
185
100
AcDbEntity
  8
Shell2
 62
256
370
-1
 48
1.0
  6
ByLayer
100
AcDbLine
 10
138.1760239410039901
 20
-130.4620149480000748
 30
0.0
 11
172.6016676980668478
 21
-125.75752602907464
 31
0.0
  0
LINE
  5
186
100
AcDbEntity
  8
Shell2
 62
256
370
-1
 48
1.0
  6
ByLayer
100
AcDbLine
 10
172.6016676980668478
 20
-125.75752602907464
 30
0.0
 11
148.7668534400141596
 21
7.9392310120488325
 31
0.0
  0
LINE
  5
187
100
AcDbEntity
  8
Shell2
 62
256
370
-1
 48
1.0
  6
ByLayer
100
AcDbLine
 10
-3.9999760589959807
 20
-106.9933244422779097
 30
0.0
 11
42.6412805968517716
 21
-106.9933244422779097
 31
0.0
  0
ARC
  5
188
100
AcDbEntity
  8
Shell2
 62
256
370
-1
 48
1.0
  6
ByLayer
100
AcDbCircle
 10
39.9969322952696373
 20
-323.9402582733742406
 30
0.0
 40
216.963049104344492
100
AcDbArc
 50
63.0948243826390254
 51
89.3016610469157257
  0
ARC
  5
189
100
AcDbEntity
  8
Shell2
 62
256
370
-1
 48
1.0
  6
ByLayer
100
AcDbCircle
 10
69.3183281585566391
 20
644.6505754899930025
 30
0.0
 40
641.6489728475451102
100
AcDbArc
 50
263.4387412416630241
 51
277.1125768407325722
  0
ENDSEC
  0
SECTION
  2
OBJECTS
  0
DICTIONARY
  5
C
100
AcDbDictionary
280
0
281
1
  3
ACAD_GROUP
350
D
  3
ACAD_LAYOUT
350
1A
  3
ACAD_MLINESTYLE
350
17
  3
ACAD_PLOTSETTINGS
350
19
  3
ACAD_PLOTSTYLENAME
350
E
  3
AcDbVariableDictionary
350
18A
  3
QCAD_OBJECTS
350
18B
  0
DICTIONARY
  5
D
100
AcDbDictionary
280
0
281
1
  0
ACDBDICTIONARYWDFLT
  5
E
100
AcDbDictionary
281
1
  3
Normal
350
F
100
AcDbDictionaryWithDefault
340
F
  0
ACDBPLACEHOLDER
  5
F
  0
DICTIONARY
  5
17
100
AcDbDictionary
280
0
281
1
  3
Standard
350
18
  0
MLINESTYLE
  5
18
100
AcDbMlineStyle
  2
STANDARD
 70
0
  3

 62
256
 51
90.0
 52
90.0
 71
2
 49
0.5
 62
256
  6
BYLAYER
 49
-0.5
 62
256
  6
BYLAYER
  0
DICTIONARY
  5
19
100
AcDbDictionary
280
0
281
1
  0
DICTIONARY
  5
1A
100
AcDbDictionary
281
1
  3
Layout1
350
1E
  3
Layout2
350
26
  3
Model
350
22
  0
LAYOUT
  5
1E
100
AcDbPlotSettings
  1

  2
none_device
  4

  6

 40
0.0
 41
0.0
 42
0.0
 43
0.0
 44
0.0
 45
0.0
 46
0.0
 47
0.0
 48
0.0
 49
0.0
140
0.0
141
0.0
142
1.0
143
1.0
 70
688
 72
0
 73
0
 74
5
  7

 75
16
147
1.0
148
0.0
149
0.0
100
AcDbLayout
  1
Layout1
 70
1
 71
1
 10
0.0
 20
0.0
 11
420.0
 21
297.0
 12
0.0
 22
0.0
 32
0.0
 14
100000000000000000000.0
 24
100000000000000000000.0
 34
100000000000000000000.0
 15
-100000000000000000000.0
 25
-100000000000000000000.0
 35
-100000000000000000000.0
146
0.0
 13
0.0
 23
0.0
 33
0.0
 16
1.0
 26
0.0
 36
0.0
 17
0.0
 27
1.0
 37
0.0
 76
0
330
1B
  0
LAYOUT
  5
22
100
AcDbPlotSettings
  1

  2
none_device
  4

  6

 40
0.0
 41
0.0
 42
0.0
 43
0.0
 44
0.0
 45
0.0
 46
0.0
 47
0.0
 48
0.0
 49
0.0
140
0.0
141
0.0
142
1.0
143
1.0
 70
1712
 72
0
 73
0
 74
0
  7

 75
0
147
1.0
148
0.0
149
0.0
100
AcDbLayout
  1
Model
 70
1
 71
0
 10
0.0
 20
0.0
 11
12.0
 21
9.0
 12
0.0
 22
0.0
 32
0.0
 14
0.0
 24
0.0
 34
0.0
 15
0.0
 25
0.0
 35
0.0
146
0.0
 13
0.0
 23
0.0
 33
0.0
 16
1.0
 26
0.0
 36
0.0
 17
0.0
 27
1.0
 37
0.0
 76
0
330
1F
  0
LAYOUT
  5
26
100
AcDbPlotSettings
  1

  2
none_device
  4

  6

 40
0.0
 41
0.0
 42
0.0
 43
0.0
 44
0.0
 45
0.0
 46
0.0
 47
0.0
 48
0.0
 49
0.0
140
0.0
141
0.0
142
1.0
143
1.0
 70
688
 72
0
 73
0
 74
5
  7

 75
16
147
1.0
148
0.0
149
0.0
100
AcDbLayout
  1
Layout2
 70
1
 71
2
 10
0.0
 20
0.0
 11
12.0
 21
9.0
 12
0.0
 22
0.0
 32
0.0
 14
0.0
 24
0.0
 34
0.0
 15
0.0
 25
0.0
 35
0.0
146
0.0
 13
0.0
 23
0.0
 33
0.0
 16
1.0
 26
0.0
 36
0.0
 17
0.0
 27
1.0
 37
0.0
 76
0
330
23
  0
DICTIONARY
  5
18A
100
AcDbDictionary
281
1
  3
DIMASSOC
350
18D
  3
HIDETEXT
350
18C
  0
DICTIONARYVAR
  5
18C
100
DictionaryVariables
280
0
  1
2
  0
DICTIONARYVAR
  5
18D
100
DictionaryVariables
280
0
  1
1
  0
DICTIONARY
  5
18B
100
AcDbDictionary
281
1
  3
ColorSettings/BackgroundColor
350
18E
  3
ColorSettings/ColorMode
350
18F
  3
Grid/DisplayGrid00
350
190
  3
Grid/DisplayGrid01
350
191
  3
Grid/DisplayGrid02
350
192
  3
Grid/DisplayGrid03
350
193
  3
Grid/GridSpacingX00
350
194
  3
Grid/GridSpacingX01
350
195
  3
Grid/GridSpacingX02
350
196
  3
Grid/GridSpacingX03
350
197
  3
Grid/GridSpacingY00
350
198
  3
Grid/GridSpacingY01
350
199
  3
Grid/GridSpacingY02
350
19A
  3
Grid/GridSpacingY03
350
19B
  3
Grid/IsometricGrid00
350
19C
  3
Grid/IsometricGrid01
350
19D
  3
Grid/IsometricGrid02
350
19E
  3
Grid/IsometricGrid03
350
19F
  3
Grid/IsometricProjection00
350
1A0
  3
Grid/IsometricProjection01
350
1A1
  3
Grid/IsometricProjection02
350
1A2
  3
Grid/IsometricProjection03
350
1A3
  3
Grid/MetaGridSpacingX00
350
1A4
  3
Grid/MetaGridSpacingX01
350
1A5
  3
Grid/MetaGridSpacingX02
350
1A6
  3
Grid/MetaGridSpacingX03
350
1A7
  3
Grid/MetaGridSpacingY00
350
1A8
  3
Grid/MetaGridSpacingY01
350
1A9
  3
Grid/MetaGridSpacingY02
350
1AA
  3
Grid/MetaGridSpacingY03
350
1AB
  3
MultiPageSettings/Columns
350
1AC
  3
MultiPageSettings/GlueMarginsBottom
350
1AD
  3
MultiPageSettings/GlueMarginsLeft
350
1AE
  3
MultiPageSettings/GlueMarginsRight
350
1AF
  3
MultiPageSettings/GlueMarginsTop
350
1B0
  3
MultiPageSettings/PrintCropMarks
350
1B1
  3
MultiPageSettings/Rows
350
1B2
  3
PageSettings/OffsetX
350
1B3
  3
PageSettings/OffsetY
350
1B4
  3
PageSettings/PageOrientation
350
1B5
  3
PageSettings/PaperHeight
350
1B6
  3
PageSettings/PaperWidth
350
1B7
  3
PageSettings/Scale
350
1B8
  3
PageSettings/ShowPaperBorders
350
1B9
  3
PageTagSettings/EnablePageTags
350
1BA
  3
PageTagSettings/TagAlignment
350
1BB
  3
PageTagSettings/TagFont
350
1BC
  3
PageTagSettings/TagPosition
350
1BD
  3
QCADVersion
350
1BE
  3
UnitSettings/PaperUnit
350
1BF
  3
ViewportCenter
350
1C0
  3
ViewportHeight
350
1C1
  3
ViewportWidth
350
1C2
  0
XRECORD
  5
18E
330
18B
100
AcDbXrecord
280
1
1000
White
  0
XRECORD
  5
18F
330
18B
100
AcDbXrecord
280
1
1000
FullColor
  0
XRECORD
  5
190
330
18B
100
AcDbXrecord
280
1
290
1
  0
XRECORD
  5
191
330
18B
100
AcDbXrecord
280
1
290
1
  0
XRECORD
  5
192
330
18B
100
AcDbXrecord
280
1
290
1
  0
XRECORD
  5
193
330
18B
100
AcDbXrecord
280
1
290
1
  0
XRECORD
  5
194
330
18B
100
AcDbXrecord
280
1
1000
auto
  0
XRECORD
  5
195
330
18B
100
AcDbXrecord
280
1
1000
auto
  0
XRECORD
  5
196
330
18B
100
AcDbXrecord
280
1
1000
auto
  0
XRECORD
  5
197
330
18B
100
AcDbXrecord
280
1
1000
auto
  0
XRECORD
  5
198
330
18B
100
AcDbXrecord
280
1
1000
auto
  0
XRECORD
  5
199
330
18B
100
AcDbXrecord
280
1
1000
auto
  0
XRECORD
  5
19A
330
18B
100
AcDbXrecord
280
1
1000
auto
  0
XRECORD
  5
19B
330
18B
100
AcDbXrecord
280
1
1000
auto
  0
XRECORD
  5
19C
330
18B
100
AcDbXrecord
280
1
290
0
  0
XRECORD
  5
19D
330
18B
100
AcDbXrecord
280
1
290
0
  0
XRECORD
  5
19E
330
18B
100
AcDbXrecord
280
1
290
0
  0
XRECORD
  5
19F
330
18B
100
AcDbXrecord
280
1
290
0
  0
XRECORD
  5
1A0
330
18B
100
AcDbXrecord
280
1
 90
65537
  0
XRECORD
  5
1A1
330
18B
100
AcDbXrecord
280
1
 90
65537
  0
XRECORD
  5
1A2
330
18B
100
AcDbXrecord
280
1
 90
65537
  0
XRECORD
  5
1A3
330
18B
100
AcDbXrecord
280
1
 90
65537
  0
XRECORD
  5
1A4
330
18B
100
AcDbXrecord
280
1
1000
auto
  0
XRECORD
  5
1A5
330
18B
100
AcDbXrecord
280
1
1000
auto
  0
XRECORD
  5
1A6
330
18B
100
AcDbXrecord
280
1
1000
auto
  0
XRECORD
  5
1A7
330
18B
100
AcDbXrecord
280
1
1000
auto
  0
XRECORD
  5
1A8
330
18B
100
AcDbXrecord
280
1
1000
auto
  0
XRECORD
  5
1A9
330
18B
100
AcDbXrecord
280
1
1000
auto
  0
XRECORD
  5
1AA
330
18B
100
AcDbXrecord
280
1
1000
auto
  0
XRECORD
  5
1AB
330
18B
100
AcDbXrecord
280
1
1000
auto
  0
XRECORD
  5
1AC
330
18B
100
AcDbXrecord
280
1
 90
1
  0
XRECORD
  5
1AD
330
18B
100
AcDbXrecord
280
1
 40
10.0
  0
XRECORD
  5
1AE
330
18B
100
AcDbXrecord
280
1
 40
10.0
  0
XRECORD
  5
1AF
330
18B
100
AcDbXrecord
280
1
 40
10.0
  0
XRECORD
  5
1B0
330
18B
100
AcDbXrecord
280
1
 40
10.0
  0
XRECORD
  5
1B1
330
18B
100
AcDbXrecord
280
1
290
0
  0
XRECORD
  5
1B2
330
18B
100
AcDbXrecord
280
1
 90
1
  0
XRECORD
  5
1B3
330
18B
100
AcDbXrecord
280
1
 40
0.0
  0
XRECORD
  5
1B4
330
18B
100
AcDbXrecord
280
1
 40
0.0
  0
XRECORD
  5
1B5
330
18B
100
AcDbXrecord
280
1
1000
Portrait
  0
XRECORD
  5
1B6
330
18B
100
AcDbXrecord
280
1
 40
297.0
  0
XRECORD
  5
1B7
330
18B
100
AcDbXrecord
280
1
 40
210.0
  0
XRECORD
  5
1B8
330
18B
100
AcDbXrecord
280
1
1000
1:1
  0
XRECORD
  5
1B9
330
18B
100
AcDbXrecord
280
1
290
1
  0
XRECORD
  5
1BA
330
18B
100
AcDbXrecord
280
1
290
0
  0
XRECORD
  5
1BB
330
18B
100
AcDbXrecord
280
1
1000
Inside
  0
XRECORD
  5
1BC
330
18B
100
AcDbXrecord
280
1
1000
Arial,10,-1,5,50,0,0,0,0,0
  0
XRECORD
  5
1BD
330
18B
100
AcDbXrecord
280
1
1000
TopLeft
  0
XRECORD
  5
1BE
330
18B
100
AcDbXrecord
280
1
1000
3.25.0
  0
XRECORD
  5
1BF
330
18B
100
AcDbXrecord
280
1
 90
4
  0
XRECORD
  5
1C1
330
18B
100
AcDbXrecord
280
1
 40
77.8834035031105572
  0
XRECORD
  5
1C2
330
18B
100
AcDbXrecord
280
1
 40
146.3713488058458836
  0
ENDSEC
  0
EOF
