solid OpenSCAD_Model
  facet normal 0.735665 -0.677346 0
    outer loop
      vertex 34.4213 -3.68372 3
      vertex 34.7558 -3.32042 0
      vertex 34.7558 -3.32042 3
    endloop
  endfacet
  facet normal 0.735665 -0.677346 0
    outer loop
      vertex 34.7558 -3.32042 0
      vertex 34.4213 -3.68372 3
      vertex 34.4213 -3.68372 0
    endloop
  endfacet
  facet normal 0 1 -0
    outer loop
      vertex 33.5 4 0
      vertex -33.5 4 3
      vertex 33.5 4 3
    endloop
  endfacet
  facet normal 0 1 0
    outer loop
      vertex -33.5 4 3
      vertex 33.5 4 0
      vertex -33.5 4 0
    endloop
  endfacet
  facet normal 0.475914 -0.879492 0
    outer loop
      vertex 33.987 -3.91873 0
      vertex 34.4213 -3.68372 3
      vertex 33.987 -3.91873 3
    endloop
  endfacet
  facet normal 0.475914 -0.879492 0
    outer loop
      vertex 34.4213 -3.68372 3
      vertex 33.987 -3.91873 0
      vertex 34.4213 -3.68372 0
    endloop
  endfacet
  facet normal 0 -1 0
    outer loop
      vertex -33.5 -4 0
      vertex 33.5 -4 3
      vertex -33.5 -4 3
    endloop
  endfacet
  facet normal 0 -1 -0
    outer loop
      vertex 33.5 -4 3
      vertex -33.5 -4 0
      vertex 33.5 -4 0
    endloop
  endfacet
  facet normal 0.164603 -0.98636 0
    outer loop
      vertex 33.5 -4 0
      vertex 33.987 -3.91873 3
      vertex 33.5 -4 3
    endloop
  endfacet
  facet normal 0.164603 -0.98636 0
    outer loop
      vertex 33.987 -3.91873 3
      vertex 33.5 -4 0
      vertex 33.987 -3.91873 0
    endloop
  endfacet
  facet normal -1 0 0
    outer loop
      vertex -35 -2.5 0
      vertex -35 2.5 3
      vertex -35 2.5 0
    endloop
  endfacet
  facet normal -1 -0 0
    outer loop
      vertex -35 2.5 3
      vertex -35 -2.5 0
      vertex -35 -2.5 3
    endloop
  endfacet
  facet normal -0.879491 -0.475915 0
    outer loop
      vertex -34.6837 -3.42133 0
      vertex -34.9187 -2.98705 3
      vertex -34.9187 -2.98705 0
    endloop
  endfacet
  facet normal -0.879491 -0.475915 0
    outer loop
      vertex -34.9187 -2.98705 3
      vertex -34.6837 -3.42133 0
      vertex -34.6837 -3.42133 3
    endloop
  endfacet
  facet normal 0.677258 0.735745 -0
    outer loop
      vertex 34.6837 3.42133 0
      vertex 34.3204 3.75575 3
      vertex 34.6837 3.42133 3
    endloop
  endfacet
  facet normal 0.677258 0.735745 0
    outer loop
      vertex 34.3204 3.75575 3
      vertex 34.6837 3.42133 0
      vertex 34.3204 3.75575 0
    endloop
  endfacet
  facet normal -0.735665 0.677346 0
    outer loop
      vertex -34.7558 3.32042 0
      vertex -34.4213 3.68372 3
      vertex -34.4213 3.68372 0
    endloop
  endfacet
  facet normal -0.735665 0.677346 0
    outer loop
      vertex -34.4213 3.68372 3
      vertex -34.7558 3.32042 0
      vertex -34.7558 3.32042 3
    endloop
  endfacet
  facet normal -0.40169 -0.915776 0
    outer loop
      vertex -34.3204 -3.75575 0
      vertex -33.8682 -3.9541 3
      vertex -34.3204 -3.75575 3
    endloop
  endfacet
  facet normal -0.40169 -0.915776 -0
    outer loop
      vertex -33.8682 -3.9541 3
      vertex -34.3204 -3.75575 0
      vertex -33.8682 -3.9541 0
    endloop
  endfacet
  facet normal -0.475914 0.879492 0
    outer loop
      vertex -33.987 3.91873 0
      vertex -34.4213 3.68372 3
      vertex -33.987 3.91873 3
    endloop
  endfacet
  facet normal -0.475914 0.879492 0
    outer loop
      vertex -34.4213 3.68372 3
      vertex -33.987 3.91873 0
      vertex -34.4213 3.68372 0
    endloop
  endfacet
  facet normal -0.164603 0.98636 0
    outer loop
      vertex -33.5 4 0
      vertex -33.987 3.91873 3
      vertex -33.5 4 3
    endloop
  endfacet
  facet normal -0.164603 0.98636 0
    outer loop
      vertex -33.987 3.91873 3
      vertex -33.5 4 0
      vertex -33.987 3.91873 0
    endloop
  endfacet
  facet normal -0.91581 0.401612 0
    outer loop
      vertex -34.9541 2.86823 0
      vertex -34.7558 3.32042 3
      vertex -34.7558 3.32042 0
    endloop
  endfacet
  facet normal -0.91581 0.401612 0
    outer loop
      vertex -34.7558 3.32042 3
      vertex -34.9541 2.86823 0
      vertex -34.9541 2.86823 3
    endloop
  endfacet
  facet normal -0.992321 0.123693 0
    outer loop
      vertex -35 2.5 0
      vertex -34.9541 2.86823 3
      vertex -34.9541 2.86823 0
    endloop
  endfacet
  facet normal -0.992321 0.123693 0
    outer loop
      vertex -34.9541 2.86823 3
      vertex -35 2.5 0
      vertex -35 2.5 3
    endloop
  endfacet
  facet normal 0.992321 -0.123693 0
    outer loop
      vertex 34.9541 -2.86823 3
      vertex 35 -2.5 0
      vertex 35 -2.5 3
    endloop
  endfacet
  facet normal 0.992321 -0.123693 0
    outer loop
      vertex 35 -2.5 0
      vertex 34.9541 -2.86823 3
      vertex 34.9541 -2.86823 0
    endloop
  endfacet
  facet normal 0.123703 0.992319 -0
    outer loop
      vertex 33.8682 3.9541 0
      vertex 33.5 4 3
      vertex 33.8682 3.9541 3
    endloop
  endfacet
  facet normal 0.123703 0.992319 0
    outer loop
      vertex 33.5 4 3
      vertex 33.8682 3.9541 0
      vertex 33.5 4 0
    endloop
  endfacet
  facet normal 0 0 -1
    outer loop
      vertex 33.5 -4 0
      vertex 35 -2.5 0
      vertex 34.9541 -2.86823 0
    endloop
  endfacet
  facet normal -0 0 -1
    outer loop
      vertex 35 -2.5 0
      vertex 33.5 -4 0
      vertex 35 2.5 0
    endloop
  endfacet
  facet normal 0 0 -1
    outer loop
      vertex 33.5 -4 0
      vertex 34.9541 -2.86823 0
      vertex 34.7558 -3.32042 0
    endloop
  endfacet
  facet normal -0 0 -1
    outer loop
      vertex 35 2.5 0
      vertex 33.5 -4 0
      vertex 33.5 4 0
    endloop
  endfacet
  facet normal 0 0 -1
    outer loop
      vertex 33.5 -4 0
      vertex 34.7558 -3.32042 0
      vertex 34.4213 -3.68372 0
    endloop
  endfacet
  facet normal 0 0 -1
    outer loop
      vertex 35 2.5 0
      vertex 33.5 4 0
      vertex 34.9187 2.98705 0
    endloop
  endfacet
  facet normal 0 0 -1
    outer loop
      vertex 33.5 -4 0
      vertex 34.4213 -3.68372 0
      vertex 33.987 -3.91873 0
    endloop
  endfacet
  facet normal 0 0 -1
    outer loop
      vertex 34.9187 2.98705 0
      vertex 33.5 4 0
      vertex 34.6837 3.42133 0
    endloop
  endfacet
  facet normal 0 0 -1
    outer loop
      vertex 34.6837 3.42133 0
      vertex 33.5 4 0
      vertex 34.3204 3.75575 0
    endloop
  endfacet
  facet normal 0 0 -1
    outer loop
      vertex 34.3204 3.75575 0
      vertex 33.5 4 0
      vertex 33.8682 3.9541 0
    endloop
  endfacet
  facet normal 0 0 -1
    outer loop
      vertex -33.5 -4 0
      vertex 33.5 4 0
      vertex 33.5 -4 0
    endloop
  endfacet
  facet normal 0 0 -1
    outer loop
      vertex -33.5 -4 0
      vertex -33.5 4 0
      vertex 33.5 4 0
    endloop
  endfacet
  facet normal 0 0 -1
    outer loop
      vertex -35 -2.5 0
      vertex -33.5 -4 0
      vertex -33.8682 -3.9541 0
    endloop
  endfacet
  facet normal 0 0 -1
    outer loop
      vertex -33.5 -4 0
      vertex -35 -2.5 0
      vertex -33.5 4 0
    endloop
  endfacet
  facet normal 0 0 -1
    outer loop
      vertex -35 -2.5 0
      vertex -33.8682 -3.9541 0
      vertex -34.3204 -3.75575 0
    endloop
  endfacet
  facet normal 0 0 -1
    outer loop
      vertex -33.5 4 0
      vertex -35 -2.5 0
      vertex -35 2.5 0
    endloop
  endfacet
  facet normal 0 0 -1
    outer loop
      vertex -35 -2.5 0
      vertex -34.3204 -3.75575 0
      vertex -34.6837 -3.42133 0
    endloop
  endfacet
  facet normal 0 0 -1
    outer loop
      vertex -33.5 4 0
      vertex -35 2.5 0
      vertex -33.987 3.91873 0
    endloop
  endfacet
  facet normal 0 0 -1
    outer loop
      vertex -35 -2.5 0
      vertex -34.6837 -3.42133 0
      vertex -34.9187 -2.98705 0
    endloop
  endfacet
  facet normal 0 0 -1
    outer loop
      vertex -33.987 3.91873 0
      vertex -35 2.5 0
      vertex -34.4213 3.68372 0
    endloop
  endfacet
  facet normal 0 0 -1
    outer loop
      vertex -34.4213 3.68372 0
      vertex -35 2.5 0
      vertex -34.7558 3.32042 0
    endloop
  endfacet
  facet normal 0 0 -1
    outer loop
      vertex -34.7558 3.32042 0
      vertex -35 2.5 0
      vertex -34.9541 2.86823 0
    endloop
  endfacet
  facet normal -0.677258 -0.735745 0
    outer loop
      vertex -34.6837 -3.42133 0
      vertex -34.3204 -3.75575 3
      vertex -34.6837 -3.42133 3
    endloop
  endfacet
  facet normal -0.677258 -0.735745 -0
    outer loop
      vertex -34.3204 -3.75575 3
      vertex -34.6837 -3.42133 0
      vertex -34.3204 -3.75575 0
    endloop
  endfacet
  facet normal 1 -0 0
    outer loop
      vertex 35 -2.5 3
      vertex 35 2.5 0
      vertex 35 2.5 3
    endloop
  endfacet
  facet normal 1 0 0
    outer loop
      vertex 35 2.5 0
      vertex 35 -2.5 3
      vertex 35 -2.5 0
    endloop
  endfacet
  facet normal -0.986353 -0.164645 0
    outer loop
      vertex -34.9187 -2.98705 0
      vertex -35 -2.5 3
      vertex -35 -2.5 0
    endloop
  endfacet
  facet normal -0.986353 -0.164645 0
    outer loop
      vertex -35 -2.5 3
      vertex -34.9187 -2.98705 0
      vertex -34.9187 -2.98705 3
    endloop
  endfacet
  facet normal 0.986353 0.164645 0
    outer loop
      vertex 35 2.5 3
      vertex 34.9187 2.98705 0
      vertex 34.9187 2.98705 3
    endloop
  endfacet
  facet normal 0.986353 0.164645 0
    outer loop
      vertex 34.9187 2.98705 0
      vertex 35 2.5 3
      vertex 35 2.5 0
    endloop
  endfacet
  facet normal -0.123703 -0.992319 0
    outer loop
      vertex -33.8682 -3.9541 0
      vertex -33.5 -4 3
      vertex -33.8682 -3.9541 3
    endloop
  endfacet
  facet normal -0.123703 -0.992319 -0
    outer loop
      vertex -33.5 -4 3
      vertex -33.8682 -3.9541 0
      vertex -33.5 -4 0
    endloop
  endfacet
  facet normal 0.879491 0.475915 0
    outer loop
      vertex 34.9187 2.98705 3
      vertex 34.6837 3.42133 0
      vertex 34.6837 3.42133 3
    endloop
  endfacet
  facet normal 0.879491 0.475915 0
    outer loop
      vertex 34.6837 3.42133 0
      vertex 34.9187 2.98705 3
      vertex 34.9187 2.98705 0
    endloop
  endfacet
  facet normal 0.91581 -0.401612 0
    outer loop
      vertex 34.7558 -3.32042 3
      vertex 34.9541 -2.86823 0
      vertex 34.9541 -2.86823 3
    endloop
  endfacet
  facet normal 0.91581 -0.401612 0
    outer loop
      vertex 34.9541 -2.86823 0
      vertex 34.7558 -3.32042 3
      vertex 34.7558 -3.32042 0
    endloop
  endfacet
  facet normal 0.40169 0.915776 -0
    outer loop
      vertex 34.3204 3.75575 0
      vertex 33.8682 3.9541 3
      vertex 34.3204 3.75575 3
    endloop
  endfacet
  facet normal 0.40169 0.915776 0
    outer loop
      vertex 33.8682 3.9541 3
      vertex 34.3204 3.75575 0
      vertex 33.8682 3.9541 0
    endloop
  endfacet
  facet normal 0 0 1
    outer loop
      vertex 33.5 -4 3
      vertex 35 -2.5 3
      vertex 35 2.5 3
    endloop
  endfacet
  facet normal 0 0 1
    outer loop
      vertex 33.5 4 3
      vertex 35 2.5 3
      vertex 34.9187 2.98705 3
    endloop
  endfacet
  facet normal 0 0 1
    outer loop
      vertex 33.5 -4 3
      vertex 35 2.5 3
      vertex 33.5 4 3
    endloop
  endfacet
  facet normal 0 0 1
    outer loop
      vertex 33.5 4 3
      vertex 34.9187 2.98705 3
      vertex 34.6837 3.42133 3
    endloop
  endfacet
  facet normal 0 0 1
    outer loop
      vertex 35 -2.5 3
      vertex 33.5 -4 3
      vertex 34.9541 -2.86823 3
    endloop
  endfacet
  facet normal 0 0 1
    outer loop
      vertex 33.5 4 3
      vertex 34.6837 3.42133 3
      vertex 34.3204 3.75575 3
    endloop
  endfacet
  facet normal 0 0 1
    outer loop
      vertex 34.9541 -2.86823 3
      vertex 33.5 -4 3
      vertex 34.7558 -3.32042 3
    endloop
  endfacet
  facet normal 0 0 1
    outer loop
      vertex 33.5 4 3
      vertex 34.3204 3.75575 3
      vertex 33.8682 3.9541 3
    endloop
  endfacet
  facet normal 0 0 1
    outer loop
      vertex 34.7558 -3.32042 3
      vertex 33.5 -4 3
      vertex 34.4213 -3.68372 3
    endloop
  endfacet
  facet normal 0 0 1
    outer loop
      vertex 34.4213 -3.68372 3
      vertex 33.5 -4 3
      vertex 33.987 -3.91873 3
    endloop
  endfacet
  facet normal 0 0 1
    outer loop
      vertex 0 0 3
      vertex 33.5 4 3
      vertex 0 2.5 3
    endloop
  endfacet
  facet normal -0 0 1
    outer loop
      vertex -33.5 4 3
      vertex 0 2.5 3
      vertex 33.5 4 3
    endloop
  endfacet
  facet normal 0 0 1
    outer loop
      vertex -27.5 2.5 3
      vertex -33.5 4 3
      vertex -27.5 0 3
    endloop
  endfacet
  facet normal 0 0 1
    outer loop
      vertex 0 2.5 3
      vertex -33.5 4 3
      vertex -27.5 2.5 3
    endloop
  endfacet
  facet normal 0 0 1
    outer loop
      vertex 33.5 4 3
      vertex 0 0 3
      vertex 33.5 -4 3
    endloop
  endfacet
  facet normal 0 0 1
    outer loop
      vertex -33.5 -4 3
      vertex 0 0 3
      vertex -27.5 0 3
    endloop
  endfacet
  facet normal 0 0 1
    outer loop
      vertex 0 0 3
      vertex -33.5 -4 3
      vertex 33.5 -4 3
    endloop
  endfacet
  facet normal -0 0 1
    outer loop
      vertex -35 2.5 3
      vertex -27.5 0 3
      vertex -33.5 4 3
    endloop
  endfacet
  facet normal 0 0 1
    outer loop
      vertex -27.5 0 3
      vertex -35 -2.5 3
      vertex -33.5 -4 3
    endloop
  endfacet
  facet normal 0 0 1
    outer loop
      vertex -35 2.5 3
      vertex -33.5 4 3
      vertex -33.987 3.91873 3
    endloop
  endfacet
  facet normal 0 0 1
    outer loop
      vertex -27.5 0 3
      vertex -35 2.5 3
      vertex -35 -2.5 3
    endloop
  endfacet
  facet normal 0 0 1
    outer loop
      vertex -35 2.5 3
      vertex -33.987 3.91873 3
      vertex -34.4213 3.68372 3
    endloop
  endfacet
  facet normal 0 0 1
    outer loop
      vertex -33.5 -4 3
      vertex -35 -2.5 3
      vertex -33.8682 -3.9541 3
    endloop
  endfacet
  facet normal 0 0 1
    outer loop
      vertex -35 2.5 3
      vertex -34.4213 3.68372 3
      vertex -34.7558 3.32042 3
    endloop
  endfacet
  facet normal 0 0 1
    outer loop
      vertex -33.8682 -3.9541 3
      vertex -35 -2.5 3
      vertex -34.3204 -3.75575 3
    endloop
  endfacet
  facet normal 0 0 1
    outer loop
      vertex -35 2.5 3
      vertex -34.7558 3.32042 3
      vertex -34.9541 2.86823 3
    endloop
  endfacet
  facet normal 0 0 1
    outer loop
      vertex -34.3204 -3.75575 3
      vertex -35 -2.5 3
      vertex -34.6837 -3.42133 3
    endloop
  endfacet
  facet normal 0 0 1
    outer loop
      vertex -34.6837 -3.42133 3
      vertex -35 -2.5 3
      vertex -34.9187 -2.98705 3
    endloop
  endfacet
  facet normal 1 0 0
    outer loop
      vertex 0 2.5 13
      vertex 0 0 3
      vertex 0 2.5 3
    endloop
  endfacet
  facet normal 1 0 -0
    outer loop
      vertex 0 0 3
      vertex 0 2.5 13
      vertex 0 -2.5 13
    endloop
  endfacet
  facet normal -1 0 0
    outer loop
      vertex -27.5 0 3
      vertex -27.5 2.5 13
      vertex -27.5 2.5 3
    endloop
  endfacet
  facet normal -1 -0 0
    outer loop
      vertex -27.5 2.5 13
      vertex -27.5 0 3
      vertex -27.5 -2.5 13
    endloop
  endfacet
  facet normal -0 0 1
    outer loop
      vertex -27.5 2.5 13
      vertex 0 -2.5 13
      vertex 0 2.5 13
    endloop
  endfacet
  facet normal 0 0 1
    outer loop
      vertex 0 -2.5 13
      vertex -27.5 2.5 13
      vertex -27.5 -2.5 13
    endloop
  endfacet
  facet normal 0 1 -0
    outer loop
      vertex 0 2.5 3
      vertex -27.5 2.5 13
      vertex 0 2.5 13
    endloop
  endfacet
  facet normal 0 1 0
    outer loop
      vertex -27.5 2.5 13
      vertex 0 2.5 3
      vertex -27.5 2.5 3
    endloop
  endfacet
  facet normal 0 -0.970143 -0.242536
    outer loop
      vertex -27.5 0 3
      vertex 0 -2.5 13
      vertex -27.5 -2.5 13
    endloop
  endfacet
  facet normal 0 -0.970143 -0.242536
    outer loop
      vertex 0 -2.5 13
      vertex -27.5 0 3
      vertex 0 0 3
    endloop
  endfacet
endsolid OpenSCAD_Model
